%TF.GenerationSoftware,KiCad,Pcbnew,6.0.11-2627ca5db0~126~ubuntu20.04.1*%
%TF.CreationDate,2024-07-26T13:52:13-06:00*%
%TF.ProjectId,red-pitaya-pwm-shield,7265642d-7069-4746-9179-612d70776d2d,rev?*%
%TF.SameCoordinates,Original*%
%TF.FileFunction,Paste,Top*%
%TF.FilePolarity,Positive*%
%FSLAX46Y46*%
G04 Gerber Fmt 4.6, Leading zero omitted, Abs format (unit mm)*
G04 Created by KiCad (PCBNEW 6.0.11-2627ca5db0~126~ubuntu20.04.1) date 2024-07-26 13:52:13*
%MOMM*%
%LPD*%
G01*
G04 APERTURE LIST*
G04 Aperture macros list*
%AMRoundRect*
0 Rectangle with rounded corners*
0 $1 Rounding radius*
0 $2 $3 $4 $5 $6 $7 $8 $9 X,Y pos of 4 corners*
0 Add a 4 corners polygon primitive as box body*
4,1,4,$2,$3,$4,$5,$6,$7,$8,$9,$2,$3,0*
0 Add four circle primitives for the rounded corners*
1,1,$1+$1,$2,$3*
1,1,$1+$1,$4,$5*
1,1,$1+$1,$6,$7*
1,1,$1+$1,$8,$9*
0 Add four rect primitives between the rounded corners*
20,1,$1+$1,$2,$3,$4,$5,0*
20,1,$1+$1,$4,$5,$6,$7,0*
20,1,$1+$1,$6,$7,$8,$9,0*
20,1,$1+$1,$8,$9,$2,$3,0*%
G04 Aperture macros list end*
%ADD10RoundRect,0.250000X-0.625000X0.400000X-0.625000X-0.400000X0.625000X-0.400000X0.625000X0.400000X0*%
%ADD11RoundRect,0.150000X-0.150000X0.587500X-0.150000X-0.587500X0.150000X-0.587500X0.150000X0.587500X0*%
%ADD12RoundRect,0.250000X0.625000X-0.400000X0.625000X0.400000X-0.625000X0.400000X-0.625000X-0.400000X0*%
%ADD13RoundRect,0.150000X-0.512500X-0.150000X0.512500X-0.150000X0.512500X0.150000X-0.512500X0.150000X0*%
%ADD14RoundRect,0.250000X-0.400000X-0.625000X0.400000X-0.625000X0.400000X0.625000X-0.400000X0.625000X0*%
%ADD15RoundRect,0.250000X0.400000X0.625000X-0.400000X0.625000X-0.400000X-0.625000X0.400000X-0.625000X0*%
%ADD16RoundRect,0.250000X-0.412500X-0.650000X0.412500X-0.650000X0.412500X0.650000X-0.412500X0.650000X0*%
%ADD17RoundRect,0.250000X0.650000X-0.412500X0.650000X0.412500X-0.650000X0.412500X-0.650000X-0.412500X0*%
%ADD18RoundRect,0.250000X-0.650000X0.412500X-0.650000X-0.412500X0.650000X-0.412500X0.650000X0.412500X0*%
%ADD19RoundRect,0.150000X-0.825000X-0.150000X0.825000X-0.150000X0.825000X0.150000X-0.825000X0.150000X0*%
%ADD20RoundRect,0.250000X0.412500X0.650000X-0.412500X0.650000X-0.412500X-0.650000X0.412500X-0.650000X0*%
G04 APERTURE END LIST*
D10*
%TO.C,R8*%
X84753650Y-63696450D03*
X84753650Y-66796450D03*
%TD*%
D11*
%TO.C,U2*%
X58271650Y-91613950D03*
X56371650Y-91613950D03*
X57321650Y-93488950D03*
%TD*%
D10*
%TO.C,R10*%
X79419650Y-63696450D03*
X79419650Y-66796450D03*
%TD*%
D12*
%TO.C,R4*%
X87459650Y-66796450D03*
X87459650Y-63696450D03*
%TD*%
D13*
%TO.C,Q1*%
X104907500Y-86756200D03*
X104907500Y-88656200D03*
X107182500Y-87706200D03*
%TD*%
D12*
%TO.C,R7*%
X76879650Y-81401450D03*
X76879650Y-78301450D03*
%TD*%
D14*
%TO.C,R1*%
X63238650Y-91535450D03*
X66338650Y-91535450D03*
%TD*%
D15*
%TO.C,R15*%
X96375900Y-67818000D03*
X93275900Y-67818000D03*
%TD*%
D16*
%TO.C,C16*%
X104798400Y-77470000D03*
X107923400Y-77470000D03*
%TD*%
D12*
%TO.C,R9*%
X84626650Y-81528450D03*
X84626650Y-78428450D03*
%TD*%
D15*
%TO.C,R2*%
X60167650Y-68548450D03*
X57067650Y-68548450D03*
%TD*%
D10*
%TO.C,R6*%
X76752650Y-63693450D03*
X76752650Y-66793450D03*
%TD*%
D16*
%TO.C,C18*%
X104811700Y-69900800D03*
X107936700Y-69900800D03*
%TD*%
D10*
%TO.C,R5*%
X87420650Y-78428450D03*
X87420650Y-81528450D03*
%TD*%
D16*
%TO.C,C19*%
X104799600Y-72415400D03*
X107924600Y-72415400D03*
%TD*%
%TO.C,C10*%
X93293400Y-75184000D03*
X96418400Y-75184000D03*
%TD*%
D17*
%TO.C,C5*%
X88436650Y-90469450D03*
X88436650Y-87344450D03*
%TD*%
D16*
%TO.C,C9*%
X93293400Y-82626200D03*
X96418400Y-82626200D03*
%TD*%
D15*
%TO.C,R14*%
X96375900Y-70256400D03*
X93275900Y-70256400D03*
%TD*%
D17*
%TO.C,C8*%
X87420650Y-72015950D03*
X87420650Y-68890950D03*
%TD*%
D18*
%TO.C,C1*%
X63671650Y-78923950D03*
X63671650Y-82048950D03*
%TD*%
D16*
%TO.C,C11*%
X93293400Y-72644000D03*
X96418400Y-72644000D03*
%TD*%
D12*
%TO.C,F1*%
X109931200Y-88976200D03*
X109931200Y-85876200D03*
%TD*%
D16*
%TO.C,C3*%
X74047150Y-90138450D03*
X77172150Y-90138450D03*
%TD*%
D15*
%TO.C,R13*%
X96375900Y-77647800D03*
X93275900Y-77647800D03*
%TD*%
D19*
%TO.C,U4*%
X57578650Y-71088450D03*
X57578650Y-72358450D03*
X57578650Y-73628450D03*
X57578650Y-74898450D03*
X62528650Y-74898450D03*
X62528650Y-73628450D03*
X62528650Y-72358450D03*
X62528650Y-71088450D03*
%TD*%
%TO.C,U1*%
X58656650Y-84042450D03*
X58656650Y-85312450D03*
X58656650Y-86582450D03*
X58656650Y-87852450D03*
X63606650Y-87852450D03*
X63606650Y-86582450D03*
X63606650Y-85312450D03*
X63606650Y-84042450D03*
%TD*%
D17*
%TO.C,C7*%
X76752650Y-71888950D03*
X76752650Y-68763950D03*
%TD*%
D18*
%TO.C,C15*%
X54654650Y-71646450D03*
X54654650Y-74771450D03*
%TD*%
D16*
%TO.C,C12*%
X93293400Y-65379600D03*
X96418400Y-65379600D03*
%TD*%
D10*
%TO.C,R3*%
X62720650Y-66109450D03*
X62720650Y-69209450D03*
%TD*%
D20*
%TO.C,C4*%
X82544650Y-90138450D03*
X79419650Y-90138450D03*
%TD*%
D12*
%TO.C,R11*%
X79509650Y-81377450D03*
X79509650Y-78277450D03*
%TD*%
D16*
%TO.C,C17*%
X104810700Y-74930000D03*
X107935700Y-74930000D03*
%TD*%
D18*
%TO.C,C2*%
X60623650Y-91535450D03*
X60623650Y-94660450D03*
%TD*%
%TO.C,C14*%
X65322650Y-69144950D03*
X65322650Y-72269950D03*
%TD*%
D15*
%TO.C,R12*%
X96375900Y-80238600D03*
X93275900Y-80238600D03*
%TD*%
D19*
%TO.C,U5*%
X79584650Y-68668450D03*
X79584650Y-69938450D03*
X79584650Y-71208450D03*
X79584650Y-72478450D03*
X79584650Y-73748450D03*
X79584650Y-75018450D03*
X79584650Y-76288450D03*
X84534650Y-76288450D03*
X84534650Y-75018450D03*
X84534650Y-73748450D03*
X84534650Y-72478450D03*
X84534650Y-71208450D03*
X84534650Y-69938450D03*
X84534650Y-68668450D03*
%TD*%
M02*
