M48
; DRILL file {KiCad 6.0.11-2627ca5db0~126~ubuntu20.04.1} date Fri 26 Jul 2024 13:52:01
; FORMAT={-:-/ absolute / inch / decimal}
; #@! TF.CreationDate,2024-07-26T13:52:01-06:00
; #@! TF.GenerationSoftware,Kicad,Pcbnew,6.0.11-2627ca5db0~126~ubuntu20.04.1
; #@! TF.FileFunction,Plated,1,2,PTH
FMAT,2
INCH
; #@! TA.AperFunction,Plated,PTH,ViaDrill
T1C0.0157
; #@! TA.AperFunction,Plated,PTH,ComponentDrill
T2C0.0276
; #@! TA.AperFunction,Plated,PTH,ComponentDrill
T3C0.0315
; #@! TA.AperFunction,Plated,PTH,ComponentDrill
T4C0.0394
; #@! TA.AperFunction,Plated,PTH,ComponentDrill
T5C0.0598
%
G90
G05
T1
X2.1568Y-2.7588
X2.2168Y-3.5438
X2.2368Y-3.3588
X2.2895Y-3.0038
X2.3623Y-3.0038
X2.3918Y-3.7988
X2.423Y-3.404
X2.451Y-3.505
X2.5068Y-3.0488
X2.5768Y-2.6638
X2.5768Y-3.3588
X2.6418Y-2.8438
X2.6418Y-2.9388
X2.8468Y-3.5838
X2.9568Y-2.6988
X2.9618Y-3.0138
X3.0018Y-3.3943
X3.0616Y-3.0239
X3.0618Y-2.9088
X3.0768Y-3.4488
X3.0818Y-3.3038
X3.0873Y-3.2648
X3.1268Y-3.6188
X3.1968Y-2.8038
X3.2518Y-2.6988
X3.2618Y-3.4005
X3.2768Y-3.4488
X3.327Y-3.316
X3.3318Y-3.0438
X3.426Y-2.949
X3.5068Y-2.7038
X3.5218Y-3.1738
X3.5368Y-2.5188
X3.612Y-3.117
X3.849Y-2.907
X4.171Y-3.364
X4.308Y-2.849
T2
X2.9253Y-3.813
X3.0253Y-3.813
X3.1253Y-3.813
X3.3253Y-3.813
X3.4253Y-3.813
T3
X2.5118Y-3.7688
X2.5905Y-3.7688
T4
X1.646Y-2.55
X1.646Y-2.65
X1.646Y-2.75
X1.646Y-2.85
X1.646Y-2.95
X1.646Y-3.05
X1.646Y-3.15
X1.646Y-3.25
X1.646Y-3.35
X1.646Y-3.45
X1.646Y-3.55
X1.646Y-3.65
X1.646Y-3.75
X1.746Y-2.55
X1.746Y-2.65
X1.746Y-2.75
X1.746Y-2.85
X1.746Y-2.95
X1.746Y-3.05
X1.746Y-3.15
X1.746Y-3.25
X1.746Y-3.35
X1.746Y-3.45
X1.746Y-3.55
X1.746Y-3.65
X1.746Y-3.75
X1.915Y-2.55
X1.915Y-2.65
X1.915Y-2.75
X1.915Y-2.85
X1.915Y-2.95
X1.915Y-3.05
X1.915Y-3.15
X1.915Y-3.25
X1.915Y-3.35
X1.915Y-3.45
X1.915Y-3.55
X1.915Y-3.65
X1.915Y-3.75
X2.015Y-2.55
X2.015Y-2.65
X2.015Y-2.75
X2.015Y-2.85
X2.015Y-2.95
X2.015Y-3.05
X2.015Y-3.15
X2.015Y-3.25
X2.015Y-3.35
X2.015Y-3.45
X2.015Y-3.55
X2.015Y-3.65
X2.015Y-3.75
X2.7225Y-2.5947
X2.7225Y-2.6947
X2.7225Y-2.7947
X2.7225Y-2.8947
X2.7225Y-2.9947
X2.7225Y-3.0947
X2.8225Y-2.5947
X2.8225Y-2.6947
X2.8225Y-2.7947
X2.8225Y-2.8947
X2.8225Y-2.9947
X2.8225Y-3.0947
X3.915Y-2.55
X3.915Y-2.65
X3.915Y-2.75
X3.915Y-2.85
X3.915Y-2.95
X3.915Y-3.05
X3.915Y-3.15
X3.915Y-3.25
X3.915Y-3.35
X3.915Y-3.45
X3.915Y-3.55
X3.915Y-3.65
X3.915Y-3.75
X4.015Y-2.55
X4.015Y-2.65
X4.015Y-2.75
X4.015Y-2.85
X4.015Y-2.95
X4.015Y-3.05
X4.015Y-3.15
X4.015Y-3.25
X4.015Y-3.35
X4.015Y-3.45
X4.015Y-3.55
X4.015Y-3.65
X4.015Y-3.75
T5
X4.238Y-3.661
X4.238Y-3.861
T0
M30
