%TF.GenerationSoftware,KiCad,Pcbnew,6.0.11-2627ca5db0~126~ubuntu20.04.1*%
%TF.CreationDate,2024-07-26T13:52:00-06:00*%
%TF.ProjectId,red-pitaya-pwm-shield,7265642d-7069-4746-9179-612d70776d2d,rev?*%
%TF.SameCoordinates,Original*%
%TF.FileFunction,Drillmap*%
%TF.FilePolarity,Positive*%
%FSLAX45Y45*%
G04 Gerber Fmt 4.5, Leading zero omitted, Abs format (unit mm)*
G04 Created by KiCad (PCBNEW 6.0.11-2627ca5db0~126~ubuntu20.04.1) date 2024-07-26 13:52:00*
%MOMM*%
%LPD*%
G01*
G04 APERTURE LIST*
%ADD10C,0.100000*%
%ADD11C,0.200000*%
G04 APERTURE END LIST*
D10*
X3888740Y-6223000D02*
X11176000Y-6223000D01*
X11176000Y-6223000D02*
X11176000Y-10091420D01*
X11176000Y-10091420D02*
X3888740Y-10091420D01*
X3888740Y-10091420D02*
X3888740Y-6223000D01*
D11*
X4141359Y-10406896D02*
X4141359Y-10206896D01*
X4188978Y-10206896D01*
X4217550Y-10216420D01*
X4236597Y-10235468D01*
X4246121Y-10254515D01*
X4255645Y-10292610D01*
X4255645Y-10321182D01*
X4246121Y-10359277D01*
X4236597Y-10378325D01*
X4217550Y-10397372D01*
X4188978Y-10406896D01*
X4141359Y-10406896D01*
X4341359Y-10406896D02*
X4341359Y-10273563D01*
X4341359Y-10311658D02*
X4350883Y-10292610D01*
X4360407Y-10283087D01*
X4379454Y-10273563D01*
X4398502Y-10273563D01*
X4465169Y-10406896D02*
X4465169Y-10273563D01*
X4465169Y-10206896D02*
X4455645Y-10216420D01*
X4465169Y-10225944D01*
X4474692Y-10216420D01*
X4465169Y-10206896D01*
X4465169Y-10225944D01*
X4588978Y-10406896D02*
X4569930Y-10397372D01*
X4560407Y-10378325D01*
X4560407Y-10206896D01*
X4693740Y-10406896D02*
X4674692Y-10397372D01*
X4665169Y-10378325D01*
X4665169Y-10206896D01*
X4922311Y-10406896D02*
X4922311Y-10206896D01*
X4988978Y-10349753D01*
X5055645Y-10206896D01*
X5055645Y-10406896D01*
X5236597Y-10406896D02*
X5236597Y-10302134D01*
X5227073Y-10283087D01*
X5208026Y-10273563D01*
X5169930Y-10273563D01*
X5150883Y-10283087D01*
X5236597Y-10397372D02*
X5217550Y-10406896D01*
X5169930Y-10406896D01*
X5150883Y-10397372D01*
X5141359Y-10378325D01*
X5141359Y-10359277D01*
X5150883Y-10340230D01*
X5169930Y-10330706D01*
X5217550Y-10330706D01*
X5236597Y-10321182D01*
X5331835Y-10273563D02*
X5331835Y-10473563D01*
X5331835Y-10283087D02*
X5350883Y-10273563D01*
X5388978Y-10273563D01*
X5408026Y-10283087D01*
X5417550Y-10292610D01*
X5427073Y-10311658D01*
X5427073Y-10368801D01*
X5417550Y-10387849D01*
X5408026Y-10397372D01*
X5388978Y-10406896D01*
X5350883Y-10406896D01*
X5331835Y-10397372D01*
X5512788Y-10387849D02*
X5522311Y-10397372D01*
X5512788Y-10406896D01*
X5503264Y-10397372D01*
X5512788Y-10387849D01*
X5512788Y-10406896D01*
X5512788Y-10283087D02*
X5522311Y-10292610D01*
X5512788Y-10302134D01*
X5503264Y-10292610D01*
X5512788Y-10283087D01*
X5512788Y-10302134D01*
M02*
