%TF.GenerationSoftware,KiCad,Pcbnew,6.0.11-2627ca5db0~126~ubuntu20.04.1*%
%TF.CreationDate,2024-07-26T13:52:13-06:00*%
%TF.ProjectId,red-pitaya-pwm-shield,7265642d-7069-4746-9179-612d70776d2d,rev?*%
%TF.SameCoordinates,Original*%
%TF.FileFunction,Soldermask,Bot*%
%TF.FilePolarity,Negative*%
%FSLAX46Y46*%
G04 Gerber Fmt 4.6, Leading zero omitted, Abs format (unit mm)*
G04 Created by KiCad (PCBNEW 6.0.11-2627ca5db0~126~ubuntu20.04.1) date 2024-07-26 13:52:13*
%MOMM*%
%LPD*%
G01*
G04 APERTURE LIST*
%ADD10R,1.700000X1.700000*%
%ADD11O,1.700000X1.700000*%
%ADD12R,1.500000X1.500000*%
%ADD13O,1.500000X1.500000*%
%ADD14R,3.000000X3.000000*%
%ADD15C,3.000000*%
%ADD16R,1.600000X1.600000*%
%ADD17C,1.600000*%
G04 APERTURE END LIST*
D10*
%TO.C,J2*%
X71692650Y-65906450D03*
D11*
X69152650Y-65906450D03*
X71692650Y-68446450D03*
X69152650Y-68446450D03*
X71692650Y-70986450D03*
X69152650Y-70986450D03*
X71692650Y-73526450D03*
X69152650Y-73526450D03*
X71692650Y-76066450D03*
X69152650Y-76066450D03*
X71692650Y-78606450D03*
X69152650Y-78606450D03*
%TD*%
D12*
%TO.C,U3*%
X87002150Y-96850950D03*
D13*
X84462150Y-96850950D03*
X79382150Y-96850950D03*
X76842150Y-96850950D03*
X74302150Y-96850950D03*
%TD*%
D14*
%TO.C,J3*%
X107645200Y-92989400D03*
D15*
X107645200Y-98069400D03*
%TD*%
D16*
%TO.C,C13*%
X63798650Y-95726450D03*
D17*
X65798650Y-95726450D03*
%TD*%
D10*
%TO.C,J5*%
X41808400Y-95250000D03*
D11*
X44348400Y-95250000D03*
X41808400Y-92710000D03*
X44348400Y-92710000D03*
X41808400Y-90170000D03*
X44348400Y-90170000D03*
X41808400Y-87630000D03*
X44348400Y-87630000D03*
X41808400Y-85090000D03*
X44348400Y-85090000D03*
X41808400Y-82550000D03*
X44348400Y-82550000D03*
X41808400Y-80010000D03*
X44348400Y-80010000D03*
X41808400Y-77470000D03*
X44348400Y-77470000D03*
X41808400Y-74930000D03*
X44348400Y-74930000D03*
X41808400Y-72390000D03*
X44348400Y-72390000D03*
X41808400Y-69850000D03*
X44348400Y-69850000D03*
X41808400Y-67310000D03*
X44348400Y-67310000D03*
X41808400Y-64770000D03*
X44348400Y-64770000D03*
%TD*%
D10*
%TO.C,J1*%
X101981000Y-95250000D03*
D11*
X99441000Y-95250000D03*
X101981000Y-92710000D03*
X99441000Y-92710000D03*
X101981000Y-90170000D03*
X99441000Y-90170000D03*
X101981000Y-87630000D03*
X99441000Y-87630000D03*
X101981000Y-85090000D03*
X99441000Y-85090000D03*
X101981000Y-82550000D03*
X99441000Y-82550000D03*
X101981000Y-80010000D03*
X99441000Y-80010000D03*
X101981000Y-77470000D03*
X99441000Y-77470000D03*
X101981000Y-74930000D03*
X99441000Y-74930000D03*
X101981000Y-72390000D03*
X99441000Y-72390000D03*
X101981000Y-69850000D03*
X99441000Y-69850000D03*
X101981000Y-67310000D03*
X99441000Y-67310000D03*
X101981000Y-64770000D03*
X99441000Y-64770000D03*
%TD*%
D10*
%TO.C,J4*%
X51180000Y-95250000D03*
D11*
X48640000Y-95250000D03*
X51180000Y-92710000D03*
X48640000Y-92710000D03*
X51180000Y-90170000D03*
X48640000Y-90170000D03*
X51180000Y-87630000D03*
X48640000Y-87630000D03*
X51180000Y-85090000D03*
X48640000Y-85090000D03*
X51180000Y-82550000D03*
X48640000Y-82550000D03*
X51180000Y-80010000D03*
X48640000Y-80010000D03*
X51180000Y-77470000D03*
X48640000Y-77470000D03*
X51180000Y-74930000D03*
X48640000Y-74930000D03*
X51180000Y-72390000D03*
X48640000Y-72390000D03*
X51180000Y-69850000D03*
X48640000Y-69850000D03*
X51180000Y-67310000D03*
X48640000Y-67310000D03*
X51180000Y-64770000D03*
X48640000Y-64770000D03*
%TD*%
M02*
