%TF.GenerationSoftware,KiCad,Pcbnew,6.0.11-2627ca5db0~126~ubuntu20.04.1*%
%TF.CreationDate,2024-05-07T13:56:09-06:00*%
%TF.ProjectId,red-pitaya-pwm-shield,7265642d-7069-4746-9179-612d70776d2d,rev?*%
%TF.SameCoordinates,Original*%
%TF.FileFunction,Soldermask,Bot*%
%TF.FilePolarity,Negative*%
%FSLAX46Y46*%
G04 Gerber Fmt 4.6, Leading zero omitted, Abs format (unit mm)*
G04 Created by KiCad (PCBNEW 6.0.11-2627ca5db0~126~ubuntu20.04.1) date 2024-05-07 13:56:09*
%MOMM*%
%LPD*%
G01*
G04 APERTURE LIST*
%ADD10R,1.700000X1.700000*%
%ADD11O,1.700000X1.700000*%
%ADD12R,1.600000X1.600000*%
%ADD13C,1.600000*%
%ADD14R,1.500000X1.500000*%
%ADD15O,1.500000X1.500000*%
%ADD16R,3.000000X3.000000*%
%ADD17C,3.000000*%
G04 APERTURE END LIST*
D10*
%TO.C,J2*%
X78633000Y-65938000D03*
D11*
X76093000Y-65938000D03*
X78633000Y-68478000D03*
X76093000Y-68478000D03*
X78633000Y-71018000D03*
X76093000Y-71018000D03*
X78633000Y-73558000D03*
X76093000Y-73558000D03*
X78633000Y-76098000D03*
X76093000Y-76098000D03*
X78633000Y-78638000D03*
X76093000Y-78638000D03*
%TD*%
D12*
%TO.C,C10*%
X106578400Y-69805925D03*
D13*
X106578400Y-71805925D03*
%TD*%
D12*
%TO.C,C9*%
X106578400Y-64195888D03*
D13*
X106578400Y-66195888D03*
%TD*%
D14*
%TO.C,U3*%
X93942500Y-96882500D03*
D15*
X91402500Y-96882500D03*
X86322500Y-96882500D03*
X83782500Y-96882500D03*
X81242500Y-96882500D03*
%TD*%
D12*
%TO.C,C11*%
X106578400Y-81025999D03*
D13*
X106578400Y-83025999D03*
%TD*%
D16*
%TO.C,J3*%
X107645200Y-92989400D03*
D17*
X107645200Y-98069400D03*
%TD*%
D12*
%TO.C,C13*%
X70739000Y-95758000D03*
D13*
X72739000Y-95758000D03*
%TD*%
D12*
%TO.C,C12*%
X106578400Y-75415962D03*
D13*
X106578400Y-77415962D03*
%TD*%
D10*
%TO.C,J5*%
X55626000Y-95250000D03*
D11*
X58166000Y-95250000D03*
X55626000Y-92710000D03*
X58166000Y-92710000D03*
X55626000Y-90170000D03*
X58166000Y-90170000D03*
X55626000Y-87630000D03*
X58166000Y-87630000D03*
X55626000Y-85090000D03*
X58166000Y-85090000D03*
X55626000Y-82550000D03*
X58166000Y-82550000D03*
X55626000Y-80010000D03*
X58166000Y-80010000D03*
X55626000Y-77470000D03*
X58166000Y-77470000D03*
X55626000Y-74930000D03*
X58166000Y-74930000D03*
X55626000Y-72390000D03*
X58166000Y-72390000D03*
X55626000Y-69850000D03*
X58166000Y-69850000D03*
X55626000Y-67310000D03*
X58166000Y-67310000D03*
X55626000Y-64770000D03*
X58166000Y-64770000D03*
%TD*%
%TO.C,J1*%
X99441000Y-64770000D03*
X101981000Y-64770000D03*
X99441000Y-67310000D03*
X101981000Y-67310000D03*
X99441000Y-69850000D03*
X101981000Y-69850000D03*
X99441000Y-72390000D03*
X101981000Y-72390000D03*
X99441000Y-74930000D03*
X101981000Y-74930000D03*
X99441000Y-77470000D03*
X101981000Y-77470000D03*
X99441000Y-80010000D03*
X101981000Y-80010000D03*
X99441000Y-82550000D03*
X101981000Y-82550000D03*
X99441000Y-85090000D03*
X101981000Y-85090000D03*
X99441000Y-87630000D03*
X101981000Y-87630000D03*
X99441000Y-90170000D03*
X101981000Y-90170000D03*
X99441000Y-92710000D03*
X101981000Y-92710000D03*
X99441000Y-95250000D03*
D10*
X101981000Y-95250000D03*
%TD*%
%TO.C,J4*%
X51180000Y-95250000D03*
D11*
X48640000Y-95250000D03*
X51180000Y-92710000D03*
X48640000Y-92710000D03*
X51180000Y-90170000D03*
X48640000Y-90170000D03*
X51180000Y-87630000D03*
X48640000Y-87630000D03*
X51180000Y-85090000D03*
X48640000Y-85090000D03*
X51180000Y-82550000D03*
X48640000Y-82550000D03*
X51180000Y-80010000D03*
X48640000Y-80010000D03*
X51180000Y-77470000D03*
X48640000Y-77470000D03*
X51180000Y-74930000D03*
X48640000Y-74930000D03*
X51180000Y-72390000D03*
X48640000Y-72390000D03*
X51180000Y-69850000D03*
X48640000Y-69850000D03*
X51180000Y-67310000D03*
X48640000Y-67310000D03*
X51180000Y-64770000D03*
X48640000Y-64770000D03*
%TD*%
M02*
