%TF.GenerationSoftware,KiCad,Pcbnew,6.0.11-2627ca5db0~126~ubuntu20.04.1*%
%TF.CreationDate,2024-05-07T13:56:08-06:00*%
%TF.ProjectId,red-pitaya-pwm-shield,7265642d-7069-4746-9179-612d70776d2d,rev?*%
%TF.SameCoordinates,Original*%
%TF.FileFunction,Paste,Top*%
%TF.FilePolarity,Positive*%
%FSLAX46Y46*%
G04 Gerber Fmt 4.6, Leading zero omitted, Abs format (unit mm)*
G04 Created by KiCad (PCBNEW 6.0.11-2627ca5db0~126~ubuntu20.04.1) date 2024-05-07 13:56:08*
%MOMM*%
%LPD*%
G01*
G04 APERTURE LIST*
G04 Aperture macros list*
%AMRoundRect*
0 Rectangle with rounded corners*
0 $1 Rounding radius*
0 $2 $3 $4 $5 $6 $7 $8 $9 X,Y pos of 4 corners*
0 Add a 4 corners polygon primitive as box body*
4,1,4,$2,$3,$4,$5,$6,$7,$8,$9,$2,$3,0*
0 Add four circle primitives for the rounded corners*
1,1,$1+$1,$2,$3*
1,1,$1+$1,$4,$5*
1,1,$1+$1,$6,$7*
1,1,$1+$1,$8,$9*
0 Add four rect primitives between the rounded corners*
20,1,$1+$1,$2,$3,$4,$5,0*
20,1,$1+$1,$4,$5,$6,$7,0*
20,1,$1+$1,$6,$7,$8,$9,0*
20,1,$1+$1,$8,$9,$2,$3,0*%
G04 Aperture macros list end*
%ADD10RoundRect,0.250000X0.625000X-0.400000X0.625000X0.400000X-0.625000X0.400000X-0.625000X-0.400000X0*%
%ADD11RoundRect,0.250000X-0.625000X0.400000X-0.625000X-0.400000X0.625000X-0.400000X0.625000X0.400000X0*%
%ADD12RoundRect,0.150000X-0.150000X0.587500X-0.150000X-0.587500X0.150000X-0.587500X0.150000X0.587500X0*%
%ADD13RoundRect,0.150000X-0.512500X-0.150000X0.512500X-0.150000X0.512500X0.150000X-0.512500X0.150000X0*%
%ADD14RoundRect,0.250000X-0.400000X-0.625000X0.400000X-0.625000X0.400000X0.625000X-0.400000X0.625000X0*%
%ADD15RoundRect,0.250000X0.400000X0.625000X-0.400000X0.625000X-0.400000X-0.625000X0.400000X-0.625000X0*%
%ADD16RoundRect,0.250000X0.650000X-0.412500X0.650000X0.412500X-0.650000X0.412500X-0.650000X-0.412500X0*%
%ADD17RoundRect,0.250000X-0.650000X0.412500X-0.650000X-0.412500X0.650000X-0.412500X0.650000X0.412500X0*%
%ADD18RoundRect,0.250000X-0.412500X-0.650000X0.412500X-0.650000X0.412500X0.650000X-0.412500X0.650000X0*%
%ADD19RoundRect,0.150000X-0.825000X-0.150000X0.825000X-0.150000X0.825000X0.150000X-0.825000X0.150000X0*%
%ADD20RoundRect,0.250000X0.412500X0.650000X-0.412500X0.650000X-0.412500X-0.650000X0.412500X-0.650000X0*%
G04 APERTURE END LIST*
D10*
%TO.C,F1*%
X109931200Y-88976200D03*
X109931200Y-85876200D03*
%TD*%
D11*
%TO.C,R8*%
X91694000Y-63728000D03*
X91694000Y-66828000D03*
%TD*%
D12*
%TO.C,U2*%
X65212000Y-91645500D03*
X63312000Y-91645500D03*
X64262000Y-93520500D03*
%TD*%
D11*
%TO.C,R10*%
X86360000Y-63728000D03*
X86360000Y-66828000D03*
%TD*%
D10*
%TO.C,R4*%
X94400000Y-66828000D03*
X94400000Y-63728000D03*
%TD*%
D13*
%TO.C,Q1*%
X104907500Y-86756200D03*
X104907500Y-88656200D03*
X107182500Y-87706200D03*
%TD*%
D10*
%TO.C,R7*%
X83820000Y-81433000D03*
X83820000Y-78333000D03*
%TD*%
D14*
%TO.C,R1*%
X70179000Y-91567000D03*
X73279000Y-91567000D03*
%TD*%
D10*
%TO.C,R9*%
X91567000Y-81560000D03*
X91567000Y-78460000D03*
%TD*%
D15*
%TO.C,R2*%
X67108000Y-68580000D03*
X64008000Y-68580000D03*
%TD*%
D11*
%TO.C,R6*%
X83693000Y-63725000D03*
X83693000Y-66825000D03*
%TD*%
%TO.C,R5*%
X94361000Y-78460000D03*
X94361000Y-81560000D03*
%TD*%
D16*
%TO.C,C5*%
X95377000Y-90501000D03*
X95377000Y-87376000D03*
%TD*%
%TO.C,C8*%
X94361000Y-72047500D03*
X94361000Y-68922500D03*
%TD*%
D17*
%TO.C,C1*%
X70612000Y-78955500D03*
X70612000Y-82080500D03*
%TD*%
D18*
%TO.C,C3*%
X80987500Y-90170000D03*
X84112500Y-90170000D03*
%TD*%
D19*
%TO.C,U4*%
X64519000Y-71120000D03*
X64519000Y-72390000D03*
X64519000Y-73660000D03*
X64519000Y-74930000D03*
X69469000Y-74930000D03*
X69469000Y-73660000D03*
X69469000Y-72390000D03*
X69469000Y-71120000D03*
%TD*%
%TO.C,U1*%
X65597000Y-84074000D03*
X65597000Y-85344000D03*
X65597000Y-86614000D03*
X65597000Y-87884000D03*
X70547000Y-87884000D03*
X70547000Y-86614000D03*
X70547000Y-85344000D03*
X70547000Y-84074000D03*
%TD*%
D16*
%TO.C,C7*%
X83693000Y-71920500D03*
X83693000Y-68795500D03*
%TD*%
D17*
%TO.C,C15*%
X61595000Y-71678000D03*
X61595000Y-74803000D03*
%TD*%
D11*
%TO.C,R3*%
X69661000Y-66141000D03*
X69661000Y-69241000D03*
%TD*%
D20*
%TO.C,C4*%
X89485000Y-90170000D03*
X86360000Y-90170000D03*
%TD*%
D10*
%TO.C,R11*%
X86450000Y-81409000D03*
X86450000Y-78309000D03*
%TD*%
D17*
%TO.C,C2*%
X67564000Y-91567000D03*
X67564000Y-94692000D03*
%TD*%
%TO.C,C14*%
X72263000Y-69176500D03*
X72263000Y-72301500D03*
%TD*%
D19*
%TO.C,U5*%
X86525000Y-68700000D03*
X86525000Y-69970000D03*
X86525000Y-71240000D03*
X86525000Y-72510000D03*
X86525000Y-73780000D03*
X86525000Y-75050000D03*
X86525000Y-76320000D03*
X91475000Y-76320000D03*
X91475000Y-75050000D03*
X91475000Y-73780000D03*
X91475000Y-72510000D03*
X91475000Y-71240000D03*
X91475000Y-69970000D03*
X91475000Y-68700000D03*
%TD*%
M02*
