%TF.GenerationSoftware,KiCad,Pcbnew,6.0.11-2627ca5db0~126~ubuntu20.04.1*%
%TF.CreationDate,2024-07-26T13:52:13-06:00*%
%TF.ProjectId,red-pitaya-pwm-shield,7265642d-7069-4746-9179-612d70776d2d,rev?*%
%TF.SameCoordinates,Original*%
%TF.FileFunction,Copper,L1,Top*%
%TF.FilePolarity,Positive*%
%FSLAX46Y46*%
G04 Gerber Fmt 4.6, Leading zero omitted, Abs format (unit mm)*
G04 Created by KiCad (PCBNEW 6.0.11-2627ca5db0~126~ubuntu20.04.1) date 2024-07-26 13:52:13*
%MOMM*%
%LPD*%
G01*
G04 APERTURE LIST*
G04 Aperture macros list*
%AMRoundRect*
0 Rectangle with rounded corners*
0 $1 Rounding radius*
0 $2 $3 $4 $5 $6 $7 $8 $9 X,Y pos of 4 corners*
0 Add a 4 corners polygon primitive as box body*
4,1,4,$2,$3,$4,$5,$6,$7,$8,$9,$2,$3,0*
0 Add four circle primitives for the rounded corners*
1,1,$1+$1,$2,$3*
1,1,$1+$1,$4,$5*
1,1,$1+$1,$6,$7*
1,1,$1+$1,$8,$9*
0 Add four rect primitives between the rounded corners*
20,1,$1+$1,$2,$3,$4,$5,0*
20,1,$1+$1,$4,$5,$6,$7,0*
20,1,$1+$1,$6,$7,$8,$9,0*
20,1,$1+$1,$8,$9,$2,$3,0*%
G04 Aperture macros list end*
%TA.AperFunction,SMDPad,CuDef*%
%ADD10RoundRect,0.250000X-0.625000X0.400000X-0.625000X-0.400000X0.625000X-0.400000X0.625000X0.400000X0*%
%TD*%
%TA.AperFunction,SMDPad,CuDef*%
%ADD11RoundRect,0.150000X-0.150000X0.587500X-0.150000X-0.587500X0.150000X-0.587500X0.150000X0.587500X0*%
%TD*%
%TA.AperFunction,SMDPad,CuDef*%
%ADD12C,1.000000*%
%TD*%
%TA.AperFunction,SMDPad,CuDef*%
%ADD13RoundRect,0.250000X0.625000X-0.400000X0.625000X0.400000X-0.625000X0.400000X-0.625000X-0.400000X0*%
%TD*%
%TA.AperFunction,SMDPad,CuDef*%
%ADD14RoundRect,0.150000X-0.512500X-0.150000X0.512500X-0.150000X0.512500X0.150000X-0.512500X0.150000X0*%
%TD*%
%TA.AperFunction,SMDPad,CuDef*%
%ADD15RoundRect,0.250000X-0.400000X-0.625000X0.400000X-0.625000X0.400000X0.625000X-0.400000X0.625000X0*%
%TD*%
%TA.AperFunction,SMDPad,CuDef*%
%ADD16RoundRect,0.250000X0.400000X0.625000X-0.400000X0.625000X-0.400000X-0.625000X0.400000X-0.625000X0*%
%TD*%
%TA.AperFunction,ComponentPad*%
%ADD17R,1.700000X1.700000*%
%TD*%
%TA.AperFunction,ComponentPad*%
%ADD18O,1.700000X1.700000*%
%TD*%
%TA.AperFunction,SMDPad,CuDef*%
%ADD19RoundRect,0.250000X-0.412500X-0.650000X0.412500X-0.650000X0.412500X0.650000X-0.412500X0.650000X0*%
%TD*%
%TA.AperFunction,SMDPad,CuDef*%
%ADD20RoundRect,0.250000X0.650000X-0.412500X0.650000X0.412500X-0.650000X0.412500X-0.650000X-0.412500X0*%
%TD*%
%TA.AperFunction,SMDPad,CuDef*%
%ADD21RoundRect,0.250000X-0.650000X0.412500X-0.650000X-0.412500X0.650000X-0.412500X0.650000X0.412500X0*%
%TD*%
%TA.AperFunction,ComponentPad*%
%ADD22R,1.500000X1.500000*%
%TD*%
%TA.AperFunction,ComponentPad*%
%ADD23O,1.500000X1.500000*%
%TD*%
%TA.AperFunction,SMDPad,CuDef*%
%ADD24RoundRect,0.150000X-0.825000X-0.150000X0.825000X-0.150000X0.825000X0.150000X-0.825000X0.150000X0*%
%TD*%
%TA.AperFunction,ComponentPad*%
%ADD25R,3.000000X3.000000*%
%TD*%
%TA.AperFunction,ComponentPad*%
%ADD26C,3.000000*%
%TD*%
%TA.AperFunction,ComponentPad*%
%ADD27R,1.600000X1.600000*%
%TD*%
%TA.AperFunction,ComponentPad*%
%ADD28C,1.600000*%
%TD*%
%TA.AperFunction,SMDPad,CuDef*%
%ADD29RoundRect,0.250000X0.412500X0.650000X-0.412500X0.650000X-0.412500X-0.650000X0.412500X-0.650000X0*%
%TD*%
%TA.AperFunction,ViaPad*%
%ADD30C,0.800000*%
%TD*%
%TA.AperFunction,Conductor*%
%ADD31C,0.200000*%
%TD*%
%TA.AperFunction,Conductor*%
%ADD32C,0.250000*%
%TD*%
%TA.AperFunction,Conductor*%
%ADD33C,0.500000*%
%TD*%
G04 APERTURE END LIST*
D10*
%TO.P,R8,1*%
%TO.N,Net-(R4-Pad1)*%
X84753650Y-63696450D03*
%TO.P,R8,2*%
%TO.N,/V3_Out*%
X84753650Y-66796450D03*
%TD*%
D11*
%TO.P,U2,1,K*%
%TO.N,Net-(C13-Pad1)*%
X58271650Y-91613950D03*
%TO.P,U2,2,A*%
%TO.N,GND*%
X56371650Y-91613950D03*
%TO.P,U2,3*%
%TO.N,N/C*%
X57321650Y-93488950D03*
%TD*%
D10*
%TO.P,R10,1*%
%TO.N,Net-(R10-Pad1)*%
X79419650Y-63696450D03*
%TO.P,R10,2*%
%TO.N,/V0_Out*%
X79419650Y-66796450D03*
%TD*%
D12*
%TO.P,TP5,1,1*%
%TO.N,/VSS*%
X79394250Y-99587250D03*
%TD*%
D13*
%TO.P,R4,1*%
%TO.N,Net-(R4-Pad1)*%
X87459650Y-66796450D03*
%TO.P,R4,2*%
%TO.N,GND*%
X87459650Y-63696450D03*
%TD*%
D14*
%TO.P,Q1,1,G*%
%TO.N,GND*%
X104907500Y-86756200D03*
%TO.P,Q1,2,S*%
%TO.N,/+5V*%
X104907500Y-88656200D03*
%TO.P,Q1,3,D*%
%TO.N,Net-(F1-Pad2)*%
X107182500Y-87706200D03*
%TD*%
D13*
%TO.P,R7,1*%
%TO.N,Net-(R11-Pad1)*%
X76879650Y-81401450D03*
%TO.P,R7,2*%
%TO.N,GND*%
X76879650Y-78301450D03*
%TD*%
D15*
%TO.P,R1,1*%
%TO.N,Net-(C13-Pad1)*%
X63238650Y-91535450D03*
%TO.P,R1,2*%
%TO.N,/+5V*%
X66338650Y-91535450D03*
%TD*%
D16*
%TO.P,R15,1*%
%TO.N,/AO_3*%
X96375900Y-67818000D03*
%TO.P,R15,2*%
%TO.N,Net-(C12-Pad1)*%
X93275900Y-67818000D03*
%TD*%
D17*
%TO.P,J2,1,Pin_1*%
%TO.N,/V1_Out*%
X71692650Y-65906450D03*
D18*
%TO.P,J2,2,Pin_2*%
%TO.N,/V0_Out*%
X69152650Y-65906450D03*
%TO.P,J2,3,Pin_3*%
%TO.N,/V3_Out*%
X71692650Y-68446450D03*
%TO.P,J2,4,Pin_4*%
%TO.N,/V2_Out*%
X69152650Y-68446450D03*
%TO.P,J2,5,Pin_5*%
%TO.N,GND*%
X71692650Y-70986450D03*
%TO.P,J2,6,Pin_6*%
X69152650Y-70986450D03*
%TO.P,J2,7,Pin_7*%
X71692650Y-73526450D03*
%TO.P,J2,8,Pin_8*%
%TO.N,/V_PHASE_OUT*%
X69152650Y-73526450D03*
%TO.P,J2,9,Pin_9*%
%TO.N,/AI_1*%
X71692650Y-76066450D03*
%TO.P,J2,10,Pin_10*%
%TO.N,/AI_0*%
X69152650Y-76066450D03*
%TO.P,J2,11,Pin_11*%
%TO.N,/AI_3*%
X71692650Y-78606450D03*
%TO.P,J2,12,Pin_12*%
%TO.N,/AI_2*%
X69152650Y-78606450D03*
%TD*%
D19*
%TO.P,C16,1*%
%TO.N,/AO_0*%
X104798400Y-77470000D03*
%TO.P,C16,2*%
%TO.N,GND*%
X107923400Y-77470000D03*
%TD*%
D13*
%TO.P,R9,1*%
%TO.N,Net-(R5-Pad1)*%
X84626650Y-81528450D03*
%TO.P,R9,2*%
%TO.N,/V2_Out*%
X84626650Y-78428450D03*
%TD*%
D16*
%TO.P,R2,1*%
%TO.N,Net-(R2-Pad1)*%
X60167650Y-68548450D03*
%TO.P,R2,2*%
%TO.N,GND*%
X57067650Y-68548450D03*
%TD*%
D10*
%TO.P,R6,1*%
%TO.N,Net-(R10-Pad1)*%
X76752650Y-63693450D03*
%TO.P,R6,2*%
%TO.N,GND*%
X76752650Y-66793450D03*
%TD*%
D19*
%TO.P,C18,1*%
%TO.N,/AO_3*%
X104811700Y-69900800D03*
%TO.P,C18,2*%
%TO.N,GND*%
X107936700Y-69900800D03*
%TD*%
D10*
%TO.P,R5,1*%
%TO.N,Net-(R5-Pad1)*%
X87420650Y-78428450D03*
%TO.P,R5,2*%
%TO.N,GND*%
X87420650Y-81528450D03*
%TD*%
D19*
%TO.P,C19,1*%
%TO.N,/AO_2*%
X104799600Y-72415400D03*
%TO.P,C19,2*%
%TO.N,GND*%
X107924600Y-72415400D03*
%TD*%
D12*
%TO.P,TP2,1,1*%
%TO.N,/+5V*%
X100482400Y-98933000D03*
%TD*%
D19*
%TO.P,C10,1*%
%TO.N,Net-(C10-Pad1)*%
X93293400Y-75184000D03*
%TO.P,C10,2*%
%TO.N,GND*%
X96418400Y-75184000D03*
%TD*%
D20*
%TO.P,C5,1*%
%TO.N,/+5V*%
X88436650Y-90469450D03*
%TO.P,C5,2*%
%TO.N,GND*%
X88436650Y-87344450D03*
%TD*%
D12*
%TO.P,TP1,1,1*%
%TO.N,Net-(C13-Pad1)*%
X58286850Y-95650250D03*
%TD*%
D19*
%TO.P,C9,1*%
%TO.N,Net-(C9-Pad1)*%
X93293400Y-82626200D03*
%TO.P,C9,2*%
%TO.N,GND*%
X96418400Y-82626200D03*
%TD*%
D12*
%TO.P,TP7,1,1*%
%TO.N,Net-(C11-Pad1)*%
X89306400Y-73787000D03*
%TD*%
D16*
%TO.P,R14,1*%
%TO.N,/AO_2*%
X96375900Y-70256400D03*
%TO.P,R14,2*%
%TO.N,Net-(C11-Pad1)*%
X93275900Y-70256400D03*
%TD*%
D20*
%TO.P,C8,1*%
%TO.N,/VSS*%
X87420650Y-72015950D03*
%TO.P,C8,2*%
%TO.N,GND*%
X87420650Y-68890950D03*
%TD*%
D21*
%TO.P,C1,1*%
%TO.N,GND*%
X63671650Y-78923950D03*
%TO.P,C1,2*%
%TO.N,/+5V*%
X63671650Y-82048950D03*
%TD*%
D22*
%TO.P,U3,1,VIN+*%
%TO.N,/+5V*%
X87002150Y-96850950D03*
D23*
%TO.P,U3,2,VIN-*%
%TO.N,GND*%
X84462150Y-96850950D03*
%TO.P,U3,4,VOUT-*%
%TO.N,/VSS*%
X79382150Y-96850950D03*
%TO.P,U3,5,0V*%
%TO.N,GND*%
X76842150Y-96850950D03*
%TO.P,U3,6,VOUT+*%
%TO.N,/VDD*%
X74302150Y-96850950D03*
%TD*%
D19*
%TO.P,C11,1*%
%TO.N,Net-(C11-Pad1)*%
X93293400Y-72644000D03*
%TO.P,C11,2*%
%TO.N,GND*%
X96418400Y-72644000D03*
%TD*%
D13*
%TO.P,F1,1*%
%TO.N,Net-(F1-Pad1)*%
X109931200Y-88976200D03*
%TO.P,F1,2*%
%TO.N,Net-(F1-Pad2)*%
X109931200Y-85876200D03*
%TD*%
D19*
%TO.P,C3,1*%
%TO.N,/VDD*%
X74047150Y-90138450D03*
%TO.P,C3,2*%
%TO.N,GND*%
X77172150Y-90138450D03*
%TD*%
D16*
%TO.P,R13,1*%
%TO.N,/AO_1*%
X96375900Y-77647800D03*
%TO.P,R13,2*%
%TO.N,Net-(C10-Pad1)*%
X93275900Y-77647800D03*
%TD*%
D12*
%TO.P,TP4,1,1*%
%TO.N,/VDD*%
X74314250Y-99587250D03*
%TD*%
D24*
%TO.P,U4,1,NULL*%
%TO.N,unconnected-(U4-Pad1)*%
X57578650Y-71088450D03*
%TO.P,U4,2,-*%
%TO.N,Net-(R2-Pad1)*%
X57578650Y-72358450D03*
%TO.P,U4,3,+*%
%TO.N,Net-(TP3-Pad1)*%
X57578650Y-73628450D03*
%TO.P,U4,4,V-*%
%TO.N,/VSS*%
X57578650Y-74898450D03*
%TO.P,U4,5,NULL*%
%TO.N,unconnected-(U4-Pad5)*%
X62528650Y-74898450D03*
%TO.P,U4,6*%
%TO.N,/V_PHASE_OUT*%
X62528650Y-73628450D03*
%TO.P,U4,7,V+*%
%TO.N,/VDD*%
X62528650Y-72358450D03*
%TO.P,U4,8,NC*%
%TO.N,unconnected-(U4-Pad8)*%
X62528650Y-71088450D03*
%TD*%
%TO.P,U1,1,VOUT*%
%TO.N,Net-(TP3-Pad1)*%
X58656650Y-84042450D03*
%TO.P,U1,2,AGND*%
%TO.N,GND*%
X58656650Y-85312450D03*
%TO.P,U1,3,REF*%
%TO.N,Net-(C13-Pad1)*%
X58656650Y-86582450D03*
%TO.P,U1,4,CSn*%
%TO.N,/DIO0_P*%
X58656650Y-87852450D03*
%TO.P,U1,5,SCLK*%
%TO.N,/DIO1_P*%
X63606650Y-87852450D03*
%TO.P,U1,6,SDIN*%
%TO.N,/DIO2_P*%
X63606650Y-86582450D03*
%TO.P,U1,7,DGND*%
%TO.N,GND*%
X63606650Y-85312450D03*
%TO.P,U1,8,VDD*%
%TO.N,/+5V*%
X63606650Y-84042450D03*
%TD*%
D20*
%TO.P,C7,1*%
%TO.N,/VDD*%
X76752650Y-71888950D03*
%TO.P,C7,2*%
%TO.N,GND*%
X76752650Y-68763950D03*
%TD*%
D21*
%TO.P,C15,1*%
%TO.N,GND*%
X54654650Y-71646450D03*
%TO.P,C15,2*%
%TO.N,/VSS*%
X54654650Y-74771450D03*
%TD*%
D12*
%TO.P,TP9,1,1*%
%TO.N,Net-(C12-Pad1)*%
X91109800Y-65379600D03*
%TD*%
D25*
%TO.P,J3,1,Pin_1*%
%TO.N,Net-(F1-Pad1)*%
X107645200Y-92989400D03*
D26*
%TO.P,J3,2,Pin_2*%
%TO.N,GND*%
X107645200Y-98069400D03*
%TD*%
D27*
%TO.P,C13,1*%
%TO.N,Net-(C13-Pad1)*%
X63798650Y-95726450D03*
D28*
%TO.P,C13,2*%
%TO.N,GND*%
X65798650Y-95726450D03*
%TD*%
D19*
%TO.P,C12,1*%
%TO.N,Net-(C12-Pad1)*%
X93293400Y-65379600D03*
%TO.P,C12,2*%
%TO.N,GND*%
X96418400Y-65379600D03*
%TD*%
D10*
%TO.P,R3,1*%
%TO.N,Net-(R2-Pad1)*%
X62720650Y-66109450D03*
%TO.P,R3,2*%
%TO.N,/V_PHASE_OUT*%
X62720650Y-69209450D03*
%TD*%
D12*
%TO.P,TP6,1,1*%
%TO.N,Net-(C9-Pad1)*%
X91135200Y-82626200D03*
%TD*%
D17*
%TO.P,J5,1,Pin_1*%
%TO.N,/3V3_1*%
X41808400Y-95250000D03*
D18*
%TO.P,J5,2,Pin_2*%
%TO.N,/3V3_2*%
X44348400Y-95250000D03*
%TO.P,J5,3,Pin_3*%
%TO.N,/DIO0_N*%
X41808400Y-92710000D03*
%TO.P,J5,4,Pin_4*%
%TO.N,/DIO0_P*%
X44348400Y-92710000D03*
%TO.P,J5,5,Pin_5*%
%TO.N,/DIO1_N*%
X41808400Y-90170000D03*
%TO.P,J5,6,Pin_6*%
%TO.N,/DIO1_P*%
X44348400Y-90170000D03*
%TO.P,J5,7,Pin_7*%
%TO.N,/DIO2_N*%
X41808400Y-87630000D03*
%TO.P,J5,8,Pin_8*%
%TO.N,/DIO2_P*%
X44348400Y-87630000D03*
%TO.P,J5,9,Pin_9*%
%TO.N,/DIO3_N*%
X41808400Y-85090000D03*
%TO.P,J5,10,Pin_10*%
%TO.N,/DIO3_P*%
X44348400Y-85090000D03*
%TO.P,J5,11,Pin_11*%
%TO.N,/DIO4_N*%
X41808400Y-82550000D03*
%TO.P,J5,12,Pin_12*%
%TO.N,/DIO4_P*%
X44348400Y-82550000D03*
%TO.P,J5,13,Pin_13*%
%TO.N,/DIO5_N*%
X41808400Y-80010000D03*
%TO.P,J5,14,Pin_14*%
%TO.N,/DIO5_P*%
X44348400Y-80010000D03*
%TO.P,J5,15,Pin_15*%
%TO.N,/DIO6_N*%
X41808400Y-77470000D03*
%TO.P,J5,16,Pin_16*%
%TO.N,/DIO6_P*%
X44348400Y-77470000D03*
%TO.P,J5,17,Pin_17*%
%TO.N,/DIO7_N*%
X41808400Y-74930000D03*
%TO.P,J5,18,Pin_18*%
%TO.N,/DIO7_P*%
X44348400Y-74930000D03*
%TO.P,J5,19,Pin_19*%
%TO.N,unconnected-(J5-Pad19)*%
X41808400Y-72390000D03*
%TO.P,J5,20,Pin_20*%
%TO.N,unconnected-(J5-Pad20)*%
X44348400Y-72390000D03*
%TO.P,J5,21,Pin_21*%
%TO.N,unconnected-(J5-Pad21)*%
X41808400Y-69850000D03*
%TO.P,J5,22,Pin_22*%
%TO.N,unconnected-(J5-Pad22)*%
X44348400Y-69850000D03*
%TO.P,J5,23,Pin_23*%
%TO.N,unconnected-(J5-Pad23)*%
X41808400Y-67310000D03*
%TO.P,J5,24,Pin_24*%
%TO.N,unconnected-(J5-Pad24)*%
X44348400Y-67310000D03*
%TO.P,J5,25,Pin_25*%
%TO.N,GND*%
X41808400Y-64770000D03*
%TO.P,J5,26,Pin_26*%
X44348400Y-64770000D03*
%TD*%
D12*
%TO.P,TP8,1,1*%
%TO.N,Net-(C10-Pad1)*%
X89560400Y-76047600D03*
%TD*%
D29*
%TO.P,C4,1*%
%TO.N,GND*%
X82544650Y-90138450D03*
%TO.P,C4,2*%
%TO.N,/VSS*%
X79419650Y-90138450D03*
%TD*%
D13*
%TO.P,R11,1*%
%TO.N,Net-(R11-Pad1)*%
X79509650Y-81377450D03*
%TO.P,R11,2*%
%TO.N,/V1_Out*%
X79509650Y-78277450D03*
%TD*%
D19*
%TO.P,C17,1*%
%TO.N,/AO_1*%
X104810700Y-74930000D03*
%TO.P,C17,2*%
%TO.N,GND*%
X107935700Y-74930000D03*
%TD*%
D21*
%TO.P,C2,1*%
%TO.N,Net-(C13-Pad1)*%
X60623650Y-91535450D03*
%TO.P,C2,2*%
%TO.N,GND*%
X60623650Y-94660450D03*
%TD*%
%TO.P,C14,1*%
%TO.N,GND*%
X65322650Y-69144950D03*
%TO.P,C14,2*%
%TO.N,/VDD*%
X65322650Y-72269950D03*
%TD*%
D16*
%TO.P,R12,1*%
%TO.N,/AO_0*%
X96375900Y-80238600D03*
%TO.P,R12,2*%
%TO.N,Net-(C9-Pad1)*%
X93275900Y-80238600D03*
%TD*%
D24*
%TO.P,U5,1*%
%TO.N,/V0_Out*%
X79584650Y-68668450D03*
%TO.P,U5,2,-*%
%TO.N,Net-(R10-Pad1)*%
X79584650Y-69938450D03*
%TO.P,U5,3,+*%
%TO.N,Net-(C9-Pad1)*%
X79584650Y-71208450D03*
%TO.P,U5,4,V+*%
%TO.N,/VDD*%
X79584650Y-72478450D03*
%TO.P,U5,5,+*%
%TO.N,Net-(C10-Pad1)*%
X79584650Y-73748450D03*
%TO.P,U5,6,-*%
%TO.N,Net-(R11-Pad1)*%
X79584650Y-75018450D03*
%TO.P,U5,7*%
%TO.N,/V1_Out*%
X79584650Y-76288450D03*
%TO.P,U5,8*%
%TO.N,/V2_Out*%
X84534650Y-76288450D03*
%TO.P,U5,9,-*%
%TO.N,Net-(R5-Pad1)*%
X84534650Y-75018450D03*
%TO.P,U5,10,+*%
%TO.N,Net-(C11-Pad1)*%
X84534650Y-73748450D03*
%TO.P,U5,11,V-*%
%TO.N,/VSS*%
X84534650Y-72478450D03*
%TO.P,U5,12,+*%
%TO.N,Net-(C12-Pad1)*%
X84534650Y-71208450D03*
%TO.P,U5,13,-*%
%TO.N,Net-(R4-Pad1)*%
X84534650Y-69938450D03*
%TO.P,U5,14*%
%TO.N,/V3_Out*%
X84534650Y-68668450D03*
%TD*%
D12*
%TO.P,TP3,1,1*%
%TO.N,Net-(TP3-Pad1)*%
X59074250Y-80207050D03*
%TD*%
D17*
%TO.P,J1,1,Pin_1*%
%TO.N,/+5V*%
X101981000Y-95250000D03*
D18*
%TO.P,J1,2,Pin_2*%
%TO.N,unconnected-(J1-Pad2)*%
X99441000Y-95250000D03*
%TO.P,J1,3,Pin_3*%
%TO.N,unconnected-(J1-Pad3)*%
X101981000Y-92710000D03*
%TO.P,J1,4,Pin_4*%
%TO.N,unconnected-(J1-Pad4)*%
X99441000Y-92710000D03*
%TO.P,J1,5,Pin_5*%
%TO.N,unconnected-(J1-Pad5)*%
X101981000Y-90170000D03*
%TO.P,J1,6,Pin_6*%
%TO.N,unconnected-(J1-Pad6)*%
X99441000Y-90170000D03*
%TO.P,J1,7,Pin_7*%
%TO.N,unconnected-(J1-Pad7)*%
X101981000Y-87630000D03*
%TO.P,J1,8,Pin_8*%
%TO.N,unconnected-(J1-Pad8)*%
X99441000Y-87630000D03*
%TO.P,J1,9,Pin_9*%
%TO.N,unconnected-(J1-Pad9)*%
X101981000Y-85090000D03*
%TO.P,J1,10,Pin_10*%
%TO.N,unconnected-(J1-Pad10)*%
X99441000Y-85090000D03*
%TO.P,J1,11,Pin_11*%
%TO.N,GND*%
X101981000Y-82550000D03*
%TO.P,J1,12,Pin_12*%
X99441000Y-82550000D03*
%TO.P,J1,13,Pin_13*%
%TO.N,/AI_0*%
X101981000Y-80010000D03*
%TO.P,J1,14,Pin_14*%
%TO.N,/AI_1*%
X99441000Y-80010000D03*
%TO.P,J1,15,Pin_15*%
%TO.N,/AI_2*%
X101981000Y-77470000D03*
%TO.P,J1,16,Pin_16*%
%TO.N,/AI_3*%
X99441000Y-77470000D03*
%TO.P,J1,17,Pin_17*%
%TO.N,/AO_0*%
X101981000Y-74930000D03*
%TO.P,J1,18,Pin_18*%
%TO.N,/AO_1*%
X99441000Y-74930000D03*
%TO.P,J1,19,Pin_19*%
%TO.N,/AO_2*%
X101981000Y-72390000D03*
%TO.P,J1,20,Pin_20*%
%TO.N,/AO_3*%
X99441000Y-72390000D03*
%TO.P,J1,21,Pin_21*%
%TO.N,GND*%
X101981000Y-69850000D03*
%TO.P,J1,22,Pin_22*%
X99441000Y-69850000D03*
%TO.P,J1,23,Pin_23*%
%TO.N,unconnected-(J1-Pad23)*%
X101981000Y-67310000D03*
%TO.P,J1,24,Pin_24*%
%TO.N,unconnected-(J1-Pad24)*%
X99441000Y-67310000D03*
%TO.P,J1,25,Pin_25*%
%TO.N,GND*%
X101981000Y-64770000D03*
%TO.P,J1,26,Pin_26*%
X99441000Y-64770000D03*
%TD*%
D17*
%TO.P,J4,1,Pin_1*%
%TO.N,/3V3_2*%
X51180000Y-95250000D03*
D18*
%TO.P,J4,2,Pin_2*%
%TO.N,/3V3_1*%
X48640000Y-95250000D03*
%TO.P,J4,3,Pin_3*%
%TO.N,/DIO0_P*%
X51180000Y-92710000D03*
%TO.P,J4,4,Pin_4*%
%TO.N,/DIO0_N*%
X48640000Y-92710000D03*
%TO.P,J4,5,Pin_5*%
%TO.N,/DIO1_P*%
X51180000Y-90170000D03*
%TO.P,J4,6,Pin_6*%
%TO.N,/DIO1_N*%
X48640000Y-90170000D03*
%TO.P,J4,7,Pin_7*%
%TO.N,/DIO2_P*%
X51180000Y-87630000D03*
%TO.P,J4,8,Pin_8*%
%TO.N,/DIO2_N*%
X48640000Y-87630000D03*
%TO.P,J4,9,Pin_9*%
%TO.N,/DIO3_P*%
X51180000Y-85090000D03*
%TO.P,J4,10,Pin_10*%
%TO.N,/DIO3_N*%
X48640000Y-85090000D03*
%TO.P,J4,11,Pin_11*%
%TO.N,/DIO4_P*%
X51180000Y-82550000D03*
%TO.P,J4,12,Pin_12*%
%TO.N,/DIO4_N*%
X48640000Y-82550000D03*
%TO.P,J4,13,Pin_13*%
%TO.N,/DIO5_P*%
X51180000Y-80010000D03*
%TO.P,J4,14,Pin_14*%
%TO.N,/DIO5_N*%
X48640000Y-80010000D03*
%TO.P,J4,15,Pin_15*%
%TO.N,/DIO6_P*%
X51180000Y-77470000D03*
%TO.P,J4,16,Pin_16*%
%TO.N,/DIO6_N*%
X48640000Y-77470000D03*
%TO.P,J4,17,Pin_17*%
%TO.N,/DIO7_P*%
X51180000Y-74930000D03*
%TO.P,J4,18,Pin_18*%
%TO.N,/DIO7_N*%
X48640000Y-74930000D03*
%TO.P,J4,19,Pin_19*%
%TO.N,unconnected-(J4-Pad19)*%
X51180000Y-72390000D03*
%TO.P,J4,20,Pin_20*%
%TO.N,unconnected-(J4-Pad20)*%
X48640000Y-72390000D03*
%TO.P,J4,21,Pin_21*%
%TO.N,unconnected-(J4-Pad21)*%
X51180000Y-69850000D03*
%TO.P,J4,22,Pin_22*%
%TO.N,unconnected-(J4-Pad22)*%
X48640000Y-69850000D03*
%TO.P,J4,23,Pin_23*%
%TO.N,unconnected-(J4-Pad23)*%
X51180000Y-67310000D03*
%TO.P,J4,24,Pin_24*%
%TO.N,unconnected-(J4-Pad24)*%
X48640000Y-67310000D03*
%TO.P,J4,25,Pin_25*%
%TO.N,GND*%
X51180000Y-64770000D03*
%TO.P,J4,26,Pin_26*%
X48640000Y-64770000D03*
%TD*%
D30*
%TO.N,/DIO1_P*%
X62255400Y-89027000D03*
%TO.N,/DIO2_P*%
X61544200Y-86461600D03*
%TO.N,GND*%
X65449650Y-67659450D03*
X75101650Y-68548450D03*
X78149650Y-87598450D03*
X60750650Y-96488450D03*
X89452650Y-80613450D03*
X54781650Y-70072450D03*
X63671650Y-77438450D03*
X89071650Y-68675450D03*
X105943400Y-85445600D03*
X89833650Y-63976450D03*
X75228650Y-76549450D03*
X65449650Y-85312450D03*
X83229650Y-87598450D03*
X109423200Y-72364600D03*
X56305650Y-90011450D03*
X56813650Y-85312450D03*
X97764600Y-73837800D03*
%TO.N,/VDD*%
X72307650Y-91027450D03*
X67100650Y-74644450D03*
X67100650Y-72231450D03*
%TO.N,/VSS*%
X58154150Y-76295450D03*
X79419650Y-91916450D03*
X76244650Y-86215700D03*
X60003150Y-76295450D03*
X82848650Y-86372525D03*
%TO.N,/AI_0*%
X78276650Y-83915450D03*
X84505800Y-84226400D03*
%TO.N,/AI_1*%
X78418001Y-82925993D03*
%TO.N,/V2_Out*%
X77764458Y-76807759D03*
X84626650Y-77311450D03*
%TO.N,/V3_Out*%
X82594650Y-68548450D03*
%TO.N,Net-(C9-Pad1)*%
X91744800Y-79171800D03*
X81197650Y-71215450D03*
%TO.N,Net-(C10-Pad1)*%
X87020400Y-74904600D03*
X77768650Y-73882450D03*
%TD*%
D31*
%TO.N,/DIO0_P*%
X51180000Y-92710000D02*
X56037550Y-87852450D01*
X56037550Y-87852450D02*
X58656650Y-87852450D01*
%TO.N,/DIO1_P*%
X62255400Y-89027000D02*
X62432100Y-89027000D01*
X62432100Y-89027000D02*
X63606650Y-87852450D01*
D32*
%TO.N,Net-(C13-Pad1)*%
X58656650Y-86582450D02*
X59033401Y-86582450D01*
X59033401Y-86582450D02*
X60623650Y-88172699D01*
X60623650Y-88172699D02*
X60623650Y-91535450D01*
D31*
%TO.N,/DIO2_P*%
X61544200Y-86461600D02*
X63485800Y-86461600D01*
X63485800Y-86461600D02*
X63606650Y-86582450D01*
D33*
%TO.N,/+5V*%
X63606650Y-84042450D02*
X65664575Y-84042450D01*
X65664575Y-84042450D02*
X66598800Y-84976675D01*
X66598800Y-84976675D02*
X66598800Y-91275300D01*
X66598800Y-91275300D02*
X66338650Y-91535450D01*
D32*
%TO.N,GND*%
X54654650Y-71646450D02*
X54654650Y-70199450D01*
X96444600Y-65379600D02*
X97054200Y-64770000D01*
X96418400Y-75184000D02*
X97764600Y-73837800D01*
X104907500Y-86756200D02*
X104907500Y-86481500D01*
X104907500Y-86481500D02*
X105943400Y-85445600D01*
X65322650Y-69144950D02*
X65322650Y-67786450D01*
X87420650Y-81528450D02*
X88537650Y-81528450D01*
X82544650Y-90138450D02*
X82544650Y-88283450D01*
X85642650Y-87268450D02*
X88360650Y-87268450D01*
X96431500Y-72644000D02*
X96431500Y-75170900D01*
X83559650Y-87268450D02*
X85642650Y-87268450D01*
X60623650Y-96361450D02*
X60750650Y-96488450D01*
X109372400Y-72415400D02*
X109423200Y-72364600D01*
X63606650Y-85312450D02*
X65449650Y-85312450D01*
X63671650Y-78923950D02*
X63671650Y-77438450D01*
X107924600Y-72415400D02*
X109372400Y-72415400D01*
X65322650Y-67786450D02*
X65449650Y-67659450D01*
X107936700Y-69900800D02*
X107936700Y-72403300D01*
X56371650Y-91613950D02*
X56371650Y-90077450D01*
X54781650Y-70072450D02*
X55543650Y-70072450D01*
X76879650Y-78200450D02*
X75228650Y-76549450D01*
X56371650Y-90077450D02*
X56305650Y-90011450D01*
X75101650Y-68548450D02*
X76537150Y-68548450D01*
X87459650Y-63696450D02*
X89553650Y-63696450D01*
X82544650Y-88283450D02*
X83229650Y-87598450D01*
X87420650Y-68890950D02*
X88856150Y-68890950D01*
X88537650Y-81528450D02*
X89452650Y-80613450D01*
X89553650Y-63696450D02*
X89833650Y-63976450D01*
X55543650Y-70072450D02*
X57067650Y-68548450D01*
X96494600Y-82550000D02*
X99441000Y-82550000D01*
X58656650Y-85312450D02*
X56813650Y-85312450D01*
X107935700Y-74930000D02*
X107935700Y-77457700D01*
X107924600Y-74918900D02*
X107935700Y-74930000D01*
X107924600Y-72415400D02*
X107924600Y-74918900D01*
X83229650Y-87598450D02*
X83559650Y-87268450D01*
X54654650Y-70199450D02*
X54781650Y-70072450D01*
X76537150Y-68548450D02*
X76752650Y-68763950D01*
X88360650Y-87268450D02*
X88436650Y-87344450D01*
X96418400Y-82626200D02*
X96494600Y-82550000D01*
X107935700Y-77457700D02*
X107923400Y-77470000D01*
X77172150Y-88575950D02*
X78149650Y-87598450D01*
X60623650Y-94660450D02*
X60623650Y-96361450D01*
X96431500Y-75170900D02*
X96418400Y-75184000D01*
X88856150Y-68890950D02*
X89071650Y-68675450D01*
X76752650Y-66793450D02*
X76752650Y-68598450D01*
X97054200Y-64770000D02*
X99441000Y-64770000D01*
X77172150Y-90138450D02*
X77172150Y-88575950D01*
X76879650Y-78301450D02*
X76879650Y-78200450D01*
X107936700Y-72403300D02*
X107924600Y-72415400D01*
D33*
%TO.N,/+5V*%
X86912650Y-93008650D02*
X87002150Y-92919150D01*
X67811850Y-93008650D02*
X86912650Y-93008650D01*
X66338650Y-91535450D02*
X67811850Y-93008650D01*
X87002150Y-96850950D02*
X100433950Y-96850950D01*
X100482400Y-96899400D02*
X100465500Y-96882500D01*
X87002150Y-91903950D02*
X88436650Y-90469450D01*
X63606650Y-84042450D02*
X63606650Y-82113950D01*
X104907500Y-92323500D02*
X101981000Y-95250000D01*
X87002150Y-96850950D02*
X87002150Y-92919150D01*
X100433950Y-96850950D02*
X100465500Y-96882500D01*
X100482400Y-98933000D02*
X100482400Y-96899400D01*
X87002150Y-92919150D02*
X87002150Y-91903950D01*
X104907500Y-88656200D02*
X104907500Y-92323500D01*
X100465500Y-96882500D02*
X102113000Y-95235000D01*
X63606650Y-82113950D02*
X63671650Y-82048950D01*
%TO.N,/VDD*%
X65322650Y-72269950D02*
X67062150Y-72269950D01*
X72307650Y-91027450D02*
X73158150Y-91027450D01*
X72669400Y-85166200D02*
X79019400Y-85166200D01*
X79584650Y-72478450D02*
X80555650Y-72478450D01*
X67062150Y-72269950D02*
X67100650Y-72231450D01*
X79584650Y-72478450D02*
X77342150Y-72478450D01*
X67100650Y-79597450D02*
X72669400Y-85166200D01*
X79019400Y-85166200D02*
X74047150Y-90138450D01*
X77342150Y-72478450D02*
X76752650Y-71888950D01*
X73158150Y-91027450D02*
X74047150Y-90138450D01*
X81659650Y-82525950D02*
X79019400Y-85166200D01*
X80555650Y-72478450D02*
X81659650Y-73582450D01*
X62528650Y-72358450D02*
X65234150Y-72358450D01*
X74314250Y-99587250D02*
X74314250Y-96863050D01*
X74314250Y-96863050D02*
X74302150Y-96850950D01*
X67100650Y-74644450D02*
X67100650Y-79597450D01*
X81659650Y-73582450D02*
X81659650Y-82525950D01*
X65234150Y-72358450D02*
X65322650Y-72269950D01*
%TO.N,/VSS*%
X57578650Y-74898450D02*
X54781650Y-74898450D01*
X57578650Y-75719950D02*
X58154150Y-76295450D01*
X64013575Y-76295450D02*
X66200650Y-78482525D01*
X84534650Y-72478450D02*
X83698279Y-72478450D01*
X72304858Y-86074450D02*
X76103400Y-86074450D01*
X79419650Y-89801525D02*
X81156188Y-88064988D01*
X76103400Y-86074450D02*
X76244650Y-86215700D01*
X81156188Y-88064988D02*
X82848650Y-86372525D01*
X66200650Y-78482525D02*
X66200650Y-79970242D01*
X66200650Y-79970242D02*
X72304858Y-86074450D01*
X79394250Y-99587250D02*
X79394250Y-96863050D01*
X83698279Y-72478450D02*
X82848650Y-73328079D01*
X82848650Y-73328079D02*
X82848650Y-86372525D01*
X84534650Y-72478450D02*
X86958150Y-72478450D01*
X86958150Y-72478450D02*
X87420650Y-72015950D01*
X57578650Y-75719950D02*
X57578650Y-74898450D01*
X60003150Y-76295450D02*
X64013575Y-76295450D01*
X54781650Y-74898450D02*
X54654650Y-74771450D01*
X79419650Y-91916450D02*
X79419650Y-90138450D01*
D32*
%TO.N,/AO_3*%
X103643300Y-71069200D02*
X104811700Y-69900800D01*
X99441000Y-72390000D02*
X97368600Y-70317600D01*
X100761800Y-71069200D02*
X103643300Y-71069200D01*
X99441000Y-72390000D02*
X100761800Y-71069200D01*
X97368600Y-70317600D02*
X97368600Y-68793000D01*
X97368600Y-68793000D02*
X96393600Y-67818000D01*
%TO.N,/AO_2*%
X104774200Y-72390000D02*
X104799600Y-72415400D01*
X99927701Y-73565000D02*
X98863400Y-73565000D01*
X98863400Y-73565000D02*
X97419000Y-72120600D01*
X97419000Y-71281800D02*
X96393600Y-70256400D01*
X97419000Y-72120600D02*
X97419000Y-71281800D01*
X101981000Y-72390000D02*
X104774200Y-72390000D01*
X101102701Y-72390000D02*
X99927701Y-73565000D01*
X101981000Y-72390000D02*
X101102701Y-72390000D01*
%TO.N,/AO_0*%
X100806000Y-76105000D02*
X99129600Y-76105000D01*
X97381500Y-77853100D02*
X97381500Y-79263600D01*
X101981000Y-74930000D02*
X104521000Y-77470000D01*
X97381500Y-79263600D02*
X96406500Y-80238600D01*
X101981000Y-74930000D02*
X100806000Y-76105000D01*
X99129600Y-76105000D02*
X97381500Y-77853100D01*
X104521000Y-77470000D02*
X104798400Y-77470000D01*
%TO.N,/AO_1*%
X100616000Y-73755000D02*
X103635700Y-73755000D01*
X99441000Y-74930000D02*
X100616000Y-73755000D01*
X103635700Y-73755000D02*
X104810700Y-74930000D01*
X99441000Y-74930000D02*
X96723200Y-77647800D01*
X96723200Y-77647800D02*
X96406500Y-77647800D01*
%TO.N,/AI_0*%
X84505800Y-84226400D02*
X97129600Y-84226400D01*
X100171000Y-83725000D02*
X100806000Y-83090000D01*
X100806000Y-81185000D02*
X101981000Y-80010000D01*
X100806000Y-83090000D02*
X100806000Y-81185000D01*
X97631000Y-83725000D02*
X100171000Y-83725000D01*
X67875650Y-79276434D02*
X72514666Y-83915450D01*
X97129600Y-84226400D02*
X97631000Y-83725000D01*
X68079650Y-77343450D02*
X68079650Y-77348450D01*
X68079650Y-77348450D02*
X67875650Y-77552450D01*
X69254650Y-76168450D02*
X68079650Y-77343450D01*
X67875650Y-77552450D02*
X67875650Y-79276434D01*
X72514666Y-83915450D02*
X78276650Y-83915450D01*
%TO.N,/AI_1*%
X78418001Y-82925993D02*
X78391458Y-82899450D01*
X70327650Y-77635450D02*
X71794650Y-76168450D01*
X70327650Y-79141450D02*
X70327650Y-77635450D01*
X78391458Y-82899450D02*
X74085650Y-82899450D01*
X74085650Y-82899450D02*
X70327650Y-79141450D01*
%TO.N,/V0_Out*%
X79584650Y-68668450D02*
X79584650Y-66961450D01*
X70701650Y-64357450D02*
X74466650Y-64357450D01*
X74942650Y-64833450D02*
X77456650Y-64833450D01*
X69152650Y-65906450D02*
X70701650Y-64357450D01*
X79419650Y-66796450D02*
X77456650Y-64833450D01*
X74466650Y-64357450D02*
X74942650Y-64833450D01*
X79584650Y-66961450D02*
X79419650Y-66796450D01*
%TO.N,/V1_Out*%
X79509650Y-78277450D02*
X79509650Y-76363450D01*
X79509650Y-76363450D02*
X79584650Y-76288450D01*
X74339650Y-68553450D02*
X74339650Y-72358450D01*
X71794650Y-66008450D02*
X74339650Y-68553450D01*
X74339650Y-72358450D02*
X78269650Y-76288450D01*
X78269650Y-76288450D02*
X79584650Y-76288450D01*
%TO.N,/V2_Out*%
X72969650Y-70512450D02*
X72180650Y-69723450D01*
X84626650Y-76380450D02*
X84534650Y-76288450D01*
X84626650Y-78428450D02*
X84626650Y-76380450D01*
X72969650Y-70988450D02*
X72969650Y-70512450D01*
X70429650Y-69723450D02*
X69254650Y-68548450D01*
X72969650Y-70988450D02*
X72969650Y-72012951D01*
X72969650Y-72012951D02*
X77764458Y-76807759D01*
X72180650Y-69723450D02*
X70429650Y-69723450D01*
%TO.N,/V3_Out*%
X82714650Y-68668450D02*
X82594650Y-68548450D01*
X84534650Y-68668450D02*
X84534650Y-67015450D01*
X84534650Y-67015450D02*
X84753650Y-66796450D01*
X84534650Y-68668450D02*
X82714650Y-68668450D01*
%TO.N,/V_PHASE_OUT*%
X61512650Y-73628450D02*
X60750650Y-72866450D01*
X62528650Y-73628450D02*
X69254650Y-73628450D01*
X60750650Y-71179450D02*
X62720650Y-69209450D01*
X60750650Y-72866450D02*
X60750650Y-71179450D01*
X62528650Y-73628450D02*
X61512650Y-73628450D01*
%TO.N,Net-(C13-Pad1)*%
X58286850Y-95650250D02*
X58286850Y-91629150D01*
X63798650Y-92095450D02*
X63798650Y-95726450D01*
X58350150Y-91535450D02*
X58271650Y-91613950D01*
X63238650Y-91535450D02*
X63798650Y-92095450D01*
X58286850Y-91629150D02*
X58271650Y-91613950D01*
X60623650Y-91535450D02*
X58350150Y-91535450D01*
X63238650Y-91535450D02*
X60623650Y-91535450D01*
%TO.N,Net-(R2-Pad1)*%
X57955401Y-72358450D02*
X60180650Y-70133201D01*
X60180650Y-68649450D02*
X62720650Y-66109450D01*
X60180650Y-70133201D02*
X60180650Y-69183450D01*
X57578650Y-72358450D02*
X57955401Y-72358450D01*
X60180650Y-69183450D02*
X60180650Y-68649450D01*
%TO.N,Net-(R4-Pad1)*%
X84753650Y-64090450D02*
X87459650Y-66796450D01*
X85141650Y-69938450D02*
X86195650Y-68884450D01*
X84753650Y-63696450D02*
X84753650Y-64090450D01*
X86195650Y-68060450D02*
X87459650Y-66796450D01*
X86195650Y-68884450D02*
X86195650Y-68060450D01*
X84534650Y-69938450D02*
X85141650Y-69938450D01*
%TO.N,Net-(R5-Pad1)*%
X84626650Y-81528450D02*
X84626650Y-81222450D01*
X84626650Y-81222450D02*
X87420650Y-78428450D01*
X84534650Y-75018450D02*
X85254650Y-75018450D01*
X87420650Y-78428450D02*
X87420650Y-77438450D01*
X87420650Y-77438450D02*
X85000650Y-75018450D01*
X85000650Y-75018450D02*
X84534650Y-75018450D01*
%TO.N,Net-(R10-Pad1)*%
X79416650Y-63693450D02*
X79419650Y-63696450D01*
X76752650Y-63693450D02*
X79416650Y-63693450D01*
X80884650Y-69015201D02*
X80884650Y-65161450D01*
X79961401Y-69938450D02*
X80884650Y-69015201D01*
X79584650Y-69938450D02*
X79961401Y-69938450D01*
X80884650Y-65161450D02*
X79419650Y-63696450D01*
%TO.N,Net-(R11-Pad1)*%
X79485650Y-81401450D02*
X79509650Y-81377450D01*
X79584650Y-75018450D02*
X79961401Y-75018450D01*
X80884650Y-80002450D02*
X79509650Y-81377450D01*
X79961401Y-75018450D02*
X80884650Y-75941699D01*
X80884650Y-75941699D02*
X80884650Y-80002450D01*
X76879650Y-81401450D02*
X79485650Y-81401450D01*
D33*
%TO.N,Net-(F1-Pad1)*%
X107645200Y-92989400D02*
X107645200Y-91262200D01*
X107645200Y-91262200D02*
X109931200Y-88976200D01*
D31*
%TO.N,/DIO0_N*%
X42958400Y-91560000D02*
X41808400Y-92710000D01*
X47490000Y-91560000D02*
X42958400Y-91560000D01*
X48640000Y-92710000D02*
X47490000Y-91560000D01*
%TO.N,/DIO1_N*%
X47490000Y-89020000D02*
X42958400Y-89020000D01*
X48640000Y-90170000D02*
X47490000Y-89020000D01*
X42958400Y-89020000D02*
X41808400Y-90170000D01*
%TO.N,/DIO2_N*%
X47490000Y-86480000D02*
X42958400Y-86480000D01*
X42958400Y-86480000D02*
X41808400Y-87630000D01*
X48640000Y-87630000D02*
X47490000Y-86480000D01*
%TO.N,/DIO3_N*%
X42958400Y-83940000D02*
X41808400Y-85090000D01*
X47490000Y-83940000D02*
X42958400Y-83940000D01*
X48640000Y-85090000D02*
X47490000Y-83940000D01*
%TO.N,/DIO4_N*%
X48640000Y-82550000D02*
X47490000Y-81400000D01*
X47490000Y-81400000D02*
X42958400Y-81400000D01*
X42958400Y-81400000D02*
X41808400Y-82550000D01*
%TO.N,/DIO5_N*%
X47490000Y-78860000D02*
X42958400Y-78860000D01*
X42958400Y-78860000D02*
X41808400Y-80010000D01*
X48640000Y-80010000D02*
X47490000Y-78860000D01*
%TO.N,/DIO6_N*%
X47490000Y-76320000D02*
X42958400Y-76320000D01*
X42958400Y-76320000D02*
X41808400Y-77470000D01*
X48640000Y-77470000D02*
X47490000Y-76320000D01*
%TO.N,/DIO7_N*%
X47490000Y-73780000D02*
X42958400Y-73780000D01*
X48640000Y-74930000D02*
X47490000Y-73780000D01*
X42958400Y-73780000D02*
X41808400Y-74930000D01*
D33*
%TO.N,Net-(F1-Pad2)*%
X107182500Y-87706200D02*
X108101200Y-87706200D01*
X108101200Y-87706200D02*
X109931200Y-85876200D01*
D32*
%TO.N,/3V3_1*%
X42983400Y-94075000D02*
X41808400Y-95250000D01*
X48640000Y-95250000D02*
X47465000Y-94075000D01*
X47465000Y-94075000D02*
X42983400Y-94075000D01*
%TO.N,Net-(TP3-Pad1)*%
X58238244Y-73628450D02*
X59078650Y-74468856D01*
X57578650Y-73628450D02*
X58238244Y-73628450D01*
X59078650Y-83620450D02*
X58656650Y-84042450D01*
X59078650Y-74468856D02*
X59078650Y-83620450D01*
%TO.N,Net-(C9-Pad1)*%
X92811600Y-80238600D02*
X91744800Y-79171800D01*
X93293400Y-82626200D02*
X93293400Y-80251700D01*
X81197650Y-71215450D02*
X79591650Y-71215450D01*
X93293400Y-82626200D02*
X91135200Y-82626200D01*
X93275900Y-80238600D02*
X92811600Y-80238600D01*
X79591650Y-71215450D02*
X79584650Y-71208450D01*
%TO.N,Net-(C10-Pad1)*%
X91160600Y-77647800D02*
X89560400Y-76047600D01*
X93306500Y-75197100D02*
X93293400Y-75184000D01*
X79450650Y-73882450D02*
X79584650Y-73748450D01*
X77768650Y-73882450D02*
X79450650Y-73882450D01*
X93275900Y-77647800D02*
X91160600Y-77647800D01*
X88417400Y-74904600D02*
X87020400Y-74904600D01*
X89560400Y-76047600D02*
X88417400Y-74904600D01*
X93306500Y-77647800D02*
X93306500Y-75197100D01*
%TO.N,Net-(C11-Pad1)*%
X93306500Y-72644000D02*
X93306500Y-70269300D01*
X89306400Y-73787000D02*
X84573200Y-73787000D01*
X93306500Y-70269300D02*
X93293600Y-70256400D01*
X92150400Y-73787000D02*
X89306400Y-73787000D01*
X93293400Y-72644000D02*
X92150400Y-73787000D01*
X84573200Y-73787000D02*
X84534650Y-73748450D01*
%TO.N,Net-(C12-Pad1)*%
X86436200Y-70256400D02*
X88696800Y-70256400D01*
X93275900Y-67818000D02*
X91135200Y-67818000D01*
X93293600Y-67818000D02*
X93293600Y-65405600D01*
X84534650Y-71208450D02*
X85484150Y-71208450D01*
X85484150Y-71208450D02*
X86436200Y-70256400D01*
X88696800Y-70256400D02*
X91135200Y-67818000D01*
X91109800Y-65379600D02*
X93293400Y-65379600D01*
%TD*%
M02*
