%TF.GenerationSoftware,KiCad,Pcbnew,6.0.11-2627ca5db0~126~ubuntu20.04.1*%
%TF.CreationDate,2024-05-07T13:56:00-06:00*%
%TF.ProjectId,red-pitaya-pwm-shield,7265642d-7069-4746-9179-612d70776d2d,rev?*%
%TF.SameCoordinates,Original*%
%TF.FileFunction,Drillmap*%
%TF.FilePolarity,Positive*%
%FSLAX45Y45*%
G04 Gerber Fmt 4.5, Leading zero omitted, Abs format (unit mm)*
G04 Created by KiCad (PCBNEW 6.0.11-2627ca5db0~126~ubuntu20.04.1) date 2024-05-07 13:56:00*
%MOMM*%
%LPD*%
G01*
G04 APERTURE LIST*
%ADD10C,0.100000*%
%ADD11C,0.200000*%
G04 APERTURE END LIST*
D10*
X4572000Y-6223000D02*
X11176000Y-6223000D01*
X11176000Y-6223000D02*
X11176000Y-10091420D01*
X11176000Y-10091420D02*
X4572000Y-10091420D01*
X4572000Y-10091420D02*
X4572000Y-6223000D01*
D11*
X4824619Y-10406896D02*
X4824619Y-10206896D01*
X4872238Y-10206896D01*
X4900810Y-10216420D01*
X4919857Y-10235468D01*
X4929381Y-10254515D01*
X4938905Y-10292610D01*
X4938905Y-10321182D01*
X4929381Y-10359277D01*
X4919857Y-10378325D01*
X4900810Y-10397372D01*
X4872238Y-10406896D01*
X4824619Y-10406896D01*
X5024619Y-10406896D02*
X5024619Y-10273563D01*
X5024619Y-10311658D02*
X5034143Y-10292610D01*
X5043667Y-10283087D01*
X5062714Y-10273563D01*
X5081762Y-10273563D01*
X5148429Y-10406896D02*
X5148429Y-10273563D01*
X5148429Y-10206896D02*
X5138905Y-10216420D01*
X5148429Y-10225944D01*
X5157952Y-10216420D01*
X5148429Y-10206896D01*
X5148429Y-10225944D01*
X5272238Y-10406896D02*
X5253190Y-10397372D01*
X5243667Y-10378325D01*
X5243667Y-10206896D01*
X5377000Y-10406896D02*
X5357952Y-10397372D01*
X5348429Y-10378325D01*
X5348429Y-10206896D01*
X5605571Y-10406896D02*
X5605571Y-10206896D01*
X5672238Y-10349753D01*
X5738905Y-10206896D01*
X5738905Y-10406896D01*
X5919857Y-10406896D02*
X5919857Y-10302134D01*
X5910333Y-10283087D01*
X5891286Y-10273563D01*
X5853190Y-10273563D01*
X5834143Y-10283087D01*
X5919857Y-10397372D02*
X5900809Y-10406896D01*
X5853190Y-10406896D01*
X5834143Y-10397372D01*
X5824619Y-10378325D01*
X5824619Y-10359277D01*
X5834143Y-10340230D01*
X5853190Y-10330706D01*
X5900809Y-10330706D01*
X5919857Y-10321182D01*
X6015095Y-10273563D02*
X6015095Y-10473563D01*
X6015095Y-10283087D02*
X6034143Y-10273563D01*
X6072238Y-10273563D01*
X6091286Y-10283087D01*
X6100809Y-10292610D01*
X6110333Y-10311658D01*
X6110333Y-10368801D01*
X6100809Y-10387849D01*
X6091286Y-10397372D01*
X6072238Y-10406896D01*
X6034143Y-10406896D01*
X6015095Y-10397372D01*
X6196048Y-10387849D02*
X6205571Y-10397372D01*
X6196048Y-10406896D01*
X6186524Y-10397372D01*
X6196048Y-10387849D01*
X6196048Y-10406896D01*
X6196048Y-10283087D02*
X6205571Y-10292610D01*
X6196048Y-10302134D01*
X6186524Y-10292610D01*
X6196048Y-10283087D01*
X6196048Y-10302134D01*
M02*
