M48
; DRILL file {KiCad 6.0.11-2627ca5db0~126~ubuntu20.04.1} date Tue 07 May 2024 13:56:01
; FORMAT={-:-/ absolute / inch / decimal}
; #@! TF.CreationDate,2024-05-07T13:56:01-06:00
; #@! TF.GenerationSoftware,Kicad,Pcbnew,6.0.11-2627ca5db0~126~ubuntu20.04.1
; #@! TF.FileFunction,Plated,1,2,PTH
FMAT,2
INCH
; #@! TA.AperFunction,Plated,PTH,ViaDrill
T1C0.0157
; #@! TA.AperFunction,Plated,PTH,ComponentDrill
T2C0.0276
; #@! TA.AperFunction,Plated,PTH,ComponentDrill
T3C0.0315
; #@! TA.AperFunction,Plated,PTH,ComponentDrill
T4C0.0394
; #@! TA.AperFunction,Plated,PTH,ComponentDrill
T5C0.0598
%
G90
G05
T1
X2.43Y-2.76
X2.49Y-3.545
X2.51Y-3.36
X2.5628Y-3.005
X2.6356Y-3.005
X2.64Y-3.455
X2.665Y-3.8
X2.78Y-3.05
X2.85Y-2.665
X2.85Y-3.36
X2.915Y-2.845
X2.915Y-2.94
X2.972Y-3.717
X3.12Y-3.585
X3.125Y-3.53
X3.17Y-3.475
X3.23Y-2.7
X3.23Y-3.1
X3.235Y-3.015
X3.275Y-3.3956
X3.3348Y-3.0252
X3.335Y-2.91
X3.35Y-3.45
X3.355Y-3.305
X3.3606Y-3.266
X3.4Y-3.62
X3.47Y-2.805
X3.525Y-2.7
X3.535Y-3.4017
X3.55Y-3.45
X3.575Y-3.53
X3.585Y-3.305
X3.605Y-3.045
X3.654Y-3.718
X3.76Y-3.265
X3.78Y-2.705
X3.795Y-3.055
X3.795Y-3.175
X3.8Y-3.12
X3.81Y-2.52
X3.83Y-3.535
X4.171Y-3.364
T2
X3.1985Y-3.8143
X3.2985Y-3.8143
X3.3985Y-3.8143
X3.5985Y-3.8143
X3.6985Y-3.8143
T3
X2.785Y-3.77
X2.8637Y-3.77
X4.196Y-2.5274
X4.196Y-2.6061
X4.196Y-2.7483
X4.196Y-2.827
X4.196Y-2.9691
X4.196Y-3.0479
X4.196Y-3.19
X4.196Y-3.2687
T4
X1.915Y-2.55
X1.915Y-2.65
X1.915Y-2.75
X1.915Y-2.85
X1.915Y-2.95
X1.915Y-3.05
X1.915Y-3.15
X1.915Y-3.25
X1.915Y-3.35
X1.915Y-3.45
X1.915Y-3.55
X1.915Y-3.65
X1.915Y-3.75
X2.015Y-2.55
X2.015Y-2.65
X2.015Y-2.75
X2.015Y-2.85
X2.015Y-2.95
X2.015Y-3.05
X2.015Y-3.15
X2.015Y-3.25
X2.015Y-3.35
X2.015Y-3.45
X2.015Y-3.55
X2.015Y-3.65
X2.015Y-3.75
X2.19Y-2.55
X2.19Y-2.65
X2.19Y-2.75
X2.19Y-2.85
X2.19Y-2.95
X2.19Y-3.05
X2.19Y-3.15
X2.19Y-3.25
X2.19Y-3.35
X2.19Y-3.45
X2.19Y-3.55
X2.19Y-3.65
X2.19Y-3.75
X2.29Y-2.55
X2.29Y-2.65
X2.29Y-2.75
X2.29Y-2.85
X2.29Y-2.95
X2.29Y-3.05
X2.29Y-3.15
X2.29Y-3.25
X2.29Y-3.35
X2.29Y-3.45
X2.29Y-3.55
X2.29Y-3.65
X2.29Y-3.75
X2.9958Y-2.596
X2.9958Y-2.696
X2.9958Y-2.796
X2.9958Y-2.896
X2.9958Y-2.996
X2.9958Y-3.096
X3.0958Y-2.596
X3.0958Y-2.696
X3.0958Y-2.796
X3.0958Y-2.896
X3.0958Y-2.996
X3.0958Y-3.096
X3.915Y-2.55
X3.915Y-2.65
X3.915Y-2.75
X3.915Y-2.85
X3.915Y-2.95
X3.915Y-3.05
X3.915Y-3.15
X3.915Y-3.25
X3.915Y-3.35
X3.915Y-3.45
X3.915Y-3.55
X3.915Y-3.65
X3.915Y-3.75
X4.015Y-2.55
X4.015Y-2.65
X4.015Y-2.75
X4.015Y-2.85
X4.015Y-2.95
X4.015Y-3.05
X4.015Y-3.15
X4.015Y-3.25
X4.015Y-3.35
X4.015Y-3.45
X4.015Y-3.55
X4.015Y-3.65
X4.015Y-3.75
T5
X4.238Y-3.661
X4.238Y-3.861
T0
M30
