%TF.GenerationSoftware,KiCad,Pcbnew,6.0.11-2627ca5db0~126~ubuntu20.04.1*%
%TF.CreationDate,2024-07-26T13:52:13-06:00*%
%TF.ProjectId,red-pitaya-pwm-shield,7265642d-7069-4746-9179-612d70776d2d,rev?*%
%TF.SameCoordinates,Original*%
%TF.FileFunction,Legend,Top*%
%TF.FilePolarity,Positive*%
%FSLAX46Y46*%
G04 Gerber Fmt 4.6, Leading zero omitted, Abs format (unit mm)*
G04 Created by KiCad (PCBNEW 6.0.11-2627ca5db0~126~ubuntu20.04.1) date 2024-07-26 13:52:13*
%MOMM*%
%LPD*%
G01*
G04 APERTURE LIST*
%ADD10C,0.150000*%
%ADD11C,0.100000*%
%ADD12C,0.120000*%
G04 APERTURE END LIST*
D10*
X69529745Y-99607878D02*
X70291650Y-99607878D01*
X69910697Y-99988830D02*
X69910697Y-99226926D01*
X71291650Y-99988830D02*
X70720221Y-99988830D01*
X71005935Y-99988830D02*
X71005935Y-98988830D01*
X70910697Y-99131688D01*
X70815459Y-99226926D01*
X70720221Y-99274545D01*
X72196411Y-98988830D02*
X71720221Y-98988830D01*
X71672602Y-99465021D01*
X71720221Y-99417402D01*
X71815459Y-99369783D01*
X72053554Y-99369783D01*
X72148792Y-99417402D01*
X72196411Y-99465021D01*
X72244030Y-99560259D01*
X72244030Y-99798354D01*
X72196411Y-99893592D01*
X72148792Y-99941211D01*
X72053554Y-99988830D01*
X71815459Y-99988830D01*
X71720221Y-99941211D01*
X71672602Y-99893592D01*
X72529745Y-98988830D02*
X72863078Y-99988830D01*
X73196411Y-98988830D01*
D11*
X73956650Y-76755735D02*
X73956650Y-76398592D01*
X74170935Y-76827164D02*
X73420935Y-76577164D01*
X74170935Y-76327164D01*
X74170935Y-76077164D02*
X73420935Y-76077164D01*
X74170935Y-75327164D02*
X74170935Y-75755735D01*
X74170935Y-75541450D02*
X73420935Y-75541450D01*
X73528078Y-75612878D01*
X73599507Y-75684307D01*
X73635221Y-75755735D01*
X73956650Y-79295735D02*
X73956650Y-78938592D01*
X74170935Y-79367164D02*
X73420935Y-79117164D01*
X74170935Y-78867164D01*
X74170935Y-78617164D02*
X73420935Y-78617164D01*
X73420935Y-78331450D02*
X73420935Y-77867164D01*
X73706650Y-78117164D01*
X73706650Y-78010021D01*
X73742364Y-77938592D01*
X73778078Y-77902878D01*
X73849507Y-77867164D01*
X74028078Y-77867164D01*
X74099507Y-77902878D01*
X74135221Y-77938592D01*
X74170935Y-78010021D01*
X74170935Y-78224307D01*
X74135221Y-78295735D01*
X74099507Y-78331450D01*
X73456650Y-74072878D02*
X73420935Y-74144307D01*
X73420935Y-74251450D01*
X73456650Y-74358592D01*
X73528078Y-74430021D01*
X73599507Y-74465735D01*
X73742364Y-74501450D01*
X73849507Y-74501450D01*
X73992364Y-74465735D01*
X74063792Y-74430021D01*
X74135221Y-74358592D01*
X74170935Y-74251450D01*
X74170935Y-74180021D01*
X74135221Y-74072878D01*
X74099507Y-74037164D01*
X73849507Y-74037164D01*
X73849507Y-74180021D01*
X74170935Y-73715735D02*
X73420935Y-73715735D01*
X74170935Y-73287164D01*
X73420935Y-73287164D01*
X74170935Y-72930021D02*
X73420935Y-72930021D01*
X73420935Y-72751450D01*
X73456650Y-72644307D01*
X73528078Y-72572878D01*
X73599507Y-72537164D01*
X73742364Y-72501450D01*
X73849507Y-72501450D01*
X73992364Y-72537164D01*
X74063792Y-72572878D01*
X74135221Y-72644307D01*
X74170935Y-72751450D01*
X74170935Y-72930021D01*
X66598650Y-71278878D02*
X66562935Y-71350307D01*
X66562935Y-71457450D01*
X66598650Y-71564592D01*
X66670078Y-71636021D01*
X66741507Y-71671735D01*
X66884364Y-71707450D01*
X66991507Y-71707450D01*
X67134364Y-71671735D01*
X67205792Y-71636021D01*
X67277221Y-71564592D01*
X67312935Y-71457450D01*
X67312935Y-71386021D01*
X67277221Y-71278878D01*
X67241507Y-71243164D01*
X66991507Y-71243164D01*
X66991507Y-71386021D01*
X67312935Y-70921735D02*
X66562935Y-70921735D01*
X67312935Y-70493164D01*
X66562935Y-70493164D01*
X67312935Y-70136021D02*
X66562935Y-70136021D01*
X66562935Y-69957450D01*
X66598650Y-69850307D01*
X66670078Y-69778878D01*
X66741507Y-69743164D01*
X66884364Y-69707450D01*
X66991507Y-69707450D01*
X67134364Y-69743164D01*
X67205792Y-69778878D01*
X67277221Y-69850307D01*
X67312935Y-69957450D01*
X67312935Y-70136021D01*
X67098650Y-69223021D02*
X67098650Y-68865878D01*
X67312935Y-69294450D02*
X66562935Y-69044450D01*
X67312935Y-68794450D01*
X66562935Y-68401592D02*
X66562935Y-68258735D01*
X66598650Y-68187307D01*
X66670078Y-68115878D01*
X66812935Y-68080164D01*
X67062935Y-68080164D01*
X67205792Y-68115878D01*
X67277221Y-68187307D01*
X67312935Y-68258735D01*
X67312935Y-68401592D01*
X67277221Y-68473021D01*
X67205792Y-68544450D01*
X67062935Y-68580164D01*
X66812935Y-68580164D01*
X66670078Y-68544450D01*
X66598650Y-68473021D01*
X66562935Y-68401592D01*
X66634364Y-67794450D02*
X66598650Y-67758735D01*
X66562935Y-67687307D01*
X66562935Y-67508735D01*
X66598650Y-67437307D01*
X66634364Y-67401592D01*
X66705792Y-67365878D01*
X66777221Y-67365878D01*
X66884364Y-67401592D01*
X67312935Y-67830164D01*
X67312935Y-67365878D01*
X67098650Y-66683021D02*
X67098650Y-66325878D01*
X67312935Y-66754450D02*
X66562935Y-66504450D01*
X67312935Y-66254450D01*
X66562935Y-65861592D02*
X66562935Y-65718735D01*
X66598650Y-65647307D01*
X66670078Y-65575878D01*
X66812935Y-65540164D01*
X67062935Y-65540164D01*
X67205792Y-65575878D01*
X67277221Y-65647307D01*
X67312935Y-65718735D01*
X67312935Y-65861592D01*
X67277221Y-65933021D01*
X67205792Y-66004450D01*
X67062935Y-66040164D01*
X66812935Y-66040164D01*
X66670078Y-66004450D01*
X66598650Y-65933021D01*
X66562935Y-65861592D01*
X66562935Y-65075878D02*
X66562935Y-65004450D01*
X66598650Y-64933021D01*
X66634364Y-64897307D01*
X66705792Y-64861592D01*
X66848650Y-64825878D01*
X67027221Y-64825878D01*
X67170078Y-64861592D01*
X67241507Y-64897307D01*
X67277221Y-64933021D01*
X67312935Y-65004450D01*
X67312935Y-65075878D01*
X67277221Y-65147307D01*
X67241507Y-65183021D01*
X67170078Y-65218735D01*
X67027221Y-65254450D01*
X66848650Y-65254450D01*
X66705792Y-65218735D01*
X66634364Y-65183021D01*
X66598650Y-65147307D01*
X66562935Y-65075878D01*
X73956650Y-69477021D02*
X73956650Y-69119878D01*
X74170935Y-69548450D02*
X73420935Y-69298450D01*
X74170935Y-69048450D01*
X73420935Y-68655592D02*
X73420935Y-68512735D01*
X73456650Y-68441307D01*
X73528078Y-68369878D01*
X73670935Y-68334164D01*
X73920935Y-68334164D01*
X74063792Y-68369878D01*
X74135221Y-68441307D01*
X74170935Y-68512735D01*
X74170935Y-68655592D01*
X74135221Y-68727021D01*
X74063792Y-68798450D01*
X73920935Y-68834164D01*
X73670935Y-68834164D01*
X73528078Y-68798450D01*
X73456650Y-68727021D01*
X73420935Y-68655592D01*
X73420935Y-68084164D02*
X73420935Y-67619878D01*
X73706650Y-67869878D01*
X73706650Y-67762735D01*
X73742364Y-67691307D01*
X73778078Y-67655592D01*
X73849507Y-67619878D01*
X74028078Y-67619878D01*
X74099507Y-67655592D01*
X74135221Y-67691307D01*
X74170935Y-67762735D01*
X74170935Y-67977021D01*
X74135221Y-68048450D01*
X74099507Y-68084164D01*
D10*
X80629545Y-99607878D02*
X81391450Y-99607878D01*
X82391450Y-99988830D02*
X81820021Y-99988830D01*
X82105735Y-99988830D02*
X82105735Y-98988830D01*
X82010497Y-99131688D01*
X81915259Y-99226926D01*
X81820021Y-99274545D01*
X83296211Y-98988830D02*
X82820021Y-98988830D01*
X82772402Y-99465021D01*
X82820021Y-99417402D01*
X82915259Y-99369783D01*
X83153354Y-99369783D01*
X83248592Y-99417402D01*
X83296211Y-99465021D01*
X83343830Y-99560259D01*
X83343830Y-99798354D01*
X83296211Y-99893592D01*
X83248592Y-99941211D01*
X83153354Y-99988830D01*
X82915259Y-99988830D01*
X82820021Y-99941211D01*
X82772402Y-99893592D01*
X83629545Y-98988830D02*
X83962878Y-99988830D01*
X84296211Y-98988830D01*
X53742507Y-63873211D02*
X53885364Y-63920830D01*
X54123459Y-63920830D01*
X54218697Y-63873211D01*
X54266316Y-63825592D01*
X54313935Y-63730354D01*
X54313935Y-63635116D01*
X54266316Y-63539878D01*
X54218697Y-63492259D01*
X54123459Y-63444640D01*
X53932983Y-63397021D01*
X53837745Y-63349402D01*
X53790126Y-63301783D01*
X53742507Y-63206545D01*
X53742507Y-63111307D01*
X53790126Y-63016069D01*
X53837745Y-62968450D01*
X53932983Y-62920830D01*
X54171078Y-62920830D01*
X54313935Y-62968450D01*
X54742507Y-63920830D02*
X54742507Y-62920830D01*
X55075840Y-63635116D01*
X55409173Y-62920830D01*
X55409173Y-63920830D01*
X55837745Y-63635116D02*
X56313935Y-63635116D01*
X55742507Y-63920830D02*
X56075840Y-62920830D01*
X56409173Y-63920830D01*
X56694888Y-63873211D02*
X56790126Y-63920830D01*
X56980602Y-63920830D01*
X57075840Y-63873211D01*
X57123459Y-63777973D01*
X57123459Y-63730354D01*
X57075840Y-63635116D01*
X56980602Y-63587497D01*
X56837745Y-63587497D01*
X56742507Y-63539878D01*
X56694888Y-63444640D01*
X56694888Y-63397021D01*
X56742507Y-63301783D01*
X56837745Y-63254164D01*
X56980602Y-63254164D01*
X57075840Y-63301783D01*
X58171078Y-63254164D02*
X58552030Y-63254164D01*
X58313935Y-62920830D02*
X58313935Y-63777973D01*
X58361554Y-63873211D01*
X58456792Y-63920830D01*
X58552030Y-63920830D01*
X58885364Y-63920830D02*
X58885364Y-62920830D01*
X59313935Y-63920830D02*
X59313935Y-63397021D01*
X59266316Y-63301783D01*
X59171078Y-63254164D01*
X59028221Y-63254164D01*
X58932983Y-63301783D01*
X58885364Y-63349402D01*
X59790126Y-63920830D02*
X59790126Y-63254164D01*
X59790126Y-62920830D02*
X59742507Y-62968450D01*
X59790126Y-63016069D01*
X59837745Y-62968450D01*
X59790126Y-62920830D01*
X59790126Y-63016069D01*
X60218697Y-63873211D02*
X60313935Y-63920830D01*
X60504411Y-63920830D01*
X60599650Y-63873211D01*
X60647269Y-63777973D01*
X60647269Y-63730354D01*
X60599650Y-63635116D01*
X60504411Y-63587497D01*
X60361554Y-63587497D01*
X60266316Y-63539878D01*
X60218697Y-63444640D01*
X60218697Y-63397021D01*
X60266316Y-63301783D01*
X60361554Y-63254164D01*
X60504411Y-63254164D01*
X60599650Y-63301783D01*
X61790126Y-63873211D02*
X61885364Y-63920830D01*
X62075840Y-63920830D01*
X62171078Y-63873211D01*
X62218697Y-63777973D01*
X62218697Y-63730354D01*
X62171078Y-63635116D01*
X62075840Y-63587497D01*
X61932983Y-63587497D01*
X61837745Y-63539878D01*
X61790126Y-63444640D01*
X61790126Y-63397021D01*
X61837745Y-63301783D01*
X61932983Y-63254164D01*
X62075840Y-63254164D01*
X62171078Y-63301783D01*
X62647269Y-63920830D02*
X62647269Y-63254164D01*
X62647269Y-62920830D02*
X62599650Y-62968450D01*
X62647269Y-63016069D01*
X62694888Y-62968450D01*
X62647269Y-62920830D01*
X62647269Y-63016069D01*
X63552030Y-63920830D02*
X63552030Y-62920830D01*
X63552030Y-63873211D02*
X63456792Y-63920830D01*
X63266316Y-63920830D01*
X63171078Y-63873211D01*
X63123459Y-63825592D01*
X63075840Y-63730354D01*
X63075840Y-63444640D01*
X63123459Y-63349402D01*
X63171078Y-63301783D01*
X63266316Y-63254164D01*
X63456792Y-63254164D01*
X63552030Y-63301783D01*
X64409173Y-63873211D02*
X64313935Y-63920830D01*
X64123459Y-63920830D01*
X64028221Y-63873211D01*
X63980602Y-63777973D01*
X63980602Y-63397021D01*
X64028221Y-63301783D01*
X64123459Y-63254164D01*
X64313935Y-63254164D01*
X64409173Y-63301783D01*
X64456792Y-63397021D01*
X64456792Y-63492259D01*
X63980602Y-63587497D01*
D11*
X66562935Y-74822878D02*
X67312935Y-74572878D01*
X66562935Y-74322878D01*
X67312935Y-74072878D02*
X66562935Y-74072878D01*
X66562935Y-73894307D01*
X66598650Y-73787164D01*
X66670078Y-73715735D01*
X66741507Y-73680021D01*
X66884364Y-73644307D01*
X66991507Y-73644307D01*
X67134364Y-73680021D01*
X67205792Y-73715735D01*
X67277221Y-73787164D01*
X67312935Y-73894307D01*
X67312935Y-74072878D01*
X67098650Y-73358592D02*
X67098650Y-73001450D01*
X67312935Y-73430021D02*
X66562935Y-73180021D01*
X67312935Y-72930021D01*
X67241507Y-72251450D02*
X67277221Y-72287164D01*
X67312935Y-72394307D01*
X67312935Y-72465735D01*
X67277221Y-72572878D01*
X67205792Y-72644307D01*
X67134364Y-72680021D01*
X66991507Y-72715735D01*
X66884364Y-72715735D01*
X66741507Y-72680021D01*
X66670078Y-72644307D01*
X66598650Y-72572878D01*
X66562935Y-72465735D01*
X66562935Y-72394307D01*
X66598650Y-72287164D01*
X66634364Y-72251450D01*
X73956650Y-66810021D02*
X73956650Y-66452878D01*
X74170935Y-66881450D02*
X73420935Y-66631450D01*
X74170935Y-66381450D01*
X73420935Y-65988592D02*
X73420935Y-65845735D01*
X73456650Y-65774307D01*
X73528078Y-65702878D01*
X73670935Y-65667164D01*
X73920935Y-65667164D01*
X74063792Y-65702878D01*
X74135221Y-65774307D01*
X74170935Y-65845735D01*
X74170935Y-65988592D01*
X74135221Y-66060021D01*
X74063792Y-66131450D01*
X73920935Y-66167164D01*
X73670935Y-66167164D01*
X73528078Y-66131450D01*
X73456650Y-66060021D01*
X73420935Y-65988592D01*
X74170935Y-64952878D02*
X74170935Y-65381450D01*
X74170935Y-65167164D02*
X73420935Y-65167164D01*
X73528078Y-65238592D01*
X73599507Y-65310021D01*
X73635221Y-65381450D01*
X54009185Y-92431592D02*
X53259185Y-92431592D01*
X54080614Y-91574450D02*
X54044900Y-91645878D01*
X53973471Y-91717307D01*
X53866328Y-91824450D01*
X53830614Y-91895878D01*
X53830614Y-91967307D01*
X54009185Y-91931592D02*
X53973471Y-92003021D01*
X53902042Y-92074450D01*
X53759185Y-92110164D01*
X53509185Y-92110164D01*
X53366328Y-92074450D01*
X53294900Y-92003021D01*
X53259185Y-91931592D01*
X53259185Y-91788735D01*
X53294900Y-91717307D01*
X53366328Y-91645878D01*
X53509185Y-91610164D01*
X53759185Y-91610164D01*
X53902042Y-91645878D01*
X53973471Y-91717307D01*
X54009185Y-91788735D01*
X54009185Y-91931592D01*
X54009185Y-90717307D02*
X53259185Y-90717307D01*
X53544900Y-90717307D02*
X53509185Y-90645878D01*
X53509185Y-90503021D01*
X53544900Y-90431592D01*
X53580614Y-90395878D01*
X53652042Y-90360164D01*
X53866328Y-90360164D01*
X53937757Y-90395878D01*
X53973471Y-90431592D01*
X54009185Y-90503021D01*
X54009185Y-90645878D01*
X53973471Y-90717307D01*
X54009185Y-90038735D02*
X53509185Y-90038735D01*
X53259185Y-90038735D02*
X53294900Y-90074450D01*
X53330614Y-90038735D01*
X53294900Y-90003021D01*
X53259185Y-90038735D01*
X53330614Y-90038735D01*
X54009185Y-89360164D02*
X53616328Y-89360164D01*
X53544900Y-89395878D01*
X53509185Y-89467307D01*
X53509185Y-89610164D01*
X53544900Y-89681592D01*
X53973471Y-89360164D02*
X54009185Y-89431592D01*
X54009185Y-89610164D01*
X53973471Y-89681592D01*
X53902042Y-89717307D01*
X53830614Y-89717307D01*
X53759185Y-89681592D01*
X53723471Y-89610164D01*
X53723471Y-89431592D01*
X53687757Y-89360164D01*
X53973471Y-89038735D02*
X54009185Y-88967307D01*
X54009185Y-88824450D01*
X53973471Y-88753021D01*
X53902042Y-88717307D01*
X53866328Y-88717307D01*
X53794900Y-88753021D01*
X53759185Y-88824450D01*
X53759185Y-88931592D01*
X53723471Y-89003021D01*
X53652042Y-89038735D01*
X53616328Y-89038735D01*
X53544900Y-89003021D01*
X53509185Y-88931592D01*
X53509185Y-88824450D01*
X53544900Y-88753021D01*
X54009185Y-87717307D02*
X53973471Y-87788735D01*
X53902042Y-87824450D01*
X53259185Y-87824450D01*
X54009185Y-87324450D02*
X53973471Y-87395878D01*
X53937757Y-87431592D01*
X53866328Y-87467307D01*
X53652042Y-87467307D01*
X53580614Y-87431592D01*
X53544900Y-87395878D01*
X53509185Y-87324450D01*
X53509185Y-87217307D01*
X53544900Y-87145878D01*
X53580614Y-87110164D01*
X53652042Y-87074450D01*
X53866328Y-87074450D01*
X53937757Y-87110164D01*
X53973471Y-87145878D01*
X54009185Y-87217307D01*
X54009185Y-87324450D01*
X53973471Y-86431592D02*
X54009185Y-86503021D01*
X54009185Y-86645878D01*
X53973471Y-86717307D01*
X53937757Y-86753021D01*
X53866328Y-86788735D01*
X53652042Y-86788735D01*
X53580614Y-86753021D01*
X53544900Y-86717307D01*
X53509185Y-86645878D01*
X53509185Y-86503021D01*
X53544900Y-86431592D01*
X54009185Y-86110164D02*
X53259185Y-86110164D01*
X53723471Y-86038735D02*
X54009185Y-85824450D01*
X53509185Y-85824450D02*
X53794900Y-86110164D01*
X53973471Y-84967307D02*
X54009185Y-84895878D01*
X54009185Y-84753021D01*
X53973471Y-84681592D01*
X53902042Y-84645878D01*
X53866328Y-84645878D01*
X53794900Y-84681592D01*
X53759185Y-84753021D01*
X53759185Y-84860164D01*
X53723471Y-84931592D01*
X53652042Y-84967307D01*
X53616328Y-84967307D01*
X53544900Y-84931592D01*
X53509185Y-84860164D01*
X53509185Y-84753021D01*
X53544900Y-84681592D01*
X54009185Y-84324450D02*
X53259185Y-84324450D01*
X54009185Y-84003021D02*
X53616328Y-84003021D01*
X53544900Y-84038735D01*
X53509185Y-84110164D01*
X53509185Y-84217307D01*
X53544900Y-84288735D01*
X53580614Y-84324450D01*
X54009185Y-83645878D02*
X53509185Y-83645878D01*
X53259185Y-83645878D02*
X53294900Y-83681592D01*
X53330614Y-83645878D01*
X53294900Y-83610164D01*
X53259185Y-83645878D01*
X53330614Y-83645878D01*
X53973471Y-83003021D02*
X54009185Y-83074450D01*
X54009185Y-83217307D01*
X53973471Y-83288735D01*
X53902042Y-83324450D01*
X53616328Y-83324450D01*
X53544900Y-83288735D01*
X53509185Y-83217307D01*
X53509185Y-83074450D01*
X53544900Y-83003021D01*
X53616328Y-82967307D01*
X53687757Y-82967307D01*
X53759185Y-83324450D01*
X54009185Y-82538735D02*
X53973471Y-82610164D01*
X53902042Y-82645878D01*
X53259185Y-82645878D01*
X54009185Y-81931592D02*
X53259185Y-81931592D01*
X53973471Y-81931592D02*
X54009185Y-82003021D01*
X54009185Y-82145878D01*
X53973471Y-82217307D01*
X53937757Y-82253021D01*
X53866328Y-82288735D01*
X53652042Y-82288735D01*
X53580614Y-82253021D01*
X53544900Y-82217307D01*
X53509185Y-82145878D01*
X53509185Y-82003021D01*
X53544900Y-81931592D01*
X53973471Y-81538735D02*
X54009185Y-81538735D01*
X54080614Y-81574450D01*
X54116328Y-81610164D01*
X53509185Y-80717307D02*
X54009185Y-80538735D01*
X53509185Y-80360164D01*
X53330614Y-80110164D02*
X53294900Y-80074450D01*
X53259185Y-80003021D01*
X53259185Y-79824450D01*
X53294900Y-79753021D01*
X53330614Y-79717307D01*
X53402042Y-79681592D01*
X53473471Y-79681592D01*
X53580614Y-79717307D01*
X54009185Y-80145878D01*
X54009185Y-79681592D01*
X55216685Y-89199450D02*
X54859542Y-89449450D01*
X55216685Y-89628021D02*
X54466685Y-89628021D01*
X54466685Y-89342307D01*
X54502400Y-89270878D01*
X54538114Y-89235164D01*
X54609542Y-89199450D01*
X54716685Y-89199450D01*
X54788114Y-89235164D01*
X54823828Y-89270878D01*
X54859542Y-89342307D01*
X54859542Y-89628021D01*
X54716685Y-88949450D02*
X55216685Y-88770878D01*
X54716685Y-88592307D02*
X55216685Y-88770878D01*
X55395257Y-88842307D01*
X55430971Y-88878021D01*
X55466685Y-88949450D01*
X55216685Y-87985164D02*
X54823828Y-87985164D01*
X54752400Y-88020878D01*
X54716685Y-88092307D01*
X54716685Y-88235164D01*
X54752400Y-88306592D01*
X55180971Y-87985164D02*
X55216685Y-88056592D01*
X55216685Y-88235164D01*
X55180971Y-88306592D01*
X55109542Y-88342307D01*
X55038114Y-88342307D01*
X54966685Y-88306592D01*
X54930971Y-88235164D01*
X54930971Y-88056592D01*
X54895257Y-87985164D01*
X54716685Y-87628021D02*
X55216685Y-87628021D01*
X54788114Y-87628021D02*
X54752400Y-87592307D01*
X54716685Y-87520878D01*
X54716685Y-87413735D01*
X54752400Y-87342307D01*
X54823828Y-87306592D01*
X55216685Y-87306592D01*
X54466685Y-86485164D02*
X54466685Y-86056592D01*
X55216685Y-86270878D02*
X54466685Y-86270878D01*
X55216685Y-85806592D02*
X54466685Y-85806592D01*
X55216685Y-85485164D02*
X54823828Y-85485164D01*
X54752400Y-85520878D01*
X54716685Y-85592307D01*
X54716685Y-85699450D01*
X54752400Y-85770878D01*
X54788114Y-85806592D01*
X55216685Y-85020878D02*
X55180971Y-85092307D01*
X55145257Y-85128021D01*
X55073828Y-85163735D01*
X54859542Y-85163735D01*
X54788114Y-85128021D01*
X54752400Y-85092307D01*
X54716685Y-85020878D01*
X54716685Y-84913735D01*
X54752400Y-84842307D01*
X54788114Y-84806592D01*
X54859542Y-84770878D01*
X55073828Y-84770878D01*
X55145257Y-84806592D01*
X55180971Y-84842307D01*
X55216685Y-84913735D01*
X55216685Y-85020878D01*
X55216685Y-84449450D02*
X54716685Y-84449450D01*
X54788114Y-84449450D02*
X54752400Y-84413735D01*
X54716685Y-84342307D01*
X54716685Y-84235164D01*
X54752400Y-84163735D01*
X54823828Y-84128021D01*
X55216685Y-84128021D01*
X54823828Y-84128021D02*
X54752400Y-84092307D01*
X54716685Y-84020878D01*
X54716685Y-83913735D01*
X54752400Y-83842307D01*
X54823828Y-83806592D01*
X55216685Y-83806592D01*
X55216685Y-83128021D02*
X54823828Y-83128021D01*
X54752400Y-83163735D01*
X54716685Y-83235164D01*
X54716685Y-83378021D01*
X54752400Y-83449450D01*
X55180971Y-83128021D02*
X55216685Y-83199450D01*
X55216685Y-83378021D01*
X55180971Y-83449450D01*
X55109542Y-83485164D01*
X55038114Y-83485164D01*
X54966685Y-83449450D01*
X54930971Y-83378021D01*
X54930971Y-83199450D01*
X54895257Y-83128021D01*
X55180971Y-82806592D02*
X55216685Y-82735164D01*
X55216685Y-82592307D01*
X55180971Y-82520878D01*
X55109542Y-82485164D01*
X55073828Y-82485164D01*
X55002400Y-82520878D01*
X54966685Y-82592307D01*
X54966685Y-82699450D01*
X54930971Y-82770878D01*
X54859542Y-82806592D01*
X54823828Y-82806592D01*
X54752400Y-82770878D01*
X54716685Y-82699450D01*
X54716685Y-82592307D01*
X54752400Y-82520878D01*
X66971650Y-79295735D02*
X66971650Y-78938592D01*
X67185935Y-79367164D02*
X66435935Y-79117164D01*
X67185935Y-78867164D01*
X67185935Y-78617164D02*
X66435935Y-78617164D01*
X66507364Y-78295735D02*
X66471650Y-78260021D01*
X66435935Y-78188592D01*
X66435935Y-78010021D01*
X66471650Y-77938592D01*
X66507364Y-77902878D01*
X66578792Y-77867164D01*
X66650221Y-77867164D01*
X66757364Y-77902878D01*
X67185935Y-78331450D01*
X67185935Y-77867164D01*
X67098650Y-76882735D02*
X67098650Y-76525592D01*
X67312935Y-76954164D02*
X66562935Y-76704164D01*
X67312935Y-76454164D01*
X67312935Y-76204164D02*
X66562935Y-76204164D01*
X66562935Y-75704164D02*
X66562935Y-75632735D01*
X66598650Y-75561307D01*
X66634364Y-75525592D01*
X66705792Y-75489878D01*
X66848650Y-75454164D01*
X67027221Y-75454164D01*
X67170078Y-75489878D01*
X67241507Y-75525592D01*
X67277221Y-75561307D01*
X67312935Y-75632735D01*
X67312935Y-75704164D01*
X67277221Y-75775592D01*
X67241507Y-75811307D01*
X67170078Y-75847021D01*
X67027221Y-75882735D01*
X66848650Y-75882735D01*
X66705792Y-75847021D01*
X66634364Y-75811307D01*
X66598650Y-75775592D01*
X66562935Y-75704164D01*
X73456650Y-71532878D02*
X73420935Y-71604307D01*
X73420935Y-71711450D01*
X73456650Y-71818592D01*
X73528078Y-71890021D01*
X73599507Y-71925735D01*
X73742364Y-71961450D01*
X73849507Y-71961450D01*
X73992364Y-71925735D01*
X74063792Y-71890021D01*
X74135221Y-71818592D01*
X74170935Y-71711450D01*
X74170935Y-71640021D01*
X74135221Y-71532878D01*
X74099507Y-71497164D01*
X73849507Y-71497164D01*
X73849507Y-71640021D01*
X74170935Y-71175735D02*
X73420935Y-71175735D01*
X74170935Y-70747164D01*
X73420935Y-70747164D01*
X74170935Y-70390021D02*
X73420935Y-70390021D01*
X73420935Y-70211450D01*
X73456650Y-70104307D01*
X73528078Y-70032878D01*
X73599507Y-69997164D01*
X73742364Y-69961450D01*
X73849507Y-69961450D01*
X73992364Y-69997164D01*
X74063792Y-70032878D01*
X74135221Y-70104307D01*
X74170935Y-70211450D01*
X74170935Y-70390021D01*
D10*
X72133602Y-93959630D02*
X72133602Y-94673916D01*
X72085983Y-94816773D01*
X71990745Y-94912011D01*
X71847888Y-94959630D01*
X71752650Y-94959630D01*
X73085983Y-94959630D02*
X72609792Y-94959630D01*
X72609792Y-93959630D01*
X73990745Y-94864392D02*
X73943126Y-94912011D01*
X73800269Y-94959630D01*
X73705030Y-94959630D01*
X73562173Y-94912011D01*
X73466935Y-94816773D01*
X73419316Y-94721535D01*
X73371697Y-94531059D01*
X73371697Y-94388202D01*
X73419316Y-94197726D01*
X73466935Y-94102488D01*
X73562173Y-94007250D01*
X73705030Y-93959630D01*
X73800269Y-93959630D01*
X73943126Y-94007250D01*
X73990745Y-94054869D01*
X74705030Y-93959630D02*
X74705030Y-94673916D01*
X74657411Y-94816773D01*
X74562173Y-94912011D01*
X74419316Y-94959630D01*
X74324078Y-94959630D01*
X75657411Y-94959630D02*
X75181221Y-94959630D01*
X75181221Y-93959630D01*
X76562173Y-94864392D02*
X76514554Y-94912011D01*
X76371697Y-94959630D01*
X76276459Y-94959630D01*
X76133602Y-94912011D01*
X76038364Y-94816773D01*
X75990745Y-94721535D01*
X75943126Y-94531059D01*
X75943126Y-94388202D01*
X75990745Y-94197726D01*
X76038364Y-94102488D01*
X76133602Y-94007250D01*
X76276459Y-93959630D01*
X76371697Y-93959630D01*
X76514554Y-94007250D01*
X76562173Y-94054869D01*
X77276459Y-93959630D02*
X77276459Y-94673916D01*
X77228840Y-94816773D01*
X77133602Y-94912011D01*
X76990745Y-94959630D01*
X76895507Y-94959630D01*
X78228840Y-94959630D02*
X77752650Y-94959630D01*
X77752650Y-93959630D01*
X79133602Y-94864392D02*
X79085983Y-94912011D01*
X78943126Y-94959630D01*
X78847888Y-94959630D01*
X78705030Y-94912011D01*
X78609792Y-94816773D01*
X78562173Y-94721535D01*
X78514554Y-94531059D01*
X78514554Y-94388202D01*
X78562173Y-94197726D01*
X78609792Y-94102488D01*
X78705030Y-94007250D01*
X78847888Y-93959630D01*
X78943126Y-93959630D01*
X79085983Y-94007250D01*
X79133602Y-94054869D01*
X79847888Y-93959630D02*
X79847888Y-94673916D01*
X79800269Y-94816773D01*
X79705030Y-94912011D01*
X79562173Y-94959630D01*
X79466935Y-94959630D01*
X80800269Y-94959630D02*
X80324078Y-94959630D01*
X80324078Y-93959630D01*
X81705030Y-94864392D02*
X81657411Y-94912011D01*
X81514554Y-94959630D01*
X81419316Y-94959630D01*
X81276459Y-94912011D01*
X81181221Y-94816773D01*
X81133602Y-94721535D01*
X81085983Y-94531059D01*
X81085983Y-94388202D01*
X81133602Y-94197726D01*
X81181221Y-94102488D01*
X81276459Y-94007250D01*
X81419316Y-93959630D01*
X81514554Y-93959630D01*
X81657411Y-94007250D01*
X81705030Y-94054869D01*
D11*
X108544514Y-89746057D02*
X108544514Y-89365104D01*
X108734990Y-89555580D02*
X108354038Y-89555580D01*
X108234990Y-88888914D02*
X108234990Y-89127009D01*
X108473085Y-89150819D01*
X108449276Y-89127009D01*
X108425466Y-89079390D01*
X108425466Y-88960342D01*
X108449276Y-88912723D01*
X108473085Y-88888914D01*
X108520704Y-88865104D01*
X108639752Y-88865104D01*
X108687371Y-88888914D01*
X108711180Y-88912723D01*
X108734990Y-88960342D01*
X108734990Y-89079390D01*
X108711180Y-89127009D01*
X108687371Y-89150819D01*
X108234990Y-88722247D02*
X108734990Y-88555580D01*
X108234990Y-88388914D01*
D10*
%TO.C,R8*%
X89905030Y-65413116D02*
X89428840Y-65746450D01*
X89905030Y-65984545D02*
X88905030Y-65984545D01*
X88905030Y-65603592D01*
X88952650Y-65508354D01*
X89000269Y-65460735D01*
X89095507Y-65413116D01*
X89238364Y-65413116D01*
X89333602Y-65460735D01*
X89381221Y-65508354D01*
X89428840Y-65603592D01*
X89428840Y-65984545D01*
X89333602Y-64841688D02*
X89285983Y-64936926D01*
X89238364Y-64984545D01*
X89143126Y-65032164D01*
X89095507Y-65032164D01*
X89000269Y-64984545D01*
X88952650Y-64936926D01*
X88905030Y-64841688D01*
X88905030Y-64651211D01*
X88952650Y-64555973D01*
X89000269Y-64508354D01*
X89095507Y-64460735D01*
X89143126Y-64460735D01*
X89238364Y-64508354D01*
X89285983Y-64555973D01*
X89333602Y-64651211D01*
X89333602Y-64841688D01*
X89381221Y-64936926D01*
X89428840Y-64984545D01*
X89524078Y-65032164D01*
X89714554Y-65032164D01*
X89809792Y-64984545D01*
X89857411Y-64936926D01*
X89905030Y-64841688D01*
X89905030Y-64651211D01*
X89857411Y-64555973D01*
X89809792Y-64508354D01*
X89714554Y-64460735D01*
X89524078Y-64460735D01*
X89428840Y-64508354D01*
X89381221Y-64555973D01*
X89333602Y-64651211D01*
%TO.C,U2*%
X55365945Y-94620030D02*
X55365945Y-95429554D01*
X55413564Y-95524792D01*
X55461183Y-95572411D01*
X55556421Y-95620030D01*
X55746897Y-95620030D01*
X55842135Y-95572411D01*
X55889754Y-95524792D01*
X55937373Y-95429554D01*
X55937373Y-94620030D01*
X56365945Y-94715269D02*
X56413564Y-94667650D01*
X56508802Y-94620030D01*
X56746897Y-94620030D01*
X56842135Y-94667650D01*
X56889754Y-94715269D01*
X56937373Y-94810507D01*
X56937373Y-94905745D01*
X56889754Y-95048602D01*
X56318326Y-95620030D01*
X56937373Y-95620030D01*
%TO.C,R10*%
X81692030Y-65381307D02*
X81215840Y-65714640D01*
X81692030Y-65952735D02*
X80692030Y-65952735D01*
X80692030Y-65571783D01*
X80739650Y-65476545D01*
X80787269Y-65428926D01*
X80882507Y-65381307D01*
X81025364Y-65381307D01*
X81120602Y-65428926D01*
X81168221Y-65476545D01*
X81215840Y-65571783D01*
X81215840Y-65952735D01*
X81692030Y-64428926D02*
X81692030Y-65000354D01*
X81692030Y-64714640D02*
X80692030Y-64714640D01*
X80834888Y-64809878D01*
X80930126Y-64905116D01*
X80977745Y-65000354D01*
X80692030Y-63809878D02*
X80692030Y-63714640D01*
X80739650Y-63619402D01*
X80787269Y-63571783D01*
X80882507Y-63524164D01*
X81072983Y-63476545D01*
X81311078Y-63476545D01*
X81501554Y-63524164D01*
X81596792Y-63571783D01*
X81644411Y-63619402D01*
X81692030Y-63714640D01*
X81692030Y-63809878D01*
X81644411Y-63905116D01*
X81596792Y-63952735D01*
X81501554Y-64000354D01*
X81311078Y-64047973D01*
X81072983Y-64047973D01*
X80882507Y-64000354D01*
X80787269Y-63952735D01*
X80739650Y-63905116D01*
X80692030Y-63809878D01*
%TO.C,R4*%
X83428030Y-65413116D02*
X82951840Y-65746450D01*
X83428030Y-65984545D02*
X82428030Y-65984545D01*
X82428030Y-65603592D01*
X82475650Y-65508354D01*
X82523269Y-65460735D01*
X82618507Y-65413116D01*
X82761364Y-65413116D01*
X82856602Y-65460735D01*
X82904221Y-65508354D01*
X82951840Y-65603592D01*
X82951840Y-65984545D01*
X82761364Y-64555973D02*
X83428030Y-64555973D01*
X82380411Y-64794069D02*
X83094697Y-65032164D01*
X83094697Y-64413116D01*
%TO.C,Q1*%
X105017819Y-85134438D02*
X104970200Y-85229676D01*
X104874961Y-85324914D01*
X104732104Y-85467771D01*
X104684485Y-85563009D01*
X104684485Y-85658247D01*
X104922580Y-85610628D02*
X104874961Y-85705866D01*
X104779723Y-85801104D01*
X104589247Y-85848723D01*
X104255914Y-85848723D01*
X104065438Y-85801104D01*
X103970200Y-85705866D01*
X103922580Y-85610628D01*
X103922580Y-85420152D01*
X103970200Y-85324914D01*
X104065438Y-85229676D01*
X104255914Y-85182057D01*
X104589247Y-85182057D01*
X104779723Y-85229676D01*
X104874961Y-85324914D01*
X104922580Y-85420152D01*
X104922580Y-85610628D01*
X104922580Y-84229676D02*
X104922580Y-84801104D01*
X104922580Y-84515390D02*
X103922580Y-84515390D01*
X104065438Y-84610628D01*
X104160676Y-84705866D01*
X104208295Y-84801104D01*
%TO.C,R7*%
X75512030Y-80018116D02*
X75035840Y-80351450D01*
X75512030Y-80589545D02*
X74512030Y-80589545D01*
X74512030Y-80208592D01*
X74559650Y-80113354D01*
X74607269Y-80065735D01*
X74702507Y-80018116D01*
X74845364Y-80018116D01*
X74940602Y-80065735D01*
X74988221Y-80113354D01*
X75035840Y-80208592D01*
X75035840Y-80589545D01*
X74512030Y-79684783D02*
X74512030Y-79018116D01*
X75512030Y-79446688D01*
%TO.C,R1*%
X64621983Y-90167830D02*
X64288650Y-89691640D01*
X64050554Y-90167830D02*
X64050554Y-89167830D01*
X64431507Y-89167830D01*
X64526745Y-89215450D01*
X64574364Y-89263069D01*
X64621983Y-89358307D01*
X64621983Y-89501164D01*
X64574364Y-89596402D01*
X64526745Y-89644021D01*
X64431507Y-89691640D01*
X64050554Y-89691640D01*
X65574364Y-90167830D02*
X65002935Y-90167830D01*
X65288650Y-90167830D02*
X65288650Y-89167830D01*
X65193411Y-89310688D01*
X65098173Y-89405926D01*
X65002935Y-89453545D01*
%TO.C,R15*%
X90263742Y-68244980D02*
X89930409Y-67768790D01*
X89692314Y-68244980D02*
X89692314Y-67244980D01*
X90073266Y-67244980D01*
X90168504Y-67292600D01*
X90216123Y-67340219D01*
X90263742Y-67435457D01*
X90263742Y-67578314D01*
X90216123Y-67673552D01*
X90168504Y-67721171D01*
X90073266Y-67768790D01*
X89692314Y-67768790D01*
X91216123Y-68244980D02*
X90644695Y-68244980D01*
X90930409Y-68244980D02*
X90930409Y-67244980D01*
X90835171Y-67387838D01*
X90739933Y-67483076D01*
X90644695Y-67530695D01*
X92120885Y-67244980D02*
X91644695Y-67244980D01*
X91597076Y-67721171D01*
X91644695Y-67673552D01*
X91739933Y-67625933D01*
X91978028Y-67625933D01*
X92073266Y-67673552D01*
X92120885Y-67721171D01*
X92168504Y-67816409D01*
X92168504Y-68054504D01*
X92120885Y-68149742D01*
X92073266Y-68197361D01*
X91978028Y-68244980D01*
X91739933Y-68244980D01*
X91644695Y-68197361D01*
X91597076Y-68149742D01*
%TO.C,J2*%
X70089316Y-62588830D02*
X70089316Y-63303116D01*
X70041697Y-63445973D01*
X69946459Y-63541211D01*
X69803602Y-63588830D01*
X69708364Y-63588830D01*
X70517888Y-62684069D02*
X70565507Y-62636450D01*
X70660745Y-62588830D01*
X70898840Y-62588830D01*
X70994078Y-62636450D01*
X71041697Y-62684069D01*
X71089316Y-62779307D01*
X71089316Y-62874545D01*
X71041697Y-63017402D01*
X70470269Y-63588830D01*
X71089316Y-63588830D01*
%TO.C,C16*%
X109618542Y-77877942D02*
X109570923Y-77925561D01*
X109428066Y-77973180D01*
X109332828Y-77973180D01*
X109189971Y-77925561D01*
X109094733Y-77830323D01*
X109047114Y-77735085D01*
X108999495Y-77544609D01*
X108999495Y-77401752D01*
X109047114Y-77211276D01*
X109094733Y-77116038D01*
X109189971Y-77020800D01*
X109332828Y-76973180D01*
X109428066Y-76973180D01*
X109570923Y-77020800D01*
X109618542Y-77068419D01*
X110570923Y-77973180D02*
X109999495Y-77973180D01*
X110285209Y-77973180D02*
X110285209Y-76973180D01*
X110189971Y-77116038D01*
X110094733Y-77211276D01*
X109999495Y-77258895D01*
X111428066Y-76973180D02*
X111237590Y-76973180D01*
X111142352Y-77020800D01*
X111094733Y-77068419D01*
X110999495Y-77211276D01*
X110951876Y-77401752D01*
X110951876Y-77782704D01*
X110999495Y-77877942D01*
X111047114Y-77925561D01*
X111142352Y-77973180D01*
X111332828Y-77973180D01*
X111428066Y-77925561D01*
X111475685Y-77877942D01*
X111523304Y-77782704D01*
X111523304Y-77544609D01*
X111475685Y-77449371D01*
X111428066Y-77401752D01*
X111332828Y-77354133D01*
X111142352Y-77354133D01*
X111047114Y-77401752D01*
X110999495Y-77449371D01*
X110951876Y-77544609D01*
%TO.C,R9*%
X83259030Y-80145116D02*
X82782840Y-80478450D01*
X83259030Y-80716545D02*
X82259030Y-80716545D01*
X82259030Y-80335592D01*
X82306650Y-80240354D01*
X82354269Y-80192735D01*
X82449507Y-80145116D01*
X82592364Y-80145116D01*
X82687602Y-80192735D01*
X82735221Y-80240354D01*
X82782840Y-80335592D01*
X82782840Y-80716545D01*
X83259030Y-79668926D02*
X83259030Y-79478450D01*
X83211411Y-79383211D01*
X83163792Y-79335592D01*
X83020935Y-79240354D01*
X82830459Y-79192735D01*
X82449507Y-79192735D01*
X82354269Y-79240354D01*
X82306650Y-79287973D01*
X82259030Y-79383211D01*
X82259030Y-79573688D01*
X82306650Y-79668926D01*
X82354269Y-79716545D01*
X82449507Y-79764164D01*
X82687602Y-79764164D01*
X82782840Y-79716545D01*
X82830459Y-79668926D01*
X82878078Y-79573688D01*
X82878078Y-79383211D01*
X82830459Y-79287973D01*
X82782840Y-79240354D01*
X82687602Y-79192735D01*
%TO.C,R2*%
X58450983Y-67222830D02*
X58117650Y-66746640D01*
X57879554Y-67222830D02*
X57879554Y-66222830D01*
X58260507Y-66222830D01*
X58355745Y-66270450D01*
X58403364Y-66318069D01*
X58450983Y-66413307D01*
X58450983Y-66556164D01*
X58403364Y-66651402D01*
X58355745Y-66699021D01*
X58260507Y-66746640D01*
X57879554Y-66746640D01*
X58831935Y-66318069D02*
X58879554Y-66270450D01*
X58974792Y-66222830D01*
X59212888Y-66222830D01*
X59308126Y-66270450D01*
X59355745Y-66318069D01*
X59403364Y-66413307D01*
X59403364Y-66508545D01*
X59355745Y-66651402D01*
X58784316Y-67222830D01*
X59403364Y-67222830D01*
%TO.C,R6*%
X75427030Y-65410116D02*
X74950840Y-65743450D01*
X75427030Y-65981545D02*
X74427030Y-65981545D01*
X74427030Y-65600592D01*
X74474650Y-65505354D01*
X74522269Y-65457735D01*
X74617507Y-65410116D01*
X74760364Y-65410116D01*
X74855602Y-65457735D01*
X74903221Y-65505354D01*
X74950840Y-65600592D01*
X74950840Y-65981545D01*
X74427030Y-64552973D02*
X74427030Y-64743450D01*
X74474650Y-64838688D01*
X74522269Y-64886307D01*
X74665126Y-64981545D01*
X74855602Y-65029164D01*
X75236554Y-65029164D01*
X75331792Y-64981545D01*
X75379411Y-64933926D01*
X75427030Y-64838688D01*
X75427030Y-64648211D01*
X75379411Y-64552973D01*
X75331792Y-64505354D01*
X75236554Y-64457735D01*
X74998459Y-64457735D01*
X74903221Y-64505354D01*
X74855602Y-64552973D01*
X74807983Y-64648211D01*
X74807983Y-64838688D01*
X74855602Y-64933926D01*
X74903221Y-64981545D01*
X74998459Y-65029164D01*
%TO.C,C18*%
X109643942Y-70257942D02*
X109596323Y-70305561D01*
X109453466Y-70353180D01*
X109358228Y-70353180D01*
X109215371Y-70305561D01*
X109120133Y-70210323D01*
X109072514Y-70115085D01*
X109024895Y-69924609D01*
X109024895Y-69781752D01*
X109072514Y-69591276D01*
X109120133Y-69496038D01*
X109215371Y-69400800D01*
X109358228Y-69353180D01*
X109453466Y-69353180D01*
X109596323Y-69400800D01*
X109643942Y-69448419D01*
X110596323Y-70353180D02*
X110024895Y-70353180D01*
X110310609Y-70353180D02*
X110310609Y-69353180D01*
X110215371Y-69496038D01*
X110120133Y-69591276D01*
X110024895Y-69638895D01*
X111167752Y-69781752D02*
X111072514Y-69734133D01*
X111024895Y-69686514D01*
X110977276Y-69591276D01*
X110977276Y-69543657D01*
X111024895Y-69448419D01*
X111072514Y-69400800D01*
X111167752Y-69353180D01*
X111358228Y-69353180D01*
X111453466Y-69400800D01*
X111501085Y-69448419D01*
X111548704Y-69543657D01*
X111548704Y-69591276D01*
X111501085Y-69686514D01*
X111453466Y-69734133D01*
X111358228Y-69781752D01*
X111167752Y-69781752D01*
X111072514Y-69829371D01*
X111024895Y-69876990D01*
X110977276Y-69972228D01*
X110977276Y-70162704D01*
X111024895Y-70257942D01*
X111072514Y-70305561D01*
X111167752Y-70353180D01*
X111358228Y-70353180D01*
X111453466Y-70305561D01*
X111501085Y-70257942D01*
X111548704Y-70162704D01*
X111548704Y-69972228D01*
X111501085Y-69876990D01*
X111453466Y-69829371D01*
X111358228Y-69781752D01*
%TO.C,R5*%
X87746030Y-83447116D02*
X87269840Y-83780450D01*
X87746030Y-84018545D02*
X86746030Y-84018545D01*
X86746030Y-83637592D01*
X86793650Y-83542354D01*
X86841269Y-83494735D01*
X86936507Y-83447116D01*
X87079364Y-83447116D01*
X87174602Y-83494735D01*
X87222221Y-83542354D01*
X87269840Y-83637592D01*
X87269840Y-84018545D01*
X86746030Y-82542354D02*
X86746030Y-83018545D01*
X87222221Y-83066164D01*
X87174602Y-83018545D01*
X87126983Y-82923307D01*
X87126983Y-82685211D01*
X87174602Y-82589973D01*
X87222221Y-82542354D01*
X87317459Y-82494735D01*
X87555554Y-82494735D01*
X87650792Y-82542354D01*
X87698411Y-82589973D01*
X87746030Y-82685211D01*
X87746030Y-82923307D01*
X87698411Y-83018545D01*
X87650792Y-83066164D01*
%TO.C,C19*%
X109643942Y-72823342D02*
X109596323Y-72870961D01*
X109453466Y-72918580D01*
X109358228Y-72918580D01*
X109215371Y-72870961D01*
X109120133Y-72775723D01*
X109072514Y-72680485D01*
X109024895Y-72490009D01*
X109024895Y-72347152D01*
X109072514Y-72156676D01*
X109120133Y-72061438D01*
X109215371Y-71966200D01*
X109358228Y-71918580D01*
X109453466Y-71918580D01*
X109596323Y-71966200D01*
X109643942Y-72013819D01*
X110596323Y-72918580D02*
X110024895Y-72918580D01*
X110310609Y-72918580D02*
X110310609Y-71918580D01*
X110215371Y-72061438D01*
X110120133Y-72156676D01*
X110024895Y-72204295D01*
X111072514Y-72918580D02*
X111262990Y-72918580D01*
X111358228Y-72870961D01*
X111405847Y-72823342D01*
X111501085Y-72680485D01*
X111548704Y-72490009D01*
X111548704Y-72109057D01*
X111501085Y-72013819D01*
X111453466Y-71966200D01*
X111358228Y-71918580D01*
X111167752Y-71918580D01*
X111072514Y-71966200D01*
X111024895Y-72013819D01*
X110977276Y-72109057D01*
X110977276Y-72347152D01*
X111024895Y-72442390D01*
X111072514Y-72490009D01*
X111167752Y-72537628D01*
X111358228Y-72537628D01*
X111453466Y-72490009D01*
X111501085Y-72442390D01*
X111548704Y-72347152D01*
%TO.C,TP2*%
X99220495Y-96937380D02*
X99791923Y-96937380D01*
X99506209Y-97937380D02*
X99506209Y-96937380D01*
X100125257Y-97937380D02*
X100125257Y-96937380D01*
X100506209Y-96937380D01*
X100601447Y-96985000D01*
X100649066Y-97032619D01*
X100696685Y-97127857D01*
X100696685Y-97270714D01*
X100649066Y-97365952D01*
X100601447Y-97413571D01*
X100506209Y-97461190D01*
X100125257Y-97461190D01*
X101077638Y-97032619D02*
X101125257Y-96985000D01*
X101220495Y-96937380D01*
X101458590Y-96937380D01*
X101553828Y-96985000D01*
X101601447Y-97032619D01*
X101649066Y-97127857D01*
X101649066Y-97223095D01*
X101601447Y-97365952D01*
X101030019Y-97937380D01*
X101649066Y-97937380D01*
%TO.C,C10*%
X90595514Y-75393514D02*
X90557419Y-75431609D01*
X90443133Y-75469704D01*
X90366942Y-75469704D01*
X90252657Y-75431609D01*
X90176466Y-75355419D01*
X90138371Y-75279228D01*
X90100276Y-75126847D01*
X90100276Y-75012561D01*
X90138371Y-74860180D01*
X90176466Y-74783990D01*
X90252657Y-74707800D01*
X90366942Y-74669704D01*
X90443133Y-74669704D01*
X90557419Y-74707800D01*
X90595514Y-74745895D01*
X91357419Y-75469704D02*
X90900276Y-75469704D01*
X91128847Y-75469704D02*
X91128847Y-74669704D01*
X91052657Y-74783990D01*
X90976466Y-74860180D01*
X90900276Y-74898276D01*
X91852657Y-74669704D02*
X91928847Y-74669704D01*
X92005038Y-74707800D01*
X92043133Y-74745895D01*
X92081228Y-74822085D01*
X92119323Y-74974466D01*
X92119323Y-75164942D01*
X92081228Y-75317323D01*
X92043133Y-75393514D01*
X92005038Y-75431609D01*
X91928847Y-75469704D01*
X91852657Y-75469704D01*
X91776466Y-75431609D01*
X91738371Y-75393514D01*
X91700276Y-75317323D01*
X91662180Y-75164942D01*
X91662180Y-74974466D01*
X91700276Y-74822085D01*
X91738371Y-74745895D01*
X91776466Y-74707800D01*
X91852657Y-74669704D01*
%TO.C,C5*%
X88793792Y-85606116D02*
X88841411Y-85653735D01*
X88889030Y-85796592D01*
X88889030Y-85891830D01*
X88841411Y-86034688D01*
X88746173Y-86129926D01*
X88650935Y-86177545D01*
X88460459Y-86225164D01*
X88317602Y-86225164D01*
X88127126Y-86177545D01*
X88031888Y-86129926D01*
X87936650Y-86034688D01*
X87889030Y-85891830D01*
X87889030Y-85796592D01*
X87936650Y-85653735D01*
X87984269Y-85606116D01*
X87889030Y-84701354D02*
X87889030Y-85177545D01*
X88365221Y-85225164D01*
X88317602Y-85177545D01*
X88269983Y-85082307D01*
X88269983Y-84844211D01*
X88317602Y-84748973D01*
X88365221Y-84701354D01*
X88460459Y-84653735D01*
X88698554Y-84653735D01*
X88793792Y-84701354D01*
X88841411Y-84748973D01*
X88889030Y-84844211D01*
X88889030Y-85082307D01*
X88841411Y-85177545D01*
X88793792Y-85225164D01*
%TO.C,TP1*%
X57024945Y-96855230D02*
X57596373Y-96855230D01*
X57310659Y-97855230D02*
X57310659Y-96855230D01*
X57929707Y-97855230D02*
X57929707Y-96855230D01*
X58310659Y-96855230D01*
X58405897Y-96902850D01*
X58453516Y-96950469D01*
X58501135Y-97045707D01*
X58501135Y-97188564D01*
X58453516Y-97283802D01*
X58405897Y-97331421D01*
X58310659Y-97379040D01*
X57929707Y-97379040D01*
X59453516Y-97855230D02*
X58882088Y-97855230D01*
X59167802Y-97855230D02*
X59167802Y-96855230D01*
X59072564Y-96998088D01*
X58977326Y-97093326D01*
X58882088Y-97140945D01*
%TO.C,C9*%
X94727733Y-85015342D02*
X94680114Y-85062961D01*
X94537257Y-85110580D01*
X94442019Y-85110580D01*
X94299161Y-85062961D01*
X94203923Y-84967723D01*
X94156304Y-84872485D01*
X94108685Y-84682009D01*
X94108685Y-84539152D01*
X94156304Y-84348676D01*
X94203923Y-84253438D01*
X94299161Y-84158200D01*
X94442019Y-84110580D01*
X94537257Y-84110580D01*
X94680114Y-84158200D01*
X94727733Y-84205819D01*
X95203923Y-85110580D02*
X95394400Y-85110580D01*
X95489638Y-85062961D01*
X95537257Y-85015342D01*
X95632495Y-84872485D01*
X95680114Y-84682009D01*
X95680114Y-84301057D01*
X95632495Y-84205819D01*
X95584876Y-84158200D01*
X95489638Y-84110580D01*
X95299161Y-84110580D01*
X95203923Y-84158200D01*
X95156304Y-84205819D01*
X95108685Y-84301057D01*
X95108685Y-84539152D01*
X95156304Y-84634390D01*
X95203923Y-84682009D01*
X95299161Y-84729628D01*
X95489638Y-84729628D01*
X95584876Y-84682009D01*
X95632495Y-84634390D01*
X95680114Y-84539152D01*
D11*
%TO.C,TP7*%
X87202247Y-73513190D02*
X87487961Y-73513190D01*
X87345104Y-74013190D02*
X87345104Y-73513190D01*
X87654628Y-74013190D02*
X87654628Y-73513190D01*
X87845104Y-73513190D01*
X87892723Y-73537000D01*
X87916533Y-73560809D01*
X87940342Y-73608428D01*
X87940342Y-73679857D01*
X87916533Y-73727476D01*
X87892723Y-73751285D01*
X87845104Y-73775095D01*
X87654628Y-73775095D01*
X88107009Y-73513190D02*
X88440342Y-73513190D01*
X88226057Y-74013190D01*
D10*
%TO.C,R14*%
X90263742Y-70353180D02*
X89930409Y-69876990D01*
X89692314Y-70353180D02*
X89692314Y-69353180D01*
X90073266Y-69353180D01*
X90168504Y-69400800D01*
X90216123Y-69448419D01*
X90263742Y-69543657D01*
X90263742Y-69686514D01*
X90216123Y-69781752D01*
X90168504Y-69829371D01*
X90073266Y-69876990D01*
X89692314Y-69876990D01*
X91216123Y-70353180D02*
X90644695Y-70353180D01*
X90930409Y-70353180D02*
X90930409Y-69353180D01*
X90835171Y-69496038D01*
X90739933Y-69591276D01*
X90644695Y-69638895D01*
X92073266Y-69686514D02*
X92073266Y-70353180D01*
X91835171Y-69305561D02*
X91597076Y-70019847D01*
X92216123Y-70019847D01*
%TO.C,C8*%
X89638142Y-71591466D02*
X89685761Y-71639085D01*
X89733380Y-71781942D01*
X89733380Y-71877180D01*
X89685761Y-72020038D01*
X89590523Y-72115276D01*
X89495285Y-72162895D01*
X89304809Y-72210514D01*
X89161952Y-72210514D01*
X88971476Y-72162895D01*
X88876238Y-72115276D01*
X88781000Y-72020038D01*
X88733380Y-71877180D01*
X88733380Y-71781942D01*
X88781000Y-71639085D01*
X88828619Y-71591466D01*
X89161952Y-71020038D02*
X89114333Y-71115276D01*
X89066714Y-71162895D01*
X88971476Y-71210514D01*
X88923857Y-71210514D01*
X88828619Y-71162895D01*
X88781000Y-71115276D01*
X88733380Y-71020038D01*
X88733380Y-70829561D01*
X88781000Y-70734323D01*
X88828619Y-70686704D01*
X88923857Y-70639085D01*
X88971476Y-70639085D01*
X89066714Y-70686704D01*
X89114333Y-70734323D01*
X89161952Y-70829561D01*
X89161952Y-71020038D01*
X89209571Y-71115276D01*
X89257190Y-71162895D01*
X89352428Y-71210514D01*
X89542904Y-71210514D01*
X89638142Y-71162895D01*
X89685761Y-71115276D01*
X89733380Y-71020038D01*
X89733380Y-70829561D01*
X89685761Y-70734323D01*
X89638142Y-70686704D01*
X89542904Y-70639085D01*
X89352428Y-70639085D01*
X89257190Y-70686704D01*
X89209571Y-70734323D01*
X89161952Y-70829561D01*
%TO.C,C1*%
X65878792Y-80653116D02*
X65926411Y-80700735D01*
X65974030Y-80843592D01*
X65974030Y-80938830D01*
X65926411Y-81081688D01*
X65831173Y-81176926D01*
X65735935Y-81224545D01*
X65545459Y-81272164D01*
X65402602Y-81272164D01*
X65212126Y-81224545D01*
X65116888Y-81176926D01*
X65021650Y-81081688D01*
X64974030Y-80938830D01*
X64974030Y-80843592D01*
X65021650Y-80700735D01*
X65069269Y-80653116D01*
X65974030Y-79700735D02*
X65974030Y-80272164D01*
X65974030Y-79986450D02*
X64974030Y-79986450D01*
X65116888Y-80081688D01*
X65212126Y-80176926D01*
X65259745Y-80272164D01*
%TO.C,U3*%
X89540030Y-96996354D02*
X90349554Y-96996354D01*
X90444792Y-96948735D01*
X90492411Y-96901116D01*
X90540030Y-96805878D01*
X90540030Y-96615402D01*
X90492411Y-96520164D01*
X90444792Y-96472545D01*
X90349554Y-96424926D01*
X89540030Y-96424926D01*
X89540030Y-96043973D02*
X89540030Y-95424926D01*
X89920983Y-95758259D01*
X89920983Y-95615402D01*
X89968602Y-95520164D01*
X90016221Y-95472545D01*
X90111459Y-95424926D01*
X90349554Y-95424926D01*
X90444792Y-95472545D01*
X90492411Y-95520164D01*
X90540030Y-95615402D01*
X90540030Y-95901116D01*
X90492411Y-95996354D01*
X90444792Y-96043973D01*
%TO.C,C11*%
X90466942Y-72696342D02*
X90419323Y-72743961D01*
X90276466Y-72791580D01*
X90181228Y-72791580D01*
X90038371Y-72743961D01*
X89943133Y-72648723D01*
X89895514Y-72553485D01*
X89847895Y-72363009D01*
X89847895Y-72220152D01*
X89895514Y-72029676D01*
X89943133Y-71934438D01*
X90038371Y-71839200D01*
X90181228Y-71791580D01*
X90276466Y-71791580D01*
X90419323Y-71839200D01*
X90466942Y-71886819D01*
X91419323Y-72791580D02*
X90847895Y-72791580D01*
X91133609Y-72791580D02*
X91133609Y-71791580D01*
X91038371Y-71934438D01*
X90943133Y-72029676D01*
X90847895Y-72077295D01*
X92371704Y-72791580D02*
X91800276Y-72791580D01*
X92085990Y-72791580D02*
X92085990Y-71791580D01*
X91990752Y-71934438D01*
X91895514Y-72029676D01*
X91800276Y-72077295D01*
%TO.C,F1*%
X109986771Y-84762933D02*
X109986771Y-85096266D01*
X110510580Y-85096266D02*
X109510580Y-85096266D01*
X109510580Y-84620076D01*
X110510580Y-83715314D02*
X110510580Y-84286742D01*
X110510580Y-84001028D02*
X109510580Y-84001028D01*
X109653438Y-84096266D01*
X109748676Y-84191504D01*
X109796295Y-84286742D01*
%TO.C,C3*%
X75442983Y-88645592D02*
X75395364Y-88693211D01*
X75252507Y-88740830D01*
X75157269Y-88740830D01*
X75014411Y-88693211D01*
X74919173Y-88597973D01*
X74871554Y-88502735D01*
X74823935Y-88312259D01*
X74823935Y-88169402D01*
X74871554Y-87978926D01*
X74919173Y-87883688D01*
X75014411Y-87788450D01*
X75157269Y-87740830D01*
X75252507Y-87740830D01*
X75395364Y-87788450D01*
X75442983Y-87836069D01*
X75776316Y-87740830D02*
X76395364Y-87740830D01*
X76062030Y-88121783D01*
X76204888Y-88121783D01*
X76300126Y-88169402D01*
X76347745Y-88217021D01*
X76395364Y-88312259D01*
X76395364Y-88550354D01*
X76347745Y-88645592D01*
X76300126Y-88693211D01*
X76204888Y-88740830D01*
X75919173Y-88740830D01*
X75823935Y-88693211D01*
X75776316Y-88645592D01*
%TO.C,R13*%
X90187542Y-78049380D02*
X89854209Y-77573190D01*
X89616114Y-78049380D02*
X89616114Y-77049380D01*
X89997066Y-77049380D01*
X90092304Y-77097000D01*
X90139923Y-77144619D01*
X90187542Y-77239857D01*
X90187542Y-77382714D01*
X90139923Y-77477952D01*
X90092304Y-77525571D01*
X89997066Y-77573190D01*
X89616114Y-77573190D01*
X91139923Y-78049380D02*
X90568495Y-78049380D01*
X90854209Y-78049380D02*
X90854209Y-77049380D01*
X90758971Y-77192238D01*
X90663733Y-77287476D01*
X90568495Y-77335095D01*
X91473257Y-77049380D02*
X92092304Y-77049380D01*
X91758971Y-77430333D01*
X91901828Y-77430333D01*
X91997066Y-77477952D01*
X92044685Y-77525571D01*
X92092304Y-77620809D01*
X92092304Y-77858904D01*
X92044685Y-77954142D01*
X91997066Y-78001761D01*
X91901828Y-78049380D01*
X91616114Y-78049380D01*
X91520876Y-78001761D01*
X91473257Y-77954142D01*
%TO.C,U4*%
X60928545Y-75849430D02*
X60928545Y-76658954D01*
X60976164Y-76754192D01*
X61023783Y-76801811D01*
X61119021Y-76849430D01*
X61309497Y-76849430D01*
X61404735Y-76801811D01*
X61452354Y-76754192D01*
X61499973Y-76658954D01*
X61499973Y-75849430D01*
X62404735Y-76182764D02*
X62404735Y-76849430D01*
X62166640Y-75801811D02*
X61928545Y-76516097D01*
X62547592Y-76516097D01*
%TO.C,U1*%
X60369745Y-81999830D02*
X60369745Y-82809354D01*
X60417364Y-82904592D01*
X60464983Y-82952211D01*
X60560221Y-82999830D01*
X60750697Y-82999830D01*
X60845935Y-82952211D01*
X60893554Y-82904592D01*
X60941173Y-82809354D01*
X60941173Y-81999830D01*
X61941173Y-82999830D02*
X61369745Y-82999830D01*
X61655459Y-82999830D02*
X61655459Y-81999830D01*
X61560221Y-82142688D01*
X61464983Y-82237926D01*
X61369745Y-82285545D01*
%TO.C,C7*%
X76931992Y-74023716D02*
X76979611Y-74071335D01*
X77027230Y-74214192D01*
X77027230Y-74309430D01*
X76979611Y-74452288D01*
X76884373Y-74547526D01*
X76789135Y-74595145D01*
X76598659Y-74642764D01*
X76455802Y-74642764D01*
X76265326Y-74595145D01*
X76170088Y-74547526D01*
X76074850Y-74452288D01*
X76027230Y-74309430D01*
X76027230Y-74214192D01*
X76074850Y-74071335D01*
X76122469Y-74023716D01*
X76027230Y-73690383D02*
X76027230Y-73023716D01*
X77027230Y-73452288D01*
%TO.C,C15*%
X55011792Y-77827307D02*
X55059411Y-77874926D01*
X55107030Y-78017783D01*
X55107030Y-78113021D01*
X55059411Y-78255878D01*
X54964173Y-78351116D01*
X54868935Y-78398735D01*
X54678459Y-78446354D01*
X54535602Y-78446354D01*
X54345126Y-78398735D01*
X54249888Y-78351116D01*
X54154650Y-78255878D01*
X54107030Y-78113021D01*
X54107030Y-78017783D01*
X54154650Y-77874926D01*
X54202269Y-77827307D01*
X55107030Y-76874926D02*
X55107030Y-77446354D01*
X55107030Y-77160640D02*
X54107030Y-77160640D01*
X54249888Y-77255878D01*
X54345126Y-77351116D01*
X54392745Y-77446354D01*
X54107030Y-75970164D02*
X54107030Y-76446354D01*
X54583221Y-76493973D01*
X54535602Y-76446354D01*
X54487983Y-76351116D01*
X54487983Y-76113021D01*
X54535602Y-76017783D01*
X54583221Y-75970164D01*
X54678459Y-75922545D01*
X54916554Y-75922545D01*
X55011792Y-75970164D01*
X55059411Y-76017783D01*
X55107030Y-76113021D01*
X55107030Y-76351116D01*
X55059411Y-76446354D01*
X55011792Y-76493973D01*
D11*
%TO.C,TP9*%
X90478847Y-63657790D02*
X90764561Y-63657790D01*
X90621704Y-64157790D02*
X90621704Y-63657790D01*
X90931228Y-64157790D02*
X90931228Y-63657790D01*
X91121704Y-63657790D01*
X91169323Y-63681600D01*
X91193133Y-63705409D01*
X91216942Y-63753028D01*
X91216942Y-63824457D01*
X91193133Y-63872076D01*
X91169323Y-63895885D01*
X91121704Y-63919695D01*
X90931228Y-63919695D01*
X91455038Y-64157790D02*
X91550276Y-64157790D01*
X91597895Y-64133980D01*
X91621704Y-64110171D01*
X91669323Y-64038742D01*
X91693133Y-63943504D01*
X91693133Y-63753028D01*
X91669323Y-63705409D01*
X91645514Y-63681600D01*
X91597895Y-63657790D01*
X91502657Y-63657790D01*
X91455038Y-63681600D01*
X91431228Y-63705409D01*
X91407419Y-63753028D01*
X91407419Y-63872076D01*
X91431228Y-63919695D01*
X91455038Y-63943504D01*
X91502657Y-63967314D01*
X91597895Y-63967314D01*
X91645514Y-63943504D01*
X91669323Y-63919695D01*
X91693133Y-63872076D01*
D10*
%TO.C,J3*%
X102398580Y-99545733D02*
X103112866Y-99545733D01*
X103255723Y-99593352D01*
X103350961Y-99688590D01*
X103398580Y-99831447D01*
X103398580Y-99926685D01*
X102398580Y-99164780D02*
X102398580Y-98545733D01*
X102779533Y-98879066D01*
X102779533Y-98736209D01*
X102827152Y-98640971D01*
X102874771Y-98593352D01*
X102970009Y-98545733D01*
X103208104Y-98545733D01*
X103303342Y-98593352D01*
X103350961Y-98640971D01*
X103398580Y-98736209D01*
X103398580Y-99021923D01*
X103350961Y-99117161D01*
X103303342Y-99164780D01*
%TO.C,C13*%
X64044792Y-99639592D02*
X63997173Y-99687211D01*
X63854316Y-99734830D01*
X63759078Y-99734830D01*
X63616221Y-99687211D01*
X63520983Y-99591973D01*
X63473364Y-99496735D01*
X63425745Y-99306259D01*
X63425745Y-99163402D01*
X63473364Y-98972926D01*
X63520983Y-98877688D01*
X63616221Y-98782450D01*
X63759078Y-98734830D01*
X63854316Y-98734830D01*
X63997173Y-98782450D01*
X64044792Y-98830069D01*
X64997173Y-99734830D02*
X64425745Y-99734830D01*
X64711459Y-99734830D02*
X64711459Y-98734830D01*
X64616221Y-98877688D01*
X64520983Y-98972926D01*
X64425745Y-99020545D01*
X65330507Y-98734830D02*
X65949554Y-98734830D01*
X65616221Y-99115783D01*
X65759078Y-99115783D01*
X65854316Y-99163402D01*
X65901935Y-99211021D01*
X65949554Y-99306259D01*
X65949554Y-99544354D01*
X65901935Y-99639592D01*
X65854316Y-99687211D01*
X65759078Y-99734830D01*
X65473364Y-99734830D01*
X65378126Y-99687211D01*
X65330507Y-99639592D01*
%TO.C,C12*%
X94213042Y-63886742D02*
X94165423Y-63934361D01*
X94022566Y-63981980D01*
X93927328Y-63981980D01*
X93784471Y-63934361D01*
X93689233Y-63839123D01*
X93641614Y-63743885D01*
X93593995Y-63553409D01*
X93593995Y-63410552D01*
X93641614Y-63220076D01*
X93689233Y-63124838D01*
X93784471Y-63029600D01*
X93927328Y-62981980D01*
X94022566Y-62981980D01*
X94165423Y-63029600D01*
X94213042Y-63077219D01*
X95165423Y-63981980D02*
X94593995Y-63981980D01*
X94879709Y-63981980D02*
X94879709Y-62981980D01*
X94784471Y-63124838D01*
X94689233Y-63220076D01*
X94593995Y-63267695D01*
X95546376Y-63077219D02*
X95593995Y-63029600D01*
X95689233Y-62981980D01*
X95927328Y-62981980D01*
X96022566Y-63029600D01*
X96070185Y-63077219D01*
X96117804Y-63172457D01*
X96117804Y-63267695D01*
X96070185Y-63410552D01*
X95498757Y-63981980D01*
X96117804Y-63981980D01*
%TO.C,R3*%
X65013030Y-66302116D02*
X64536840Y-66635450D01*
X65013030Y-66873545D02*
X64013030Y-66873545D01*
X64013030Y-66492592D01*
X64060650Y-66397354D01*
X64108269Y-66349735D01*
X64203507Y-66302116D01*
X64346364Y-66302116D01*
X64441602Y-66349735D01*
X64489221Y-66397354D01*
X64536840Y-66492592D01*
X64536840Y-66873545D01*
X64013030Y-65968783D02*
X64013030Y-65349735D01*
X64393983Y-65683069D01*
X64393983Y-65540211D01*
X64441602Y-65444973D01*
X64489221Y-65397354D01*
X64584459Y-65349735D01*
X64822554Y-65349735D01*
X64917792Y-65397354D01*
X64965411Y-65444973D01*
X65013030Y-65540211D01*
X65013030Y-65825926D01*
X64965411Y-65921164D01*
X64917792Y-65968783D01*
D11*
%TO.C,TP6*%
X88700847Y-82326990D02*
X88986561Y-82326990D01*
X88843704Y-82826990D02*
X88843704Y-82326990D01*
X89153228Y-82826990D02*
X89153228Y-82326990D01*
X89343704Y-82326990D01*
X89391323Y-82350800D01*
X89415133Y-82374609D01*
X89438942Y-82422228D01*
X89438942Y-82493657D01*
X89415133Y-82541276D01*
X89391323Y-82565085D01*
X89343704Y-82588895D01*
X89153228Y-82588895D01*
X89867514Y-82326990D02*
X89772276Y-82326990D01*
X89724657Y-82350800D01*
X89700847Y-82374609D01*
X89653228Y-82446038D01*
X89629419Y-82541276D01*
X89629419Y-82731752D01*
X89653228Y-82779371D01*
X89677038Y-82803180D01*
X89724657Y-82826990D01*
X89819895Y-82826990D01*
X89867514Y-82803180D01*
X89891323Y-82779371D01*
X89915133Y-82731752D01*
X89915133Y-82612704D01*
X89891323Y-82565085D01*
X89867514Y-82541276D01*
X89819895Y-82517466D01*
X89724657Y-82517466D01*
X89677038Y-82541276D01*
X89653228Y-82565085D01*
X89629419Y-82612704D01*
D10*
%TO.C,J5*%
X42745066Y-97472380D02*
X42745066Y-98186666D01*
X42697447Y-98329523D01*
X42602209Y-98424761D01*
X42459352Y-98472380D01*
X42364114Y-98472380D01*
X43697447Y-97472380D02*
X43221257Y-97472380D01*
X43173638Y-97948571D01*
X43221257Y-97900952D01*
X43316495Y-97853333D01*
X43554590Y-97853333D01*
X43649828Y-97900952D01*
X43697447Y-97948571D01*
X43745066Y-98043809D01*
X43745066Y-98281904D01*
X43697447Y-98377142D01*
X43649828Y-98424761D01*
X43554590Y-98472380D01*
X43316495Y-98472380D01*
X43221257Y-98424761D01*
X43173638Y-98377142D01*
D11*
%TO.C,TP8*%
X87151447Y-75748390D02*
X87437161Y-75748390D01*
X87294304Y-76248390D02*
X87294304Y-75748390D01*
X87603828Y-76248390D02*
X87603828Y-75748390D01*
X87794304Y-75748390D01*
X87841923Y-75772200D01*
X87865733Y-75796009D01*
X87889542Y-75843628D01*
X87889542Y-75915057D01*
X87865733Y-75962676D01*
X87841923Y-75986485D01*
X87794304Y-76010295D01*
X87603828Y-76010295D01*
X88175257Y-75962676D02*
X88127638Y-75938866D01*
X88103828Y-75915057D01*
X88080019Y-75867438D01*
X88080019Y-75843628D01*
X88103828Y-75796009D01*
X88127638Y-75772200D01*
X88175257Y-75748390D01*
X88270495Y-75748390D01*
X88318114Y-75772200D01*
X88341923Y-75796009D01*
X88365733Y-75843628D01*
X88365733Y-75867438D01*
X88341923Y-75915057D01*
X88318114Y-75938866D01*
X88270495Y-75962676D01*
X88175257Y-75962676D01*
X88127638Y-75986485D01*
X88103828Y-76010295D01*
X88080019Y-76057914D01*
X88080019Y-76153152D01*
X88103828Y-76200771D01*
X88127638Y-76224580D01*
X88175257Y-76248390D01*
X88270495Y-76248390D01*
X88318114Y-76224580D01*
X88341923Y-76200771D01*
X88365733Y-76153152D01*
X88365733Y-76057914D01*
X88341923Y-76010295D01*
X88318114Y-75986485D01*
X88270495Y-75962676D01*
D10*
%TO.C,C4*%
X80815483Y-88717592D02*
X80767864Y-88765211D01*
X80625007Y-88812830D01*
X80529769Y-88812830D01*
X80386911Y-88765211D01*
X80291673Y-88669973D01*
X80244054Y-88574735D01*
X80196435Y-88384259D01*
X80196435Y-88241402D01*
X80244054Y-88050926D01*
X80291673Y-87955688D01*
X80386911Y-87860450D01*
X80529769Y-87812830D01*
X80625007Y-87812830D01*
X80767864Y-87860450D01*
X80815483Y-87908069D01*
X81672626Y-88146164D02*
X81672626Y-88812830D01*
X81434530Y-87765211D02*
X81196435Y-88479497D01*
X81815483Y-88479497D01*
%TO.C,R11*%
X81904030Y-80470307D02*
X81427840Y-80803640D01*
X81904030Y-81041735D02*
X80904030Y-81041735D01*
X80904030Y-80660783D01*
X80951650Y-80565545D01*
X80999269Y-80517926D01*
X81094507Y-80470307D01*
X81237364Y-80470307D01*
X81332602Y-80517926D01*
X81380221Y-80565545D01*
X81427840Y-80660783D01*
X81427840Y-81041735D01*
X81904030Y-79517926D02*
X81904030Y-80089354D01*
X81904030Y-79803640D02*
X80904030Y-79803640D01*
X81046888Y-79898878D01*
X81142126Y-79994116D01*
X81189745Y-80089354D01*
X81904030Y-78565545D02*
X81904030Y-79136973D01*
X81904030Y-78851259D02*
X80904030Y-78851259D01*
X81046888Y-78946497D01*
X81142126Y-79041735D01*
X81189745Y-79136973D01*
%TO.C,C17*%
X109643942Y-75363342D02*
X109596323Y-75410961D01*
X109453466Y-75458580D01*
X109358228Y-75458580D01*
X109215371Y-75410961D01*
X109120133Y-75315723D01*
X109072514Y-75220485D01*
X109024895Y-75030009D01*
X109024895Y-74887152D01*
X109072514Y-74696676D01*
X109120133Y-74601438D01*
X109215371Y-74506200D01*
X109358228Y-74458580D01*
X109453466Y-74458580D01*
X109596323Y-74506200D01*
X109643942Y-74553819D01*
X110596323Y-75458580D02*
X110024895Y-75458580D01*
X110310609Y-75458580D02*
X110310609Y-74458580D01*
X110215371Y-74601438D01*
X110120133Y-74696676D01*
X110024895Y-74744295D01*
X110929657Y-74458580D02*
X111596323Y-74458580D01*
X111167752Y-75458580D01*
%TO.C,C2*%
X60980792Y-96782116D02*
X61028411Y-96829735D01*
X61076030Y-96972592D01*
X61076030Y-97067830D01*
X61028411Y-97210688D01*
X60933173Y-97305926D01*
X60837935Y-97353545D01*
X60647459Y-97401164D01*
X60504602Y-97401164D01*
X60314126Y-97353545D01*
X60218888Y-97305926D01*
X60123650Y-97210688D01*
X60076030Y-97067830D01*
X60076030Y-96972592D01*
X60123650Y-96829735D01*
X60171269Y-96782116D01*
X60171269Y-96401164D02*
X60123650Y-96353545D01*
X60076030Y-96258307D01*
X60076030Y-96020211D01*
X60123650Y-95924973D01*
X60171269Y-95877354D01*
X60266507Y-95829735D01*
X60361745Y-95829735D01*
X60504602Y-95877354D01*
X61076030Y-96448783D01*
X61076030Y-95829735D01*
%TO.C,C14*%
X65679792Y-75287307D02*
X65727411Y-75334926D01*
X65775030Y-75477783D01*
X65775030Y-75573021D01*
X65727411Y-75715878D01*
X65632173Y-75811116D01*
X65536935Y-75858735D01*
X65346459Y-75906354D01*
X65203602Y-75906354D01*
X65013126Y-75858735D01*
X64917888Y-75811116D01*
X64822650Y-75715878D01*
X64775030Y-75573021D01*
X64775030Y-75477783D01*
X64822650Y-75334926D01*
X64870269Y-75287307D01*
X65775030Y-74334926D02*
X65775030Y-74906354D01*
X65775030Y-74620640D02*
X64775030Y-74620640D01*
X64917888Y-74715878D01*
X65013126Y-74811116D01*
X65060745Y-74906354D01*
X65108364Y-73477783D02*
X65775030Y-73477783D01*
X64727411Y-73715878D02*
X65441697Y-73953973D01*
X65441697Y-73334926D01*
%TO.C,R12*%
X90289142Y-80589380D02*
X89955809Y-80113190D01*
X89717714Y-80589380D02*
X89717714Y-79589380D01*
X90098666Y-79589380D01*
X90193904Y-79637000D01*
X90241523Y-79684619D01*
X90289142Y-79779857D01*
X90289142Y-79922714D01*
X90241523Y-80017952D01*
X90193904Y-80065571D01*
X90098666Y-80113190D01*
X89717714Y-80113190D01*
X91241523Y-80589380D02*
X90670095Y-80589380D01*
X90955809Y-80589380D02*
X90955809Y-79589380D01*
X90860571Y-79732238D01*
X90765333Y-79827476D01*
X90670095Y-79875095D01*
X91622476Y-79684619D02*
X91670095Y-79637000D01*
X91765333Y-79589380D01*
X92003428Y-79589380D01*
X92098666Y-79637000D01*
X92146285Y-79684619D01*
X92193904Y-79779857D01*
X92193904Y-79875095D01*
X92146285Y-80017952D01*
X91574857Y-80589380D01*
X92193904Y-80589380D01*
%TO.C,U5*%
X81297745Y-66650830D02*
X81297745Y-67460354D01*
X81345364Y-67555592D01*
X81392983Y-67603211D01*
X81488221Y-67650830D01*
X81678697Y-67650830D01*
X81773935Y-67603211D01*
X81821554Y-67555592D01*
X81869173Y-67460354D01*
X81869173Y-66650830D01*
X82821554Y-66650830D02*
X82345364Y-66650830D01*
X82297745Y-67127021D01*
X82345364Y-67079402D01*
X82440602Y-67031783D01*
X82678697Y-67031783D01*
X82773935Y-67079402D01*
X82821554Y-67127021D01*
X82869173Y-67222259D01*
X82869173Y-67460354D01*
X82821554Y-67555592D01*
X82773935Y-67603211D01*
X82678697Y-67650830D01*
X82440602Y-67650830D01*
X82345364Y-67603211D01*
X82297745Y-67555592D01*
%TO.C,TP3*%
X57812345Y-78211430D02*
X58383773Y-78211430D01*
X58098059Y-79211430D02*
X58098059Y-78211430D01*
X58717107Y-79211430D02*
X58717107Y-78211430D01*
X59098059Y-78211430D01*
X59193297Y-78259050D01*
X59240916Y-78306669D01*
X59288535Y-78401907D01*
X59288535Y-78544764D01*
X59240916Y-78640002D01*
X59193297Y-78687621D01*
X59098059Y-78735240D01*
X58717107Y-78735240D01*
X59621869Y-78211430D02*
X60240916Y-78211430D01*
X59907583Y-78592383D01*
X60050440Y-78592383D01*
X60145678Y-78640002D01*
X60193297Y-78687621D01*
X60240916Y-78782859D01*
X60240916Y-79020954D01*
X60193297Y-79116192D01*
X60145678Y-79163811D01*
X60050440Y-79211430D01*
X59764726Y-79211430D01*
X59669488Y-79163811D01*
X59621869Y-79116192D01*
D12*
%TO.C,R8*%
X83843650Y-64519386D02*
X83843650Y-65973514D01*
X85663650Y-64519386D02*
X85663650Y-65973514D01*
%TO.C,U2*%
X58881650Y-92551450D02*
X58881650Y-90876450D01*
X58881650Y-92551450D02*
X58881650Y-93201450D01*
X55761650Y-92551450D02*
X55761650Y-91901450D01*
X55761650Y-92551450D02*
X55761650Y-93201450D01*
%TO.C,R10*%
X78509650Y-64519386D02*
X78509650Y-65973514D01*
X80329650Y-64519386D02*
X80329650Y-65973514D01*
%TO.C,TP5*%
X80094250Y-99587250D02*
G75*
G03*
X80094250Y-99587250I-700000J0D01*
G01*
%TO.C,R4*%
X86549650Y-65973514D02*
X86549650Y-64519386D01*
X88369650Y-65973514D02*
X88369650Y-64519386D01*
%TO.C,Q1*%
X106045000Y-86146200D02*
X104245000Y-86146200D01*
X106045000Y-86146200D02*
X106845000Y-86146200D01*
X106045000Y-89266200D02*
X105245000Y-89266200D01*
X106045000Y-89266200D02*
X106845000Y-89266200D01*
%TO.C,R7*%
X77789650Y-80578514D02*
X77789650Y-79124386D01*
X75969650Y-80578514D02*
X75969650Y-79124386D01*
%TO.C,R1*%
X64061586Y-92445450D02*
X65515714Y-92445450D01*
X64061586Y-90625450D02*
X65515714Y-90625450D01*
%TO.C,R15*%
X95552964Y-66908000D02*
X94098836Y-66908000D01*
X95552964Y-68728000D02*
X94098836Y-68728000D01*
%TO.C,J2*%
X67822650Y-79936450D02*
X73022650Y-79936450D01*
X73022650Y-67176450D02*
X73022650Y-79936450D01*
X70422650Y-64576450D02*
X70422650Y-67176450D01*
X70422650Y-67176450D02*
X73022650Y-67176450D01*
X67822650Y-64576450D02*
X70422650Y-64576450D01*
X67822650Y-64576450D02*
X67822650Y-79936450D01*
X71692650Y-64576450D02*
X73022650Y-64576450D01*
X73022650Y-64576450D02*
X73022650Y-65906450D01*
%TO.C,C16*%
X105649648Y-78380000D02*
X107072152Y-78380000D01*
X105649648Y-76560000D02*
X107072152Y-76560000D01*
%TO.C,R9*%
X83716650Y-80705514D02*
X83716650Y-79251386D01*
X85536650Y-80705514D02*
X85536650Y-79251386D01*
%TO.C,R2*%
X59344714Y-67638450D02*
X57890586Y-67638450D01*
X59344714Y-69458450D02*
X57890586Y-69458450D01*
%TO.C,R6*%
X77662650Y-64516386D02*
X77662650Y-65970514D01*
X75842650Y-64516386D02*
X75842650Y-65970514D01*
%TO.C,C18*%
X105662948Y-68990800D02*
X107085452Y-68990800D01*
X105662948Y-70810800D02*
X107085452Y-70810800D01*
%TO.C,R5*%
X88330650Y-79251386D02*
X88330650Y-80705514D01*
X86510650Y-79251386D02*
X86510650Y-80705514D01*
%TO.C,C19*%
X105650848Y-71505400D02*
X107073352Y-71505400D01*
X105650848Y-73325400D02*
X107073352Y-73325400D01*
%TO.C,TP2*%
X101182400Y-98933000D02*
G75*
G03*
X101182400Y-98933000I-700000J0D01*
G01*
%TO.C,C10*%
X94144648Y-76094000D02*
X95567152Y-76094000D01*
X94144648Y-74274000D02*
X95567152Y-74274000D01*
%TO.C,C5*%
X89346650Y-89618202D02*
X89346650Y-88195698D01*
X87526650Y-89618202D02*
X87526650Y-88195698D01*
%TO.C,TP1*%
X58986850Y-95650250D02*
G75*
G03*
X58986850Y-95650250I-700000J0D01*
G01*
%TO.C,C9*%
X94144648Y-83536200D02*
X95567152Y-83536200D01*
X94144648Y-81716200D02*
X95567152Y-81716200D01*
%TO.C,TP7*%
X90006400Y-73787000D02*
G75*
G03*
X90006400Y-73787000I-700000J0D01*
G01*
%TO.C,R14*%
X95552964Y-69346400D02*
X94098836Y-69346400D01*
X95552964Y-71166400D02*
X94098836Y-71166400D01*
%TO.C,C8*%
X88330650Y-71164702D02*
X88330650Y-69742198D01*
X86510650Y-71164702D02*
X86510650Y-69742198D01*
%TO.C,C1*%
X62761650Y-79775198D02*
X62761650Y-81197702D01*
X64581650Y-79775198D02*
X64581650Y-81197702D01*
%TO.C,U3*%
X89152150Y-91960950D02*
X69412150Y-91960950D01*
X89152150Y-98200950D02*
X89152150Y-91960950D01*
X69412150Y-91960950D02*
X69412150Y-98180950D01*
D11*
X89532150Y-98580950D02*
X87502150Y-98580950D01*
D12*
X69412150Y-98200950D02*
X89152150Y-98200950D01*
D11*
X89532150Y-98580950D02*
X89532150Y-97350950D01*
D12*
%TO.C,C11*%
X94144648Y-73554000D02*
X95567152Y-73554000D01*
X94144648Y-71734000D02*
X95567152Y-71734000D01*
%TO.C,F1*%
X110841200Y-88153264D02*
X110841200Y-86699136D01*
X109021200Y-88153264D02*
X109021200Y-86699136D01*
%TO.C,C3*%
X74898398Y-89228450D02*
X76320902Y-89228450D01*
X74898398Y-91048450D02*
X76320902Y-91048450D01*
%TO.C,R13*%
X95552964Y-76737800D02*
X94098836Y-76737800D01*
X95552964Y-78557800D02*
X94098836Y-78557800D01*
%TO.C,TP4*%
X75014250Y-99587250D02*
G75*
G03*
X75014250Y-99587250I-700000J0D01*
G01*
%TO.C,U4*%
X60053650Y-75553450D02*
X58103650Y-75553450D01*
X60053650Y-70433450D02*
X62003650Y-70433450D01*
X60053650Y-70433450D02*
X56603650Y-70433450D01*
X60053650Y-75553450D02*
X62003650Y-75553450D01*
%TO.C,U1*%
X61131650Y-83387450D02*
X63081650Y-83387450D01*
X61131650Y-88507450D02*
X63081650Y-88507450D01*
X61131650Y-83387450D02*
X57681650Y-83387450D01*
X61131650Y-88507450D02*
X59181650Y-88507450D01*
%TO.C,C7*%
X75842650Y-71037702D02*
X75842650Y-69615198D01*
X77662650Y-71037702D02*
X77662650Y-69615198D01*
%TO.C,C15*%
X53744650Y-72497698D02*
X53744650Y-73920202D01*
X55564650Y-72497698D02*
X55564650Y-73920202D01*
%TO.C,TP9*%
X91809800Y-65379600D02*
G75*
G03*
X91809800Y-65379600I-700000J0D01*
G01*
%TO.C,J3*%
X111455200Y-90449400D02*
X103835200Y-90449400D01*
X111455200Y-100609400D02*
X111455200Y-90449400D01*
X105105200Y-100609400D02*
X105105200Y-90449400D01*
X103835200Y-90449400D02*
X103835200Y-100609400D01*
X103835200Y-100609400D02*
X111455200Y-100609400D01*
%TO.C,C13*%
X66359650Y-96766450D02*
X66359650Y-97791450D01*
X66879650Y-94172450D02*
X66879650Y-97280450D01*
X66199650Y-93551450D02*
X66199650Y-94686450D01*
X65839650Y-96766450D02*
X65839650Y-98091450D01*
X65559650Y-96766450D02*
X65559650Y-98194450D01*
X65919650Y-96766450D02*
X65919650Y-98055450D01*
X65599650Y-93271450D02*
X65599650Y-94686450D01*
X66519650Y-96766450D02*
X66519650Y-97663450D01*
X66559650Y-93825450D02*
X66559650Y-94686450D01*
X66599650Y-96766450D02*
X66599650Y-97590450D01*
X65639650Y-96766450D02*
X65639650Y-98168450D01*
X66999650Y-94343450D02*
X66999650Y-97109450D01*
X65879650Y-96766450D02*
X65879650Y-98074450D01*
X62243875Y-94001450D02*
X62243875Y-94501450D01*
X66359650Y-93661450D02*
X66359650Y-94686450D01*
X66079650Y-96766450D02*
X66079650Y-97973450D01*
X66319650Y-96766450D02*
X66319650Y-97821450D01*
X65478650Y-93235450D02*
X65478650Y-94686450D01*
X64958650Y-96766450D02*
X64958650Y-98302450D01*
X66479650Y-93755450D02*
X66479650Y-94686450D01*
X66919650Y-94226450D02*
X66919650Y-97226450D01*
X65679650Y-93298450D02*
X65679650Y-94686450D01*
X65038650Y-93157450D02*
X65038650Y-94686450D01*
X65318650Y-96766450D02*
X65318650Y-98254450D01*
X66719650Y-96766450D02*
X66719650Y-97469450D01*
X67399650Y-95442450D02*
X67399650Y-96010450D01*
X65158650Y-93170450D02*
X65158650Y-94686450D01*
X65198650Y-96766450D02*
X65198650Y-98276450D01*
X65158650Y-96766450D02*
X65158650Y-98282450D01*
X66679650Y-93941450D02*
X66679650Y-94686450D01*
X65438650Y-96766450D02*
X65438650Y-98227450D01*
X65238650Y-96766450D02*
X65238650Y-98269450D01*
X64838650Y-93146450D02*
X64838650Y-94686450D01*
X64998650Y-96766450D02*
X64998650Y-98299450D01*
X66119650Y-96766450D02*
X66119650Y-97950450D01*
X65358650Y-96766450D02*
X65358650Y-98246450D01*
X65438650Y-93225450D02*
X65438650Y-94686450D01*
X65839650Y-93361450D02*
X65839650Y-94686450D01*
X65519650Y-93246450D02*
X65519650Y-94686450D01*
X66399650Y-93691450D02*
X66399650Y-94686450D01*
X65679650Y-96766450D02*
X65679650Y-98154450D01*
X65398650Y-93215450D02*
X65398650Y-94686450D01*
X66159650Y-96766450D02*
X66159650Y-97926450D01*
X67119650Y-94548450D02*
X67119650Y-96904450D01*
X64918650Y-93148450D02*
X64918650Y-94686450D01*
X66439650Y-96766450D02*
X66439650Y-97730450D01*
X66759650Y-96766450D02*
X66759650Y-97425450D01*
X66279650Y-93604450D02*
X66279650Y-94686450D01*
X65879650Y-93378450D02*
X65879650Y-94686450D01*
X66119650Y-93502450D02*
X66119650Y-94686450D01*
X65999650Y-96766450D02*
X65999650Y-98016450D01*
X66039650Y-96766450D02*
X66039650Y-97994450D01*
X66439650Y-93722450D02*
X66439650Y-94686450D01*
X65038650Y-96766450D02*
X65038650Y-98295450D01*
X65478650Y-96766450D02*
X65478650Y-98217450D01*
X64878650Y-93147450D02*
X64878650Y-94686450D01*
X65559650Y-93258450D02*
X65559650Y-94686450D01*
X65278650Y-96766450D02*
X65278650Y-98262450D01*
X67159650Y-94628450D02*
X67159650Y-96824450D01*
X66679650Y-96766450D02*
X66679650Y-97511450D01*
X67279650Y-94921450D02*
X67279650Y-96531450D01*
X65639650Y-93284450D02*
X65639650Y-94686450D01*
X65278650Y-93190450D02*
X65278650Y-94686450D01*
X65078650Y-96766450D02*
X65078650Y-98291450D01*
X66719650Y-93983450D02*
X66719650Y-94686450D01*
X66799650Y-96766450D02*
X66799650Y-97379450D01*
X65799650Y-96766450D02*
X65799650Y-98108450D01*
X64998650Y-93153450D02*
X64998650Y-94686450D01*
X64878650Y-96766450D02*
X64878650Y-98305450D01*
X65118650Y-96766450D02*
X65118650Y-98287450D01*
X64918650Y-96766450D02*
X64918650Y-98304450D01*
X65759650Y-93328450D02*
X65759650Y-94686450D01*
X66799650Y-94073450D02*
X66799650Y-94686450D01*
X66959650Y-94283450D02*
X66959650Y-97169450D01*
X67199650Y-94715450D02*
X67199650Y-96737450D01*
X61993875Y-94251450D02*
X62493875Y-94251450D01*
X66519650Y-93789450D02*
X66519650Y-94686450D01*
X66319650Y-93631450D02*
X66319650Y-94686450D01*
X65118650Y-93165450D02*
X65118650Y-94686450D01*
X65999650Y-93436450D02*
X65999650Y-94686450D01*
X66639650Y-96766450D02*
X66639650Y-97552450D01*
X66639650Y-93900450D02*
X66639650Y-94686450D01*
X65358650Y-93206450D02*
X65358650Y-94686450D01*
X67359650Y-95208450D02*
X67359650Y-96244450D01*
X66399650Y-96766450D02*
X66399650Y-97761450D01*
X64798650Y-96766450D02*
X64798650Y-98306450D01*
X65078650Y-93161450D02*
X65078650Y-94686450D01*
X65959650Y-93416450D02*
X65959650Y-94686450D01*
X64958650Y-93150450D02*
X64958650Y-94686450D01*
X66199650Y-96766450D02*
X66199650Y-97901450D01*
X67079650Y-94475450D02*
X67079650Y-96977450D01*
X66839650Y-94121450D02*
X66839650Y-97331450D01*
X65519650Y-96766450D02*
X65519650Y-98206450D01*
X66039650Y-93458450D02*
X66039650Y-94686450D01*
X67039650Y-94407450D02*
X67039650Y-97045450D01*
X65719650Y-96766450D02*
X65719650Y-98140450D01*
X66279650Y-96766450D02*
X66279650Y-97848450D01*
X66599650Y-93862450D02*
X66599650Y-94686450D01*
X64798650Y-93146450D02*
X64798650Y-94686450D01*
X66559650Y-96766450D02*
X66559650Y-97627450D01*
X66159650Y-93526450D02*
X66159650Y-94686450D01*
X65238650Y-93183450D02*
X65238650Y-94686450D01*
X65719650Y-93312450D02*
X65719650Y-94686450D01*
X64838650Y-96766450D02*
X64838650Y-98306450D01*
X65198650Y-93176450D02*
X65198650Y-94686450D01*
X67319650Y-95049450D02*
X67319650Y-96403450D01*
X66239650Y-96766450D02*
X66239650Y-97875450D01*
X65959650Y-96766450D02*
X65959650Y-98036450D01*
X66479650Y-96766450D02*
X66479650Y-97697450D01*
X65919650Y-93397450D02*
X65919650Y-94686450D01*
X66759650Y-94027450D02*
X66759650Y-94686450D01*
X65799650Y-93344450D02*
X65799650Y-94686450D01*
X65318650Y-93198450D02*
X65318650Y-94686450D01*
X65759650Y-96766450D02*
X65759650Y-98124450D01*
X66239650Y-93577450D02*
X66239650Y-94686450D01*
X65398650Y-96766450D02*
X65398650Y-98237450D01*
X65599650Y-96766450D02*
X65599650Y-98181450D01*
X67239650Y-94811450D02*
X67239650Y-96641450D01*
X66079650Y-93479450D02*
X66079650Y-94686450D01*
X67418650Y-95726450D02*
G75*
G03*
X67418650Y-95726450I-2620000J0D01*
G01*
%TO.C,C12*%
X94144648Y-64469600D02*
X95567152Y-64469600D01*
X94144648Y-66289600D02*
X95567152Y-66289600D01*
%TO.C,R3*%
X61810650Y-66932386D02*
X61810650Y-68386514D01*
X63630650Y-66932386D02*
X63630650Y-68386514D01*
%TO.C,TP6*%
X91835200Y-82626200D02*
G75*
G03*
X91835200Y-82626200I-700000J0D01*
G01*
%TO.C,J5*%
X45678400Y-96580000D02*
X43078400Y-96580000D01*
X41808400Y-96580000D02*
X40478400Y-96580000D01*
X43078400Y-93980000D02*
X40478400Y-93980000D01*
X40478400Y-93980000D02*
X40478400Y-63440000D01*
X43078400Y-96580000D02*
X43078400Y-93980000D01*
X45678400Y-96580000D02*
X45678400Y-63440000D01*
X40478400Y-96580000D02*
X40478400Y-95250000D01*
X45678400Y-63440000D02*
X40478400Y-63440000D01*
%TO.C,TP8*%
X90260400Y-76047600D02*
G75*
G03*
X90260400Y-76047600I-700000J0D01*
G01*
%TO.C,C4*%
X81693402Y-89228450D02*
X80270898Y-89228450D01*
X81693402Y-91048450D02*
X80270898Y-91048450D01*
%TO.C,R11*%
X78599650Y-80554514D02*
X78599650Y-79100386D01*
X80419650Y-80554514D02*
X80419650Y-79100386D01*
%TO.C,C17*%
X105661948Y-75840000D02*
X107084452Y-75840000D01*
X105661948Y-74020000D02*
X107084452Y-74020000D01*
%TO.C,C2*%
X61533650Y-92386698D02*
X61533650Y-93809202D01*
X59713650Y-92386698D02*
X59713650Y-93809202D01*
%TO.C,C14*%
X66232650Y-69996198D02*
X66232650Y-71418702D01*
X64412650Y-69996198D02*
X64412650Y-71418702D01*
%TO.C,R12*%
X95552964Y-79328600D02*
X94098836Y-79328600D01*
X95552964Y-81148600D02*
X94098836Y-81148600D01*
%TO.C,U5*%
X82059650Y-68043450D02*
X84009650Y-68043450D01*
X82059650Y-76913450D02*
X80109650Y-76913450D01*
X82059650Y-76913450D02*
X84009650Y-76913450D01*
X82059650Y-68043450D02*
X78609650Y-68043450D01*
%TO.C,TP3*%
X59774250Y-80207050D02*
G75*
G03*
X59774250Y-80207050I-700000J0D01*
G01*
%TD*%
M02*
