%TF.GenerationSoftware,KiCad,Pcbnew,6.0.11-2627ca5db0~126~ubuntu20.04.1*%
%TF.CreationDate,2024-05-07T13:56:08-06:00*%
%TF.ProjectId,red-pitaya-pwm-shield,7265642d-7069-4746-9179-612d70776d2d,rev?*%
%TF.SameCoordinates,Original*%
%TF.FileFunction,Copper,L1,Top*%
%TF.FilePolarity,Positive*%
%FSLAX46Y46*%
G04 Gerber Fmt 4.6, Leading zero omitted, Abs format (unit mm)*
G04 Created by KiCad (PCBNEW 6.0.11-2627ca5db0~126~ubuntu20.04.1) date 2024-05-07 13:56:08*
%MOMM*%
%LPD*%
G01*
G04 APERTURE LIST*
G04 Aperture macros list*
%AMRoundRect*
0 Rectangle with rounded corners*
0 $1 Rounding radius*
0 $2 $3 $4 $5 $6 $7 $8 $9 X,Y pos of 4 corners*
0 Add a 4 corners polygon primitive as box body*
4,1,4,$2,$3,$4,$5,$6,$7,$8,$9,$2,$3,0*
0 Add four circle primitives for the rounded corners*
1,1,$1+$1,$2,$3*
1,1,$1+$1,$4,$5*
1,1,$1+$1,$6,$7*
1,1,$1+$1,$8,$9*
0 Add four rect primitives between the rounded corners*
20,1,$1+$1,$2,$3,$4,$5,0*
20,1,$1+$1,$4,$5,$6,$7,0*
20,1,$1+$1,$6,$7,$8,$9,0*
20,1,$1+$1,$8,$9,$2,$3,0*%
G04 Aperture macros list end*
%TA.AperFunction,SMDPad,CuDef*%
%ADD10C,1.000000*%
%TD*%
%TA.AperFunction,SMDPad,CuDef*%
%ADD11RoundRect,0.250000X0.625000X-0.400000X0.625000X0.400000X-0.625000X0.400000X-0.625000X-0.400000X0*%
%TD*%
%TA.AperFunction,SMDPad,CuDef*%
%ADD12RoundRect,0.250000X-0.625000X0.400000X-0.625000X-0.400000X0.625000X-0.400000X0.625000X0.400000X0*%
%TD*%
%TA.AperFunction,SMDPad,CuDef*%
%ADD13RoundRect,0.150000X-0.150000X0.587500X-0.150000X-0.587500X0.150000X-0.587500X0.150000X0.587500X0*%
%TD*%
%TA.AperFunction,SMDPad,CuDef*%
%ADD14RoundRect,0.150000X-0.512500X-0.150000X0.512500X-0.150000X0.512500X0.150000X-0.512500X0.150000X0*%
%TD*%
%TA.AperFunction,SMDPad,CuDef*%
%ADD15RoundRect,0.250000X-0.400000X-0.625000X0.400000X-0.625000X0.400000X0.625000X-0.400000X0.625000X0*%
%TD*%
%TA.AperFunction,ComponentPad*%
%ADD16R,1.700000X1.700000*%
%TD*%
%TA.AperFunction,ComponentPad*%
%ADD17O,1.700000X1.700000*%
%TD*%
%TA.AperFunction,SMDPad,CuDef*%
%ADD18RoundRect,0.250000X0.400000X0.625000X-0.400000X0.625000X-0.400000X-0.625000X0.400000X-0.625000X0*%
%TD*%
%TA.AperFunction,ComponentPad*%
%ADD19R,1.600000X1.600000*%
%TD*%
%TA.AperFunction,ComponentPad*%
%ADD20C,1.600000*%
%TD*%
%TA.AperFunction,SMDPad,CuDef*%
%ADD21RoundRect,0.250000X0.650000X-0.412500X0.650000X0.412500X-0.650000X0.412500X-0.650000X-0.412500X0*%
%TD*%
%TA.AperFunction,SMDPad,CuDef*%
%ADD22RoundRect,0.250000X-0.650000X0.412500X-0.650000X-0.412500X0.650000X-0.412500X0.650000X0.412500X0*%
%TD*%
%TA.AperFunction,ComponentPad*%
%ADD23R,1.500000X1.500000*%
%TD*%
%TA.AperFunction,ComponentPad*%
%ADD24O,1.500000X1.500000*%
%TD*%
%TA.AperFunction,SMDPad,CuDef*%
%ADD25RoundRect,0.250000X-0.412500X-0.650000X0.412500X-0.650000X0.412500X0.650000X-0.412500X0.650000X0*%
%TD*%
%TA.AperFunction,SMDPad,CuDef*%
%ADD26RoundRect,0.150000X-0.825000X-0.150000X0.825000X-0.150000X0.825000X0.150000X-0.825000X0.150000X0*%
%TD*%
%TA.AperFunction,ComponentPad*%
%ADD27R,3.000000X3.000000*%
%TD*%
%TA.AperFunction,ComponentPad*%
%ADD28C,3.000000*%
%TD*%
%TA.AperFunction,SMDPad,CuDef*%
%ADD29RoundRect,0.250000X0.412500X0.650000X-0.412500X0.650000X-0.412500X-0.650000X0.412500X-0.650000X0*%
%TD*%
%TA.AperFunction,ViaPad*%
%ADD30C,0.800000*%
%TD*%
%TA.AperFunction,Conductor*%
%ADD31C,0.500000*%
%TD*%
%TA.AperFunction,Conductor*%
%ADD32C,0.250000*%
%TD*%
%TA.AperFunction,Conductor*%
%ADD33C,0.200000*%
%TD*%
G04 APERTURE END LIST*
D10*
%TO.P,TP8,1,1*%
%TO.N,/AO_1*%
X110464600Y-76860400D03*
%TD*%
%TO.P,TP9,1,1*%
%TO.N,/AO_3*%
X110388400Y-66141600D03*
%TD*%
%TO.P,TP7,1,1*%
%TO.N,/AO_2*%
X110464600Y-71069200D03*
%TD*%
%TO.P,TP6,1,1*%
%TO.N,/AO_0*%
X110515400Y-82270600D03*
%TD*%
%TO.P,TP5,1,1*%
%TO.N,/VSS*%
X86334600Y-99618800D03*
%TD*%
%TO.P,TP4,1,1*%
%TO.N,/VDD*%
X81254600Y-99618800D03*
%TD*%
%TO.P,TP3,1,1*%
%TO.N,Net-(TP3-Pad1)*%
X66014600Y-80238600D03*
%TD*%
%TO.P,TP2,1,1*%
%TO.N,/+5V*%
X100482400Y-98933000D03*
%TD*%
%TO.P,TP1,1,1*%
%TO.N,Net-(C13-Pad1)*%
X65227200Y-95681800D03*
%TD*%
D11*
%TO.P,F1,1*%
%TO.N,Net-(F1-Pad1)*%
X109931200Y-88976200D03*
%TO.P,F1,2*%
%TO.N,Net-(F1-Pad2)*%
X109931200Y-85876200D03*
%TD*%
D12*
%TO.P,R8,1*%
%TO.N,Net-(R4-Pad1)*%
X91694000Y-63728000D03*
%TO.P,R8,2*%
%TO.N,/V3_Out*%
X91694000Y-66828000D03*
%TD*%
D13*
%TO.P,U2,1,K*%
%TO.N,Net-(C13-Pad1)*%
X65212000Y-91645500D03*
%TO.P,U2,2,A*%
%TO.N,GND*%
X63312000Y-91645500D03*
%TO.P,U2,3*%
%TO.N,N/C*%
X64262000Y-93520500D03*
%TD*%
D12*
%TO.P,R10,1*%
%TO.N,Net-(R10-Pad1)*%
X86360000Y-63728000D03*
%TO.P,R10,2*%
%TO.N,/V0_Out*%
X86360000Y-66828000D03*
%TD*%
D11*
%TO.P,R4,1*%
%TO.N,Net-(R4-Pad1)*%
X94400000Y-66828000D03*
%TO.P,R4,2*%
%TO.N,GND*%
X94400000Y-63728000D03*
%TD*%
D14*
%TO.P,Q1,1,G*%
%TO.N,GND*%
X104907500Y-86756200D03*
%TO.P,Q1,2,S*%
%TO.N,/+5V*%
X104907500Y-88656200D03*
%TO.P,Q1,3,D*%
%TO.N,Net-(F1-Pad2)*%
X107182500Y-87706200D03*
%TD*%
D11*
%TO.P,R7,1*%
%TO.N,Net-(R11-Pad1)*%
X83820000Y-81433000D03*
%TO.P,R7,2*%
%TO.N,GND*%
X83820000Y-78333000D03*
%TD*%
D15*
%TO.P,R1,1*%
%TO.N,Net-(C13-Pad1)*%
X70179000Y-91567000D03*
%TO.P,R1,2*%
%TO.N,/+5V*%
X73279000Y-91567000D03*
%TD*%
D16*
%TO.P,J2,1,Pin_1*%
%TO.N,/V1_Out*%
X78633000Y-65938000D03*
D17*
%TO.P,J2,2,Pin_2*%
%TO.N,/V0_Out*%
X76093000Y-65938000D03*
%TO.P,J2,3,Pin_3*%
%TO.N,/V3_Out*%
X78633000Y-68478000D03*
%TO.P,J2,4,Pin_4*%
%TO.N,/V2_Out*%
X76093000Y-68478000D03*
%TO.P,J2,5,Pin_5*%
%TO.N,GND*%
X78633000Y-71018000D03*
%TO.P,J2,6,Pin_6*%
X76093000Y-71018000D03*
%TO.P,J2,7,Pin_7*%
X78633000Y-73558000D03*
%TO.P,J2,8,Pin_8*%
%TO.N,/V_PHASE_OUT*%
X76093000Y-73558000D03*
%TO.P,J2,9,Pin_9*%
%TO.N,/AI_1*%
X78633000Y-76098000D03*
%TO.P,J2,10,Pin_10*%
%TO.N,/AI_0*%
X76093000Y-76098000D03*
%TO.P,J2,11,Pin_11*%
%TO.N,/AI_3*%
X78633000Y-78638000D03*
%TO.P,J2,12,Pin_12*%
%TO.N,/AI_2*%
X76093000Y-78638000D03*
%TD*%
D11*
%TO.P,R9,1*%
%TO.N,Net-(R5-Pad1)*%
X91567000Y-81560000D03*
%TO.P,R9,2*%
%TO.N,/V2_Out*%
X91567000Y-78460000D03*
%TD*%
D18*
%TO.P,R2,1*%
%TO.N,Net-(R2-Pad1)*%
X67108000Y-68580000D03*
%TO.P,R2,2*%
%TO.N,GND*%
X64008000Y-68580000D03*
%TD*%
D12*
%TO.P,R6,1*%
%TO.N,Net-(R10-Pad1)*%
X83693000Y-63725000D03*
%TO.P,R6,2*%
%TO.N,GND*%
X83693000Y-66825000D03*
%TD*%
%TO.P,R5,1*%
%TO.N,Net-(R5-Pad1)*%
X94361000Y-78460000D03*
%TO.P,R5,2*%
%TO.N,GND*%
X94361000Y-81560000D03*
%TD*%
D19*
%TO.P,C10,1*%
%TO.N,/AO_2*%
X106578400Y-69805925D03*
D20*
%TO.P,C10,2*%
%TO.N,GND*%
X106578400Y-71805925D03*
%TD*%
D21*
%TO.P,C5,1*%
%TO.N,/+5V*%
X95377000Y-90501000D03*
%TO.P,C5,2*%
%TO.N,GND*%
X95377000Y-87376000D03*
%TD*%
D19*
%TO.P,C9,1*%
%TO.N,/AO_3*%
X106578400Y-64195888D03*
D20*
%TO.P,C9,2*%
%TO.N,GND*%
X106578400Y-66195888D03*
%TD*%
D21*
%TO.P,C8,1*%
%TO.N,/VSS*%
X94361000Y-72047500D03*
%TO.P,C8,2*%
%TO.N,GND*%
X94361000Y-68922500D03*
%TD*%
D22*
%TO.P,C1,1*%
%TO.N,GND*%
X70612000Y-78955500D03*
%TO.P,C1,2*%
%TO.N,/+5V*%
X70612000Y-82080500D03*
%TD*%
D23*
%TO.P,U3,1,VIN+*%
%TO.N,/+5V*%
X93942500Y-96882500D03*
D24*
%TO.P,U3,2,VIN-*%
%TO.N,GND*%
X91402500Y-96882500D03*
%TO.P,U3,4,VOUT-*%
%TO.N,/VSS*%
X86322500Y-96882500D03*
%TO.P,U3,5,0V*%
%TO.N,GND*%
X83782500Y-96882500D03*
%TO.P,U3,6,VOUT+*%
%TO.N,/VDD*%
X81242500Y-96882500D03*
%TD*%
D19*
%TO.P,C11,1*%
%TO.N,/AO_0*%
X106578400Y-81025999D03*
D20*
%TO.P,C11,2*%
%TO.N,GND*%
X106578400Y-83025999D03*
%TD*%
D25*
%TO.P,C3,1*%
%TO.N,/VDD*%
X80987500Y-90170000D03*
%TO.P,C3,2*%
%TO.N,GND*%
X84112500Y-90170000D03*
%TD*%
D26*
%TO.P,U4,1,NULL*%
%TO.N,unconnected-(U4-Pad1)*%
X64519000Y-71120000D03*
%TO.P,U4,2,-*%
%TO.N,Net-(R2-Pad1)*%
X64519000Y-72390000D03*
%TO.P,U4,3,+*%
%TO.N,Net-(TP3-Pad1)*%
X64519000Y-73660000D03*
%TO.P,U4,4,V-*%
%TO.N,/VSS*%
X64519000Y-74930000D03*
%TO.P,U4,5,NULL*%
%TO.N,unconnected-(U4-Pad5)*%
X69469000Y-74930000D03*
%TO.P,U4,6*%
%TO.N,/V_PHASE_OUT*%
X69469000Y-73660000D03*
%TO.P,U4,7,V+*%
%TO.N,/VDD*%
X69469000Y-72390000D03*
%TO.P,U4,8,NC*%
%TO.N,unconnected-(U4-Pad8)*%
X69469000Y-71120000D03*
%TD*%
%TO.P,U1,1,VOUT*%
%TO.N,Net-(TP3-Pad1)*%
X65597000Y-84074000D03*
%TO.P,U1,2,AGND*%
%TO.N,GND*%
X65597000Y-85344000D03*
%TO.P,U1,3,REF*%
%TO.N,Net-(C13-Pad1)*%
X65597000Y-86614000D03*
%TO.P,U1,4,CSn*%
%TO.N,/SPI(CS)*%
X65597000Y-87884000D03*
%TO.P,U1,5,SCLK*%
%TO.N,/SPI(SCLK)*%
X70547000Y-87884000D03*
%TO.P,U1,6,SDIN*%
%TO.N,/SPI(MOSI)*%
X70547000Y-86614000D03*
%TO.P,U1,7,DGND*%
%TO.N,GND*%
X70547000Y-85344000D03*
%TO.P,U1,8,VDD*%
%TO.N,/+5V*%
X70547000Y-84074000D03*
%TD*%
D21*
%TO.P,C7,1*%
%TO.N,/VDD*%
X83693000Y-71920500D03*
%TO.P,C7,2*%
%TO.N,GND*%
X83693000Y-68795500D03*
%TD*%
D22*
%TO.P,C15,1*%
%TO.N,GND*%
X61595000Y-71678000D03*
%TO.P,C15,2*%
%TO.N,/VSS*%
X61595000Y-74803000D03*
%TD*%
D27*
%TO.P,J3,1,Pin_1*%
%TO.N,Net-(F1-Pad1)*%
X107645200Y-92989400D03*
D28*
%TO.P,J3,2,Pin_2*%
%TO.N,GND*%
X107645200Y-98069400D03*
%TD*%
D19*
%TO.P,C13,1*%
%TO.N,Net-(C13-Pad1)*%
X70739000Y-95758000D03*
D20*
%TO.P,C13,2*%
%TO.N,GND*%
X72739000Y-95758000D03*
%TD*%
D19*
%TO.P,C12,1*%
%TO.N,/AO_1*%
X106578400Y-75415962D03*
D20*
%TO.P,C12,2*%
%TO.N,GND*%
X106578400Y-77415962D03*
%TD*%
D12*
%TO.P,R3,1*%
%TO.N,Net-(R2-Pad1)*%
X69661000Y-66141000D03*
%TO.P,R3,2*%
%TO.N,/V_PHASE_OUT*%
X69661000Y-69241000D03*
%TD*%
D16*
%TO.P,J5,1,Pin_1*%
%TO.N,/3V3_1*%
X55626000Y-95250000D03*
D17*
%TO.P,J5,2,Pin_2*%
%TO.N,/3V3_2*%
X58166000Y-95250000D03*
%TO.P,J5,3,Pin_3*%
%TO.N,/DIO0_N*%
X55626000Y-92710000D03*
%TO.P,J5,4,Pin_4*%
%TO.N,/DIO0_P*%
X58166000Y-92710000D03*
%TO.P,J5,5,Pin_5*%
%TO.N,/DIO1_N*%
X55626000Y-90170000D03*
%TO.P,J5,6,Pin_6*%
%TO.N,/DIO1_P*%
X58166000Y-90170000D03*
%TO.P,J5,7,Pin_7*%
%TO.N,/DIO2_N*%
X55626000Y-87630000D03*
%TO.P,J5,8,Pin_8*%
%TO.N,/DIO2_P*%
X58166000Y-87630000D03*
%TO.P,J5,9,Pin_9*%
%TO.N,/DIO3_N*%
X55626000Y-85090000D03*
%TO.P,J5,10,Pin_10*%
%TO.N,/DIO3_P*%
X58166000Y-85090000D03*
%TO.P,J5,11,Pin_11*%
%TO.N,/DIO4_N*%
X55626000Y-82550000D03*
%TO.P,J5,12,Pin_12*%
%TO.N,/DIO4_P*%
X58166000Y-82550000D03*
%TO.P,J5,13,Pin_13*%
%TO.N,/DIO5_N*%
X55626000Y-80010000D03*
%TO.P,J5,14,Pin_14*%
%TO.N,/DIO5_P*%
X58166000Y-80010000D03*
%TO.P,J5,15,Pin_15*%
%TO.N,/DIO6_N*%
X55626000Y-77470000D03*
%TO.P,J5,16,Pin_16*%
%TO.N,/DIO6_P*%
X58166000Y-77470000D03*
%TO.P,J5,17,Pin_17*%
%TO.N,/DIO7_N*%
X55626000Y-74930000D03*
%TO.P,J5,18,Pin_18*%
%TO.N,/DIO7_P*%
X58166000Y-74930000D03*
%TO.P,J5,19,Pin_19*%
%TO.N,unconnected-(J5-Pad19)*%
X55626000Y-72390000D03*
%TO.P,J5,20,Pin_20*%
%TO.N,unconnected-(J5-Pad20)*%
X58166000Y-72390000D03*
%TO.P,J5,21,Pin_21*%
%TO.N,unconnected-(J5-Pad21)*%
X55626000Y-69850000D03*
%TO.P,J5,22,Pin_22*%
%TO.N,unconnected-(J5-Pad22)*%
X58166000Y-69850000D03*
%TO.P,J5,23,Pin_23*%
%TO.N,unconnected-(J5-Pad23)*%
X55626000Y-67310000D03*
%TO.P,J5,24,Pin_24*%
%TO.N,unconnected-(J5-Pad24)*%
X58166000Y-67310000D03*
%TO.P,J5,25,Pin_25*%
%TO.N,GND*%
X55626000Y-64770000D03*
%TO.P,J5,26,Pin_26*%
X58166000Y-64770000D03*
%TD*%
D29*
%TO.P,C4,1*%
%TO.N,GND*%
X89485000Y-90170000D03*
%TO.P,C4,2*%
%TO.N,/VSS*%
X86360000Y-90170000D03*
%TD*%
D11*
%TO.P,R11,1*%
%TO.N,Net-(R11-Pad1)*%
X86450000Y-81409000D03*
%TO.P,R11,2*%
%TO.N,/V1_Out*%
X86450000Y-78309000D03*
%TD*%
D22*
%TO.P,C2,1*%
%TO.N,Net-(C13-Pad1)*%
X67564000Y-91567000D03*
%TO.P,C2,2*%
%TO.N,GND*%
X67564000Y-94692000D03*
%TD*%
%TO.P,C14,1*%
%TO.N,GND*%
X72263000Y-69176500D03*
%TO.P,C14,2*%
%TO.N,/VDD*%
X72263000Y-72301500D03*
%TD*%
D26*
%TO.P,U5,1*%
%TO.N,/V0_Out*%
X86525000Y-68700000D03*
%TO.P,U5,2,-*%
%TO.N,Net-(R10-Pad1)*%
X86525000Y-69970000D03*
%TO.P,U5,3,+*%
%TO.N,/AO_0*%
X86525000Y-71240000D03*
%TO.P,U5,4,V+*%
%TO.N,/VDD*%
X86525000Y-72510000D03*
%TO.P,U5,5,+*%
%TO.N,/AO_1*%
X86525000Y-73780000D03*
%TO.P,U5,6,-*%
%TO.N,Net-(R11-Pad1)*%
X86525000Y-75050000D03*
%TO.P,U5,7*%
%TO.N,/V1_Out*%
X86525000Y-76320000D03*
%TO.P,U5,8*%
%TO.N,/V2_Out*%
X91475000Y-76320000D03*
%TO.P,U5,9,-*%
%TO.N,Net-(R5-Pad1)*%
X91475000Y-75050000D03*
%TO.P,U5,10,+*%
%TO.N,/AO_2*%
X91475000Y-73780000D03*
%TO.P,U5,11,V-*%
%TO.N,/VSS*%
X91475000Y-72510000D03*
%TO.P,U5,12,+*%
%TO.N,/AO_3*%
X91475000Y-71240000D03*
%TO.P,U5,13,-*%
%TO.N,Net-(R4-Pad1)*%
X91475000Y-69970000D03*
%TO.P,U5,14*%
%TO.N,/V3_Out*%
X91475000Y-68700000D03*
%TD*%
D17*
%TO.P,J1,26,Pin_26*%
%TO.N,GND*%
X99441000Y-64770000D03*
%TO.P,J1,25,Pin_25*%
X101981000Y-64770000D03*
%TO.P,J1,24,Pin_24*%
%TO.N,unconnected-(J1-Pad24)*%
X99441000Y-67310000D03*
%TO.P,J1,23,Pin_23*%
%TO.N,unconnected-(J1-Pad23)*%
X101981000Y-67310000D03*
%TO.P,J1,22,Pin_22*%
%TO.N,GND*%
X99441000Y-69850000D03*
%TO.P,J1,21,Pin_21*%
X101981000Y-69850000D03*
%TO.P,J1,20,Pin_20*%
%TO.N,/AO_3*%
X99441000Y-72390000D03*
%TO.P,J1,19,Pin_19*%
%TO.N,/AO_2*%
X101981000Y-72390000D03*
%TO.P,J1,18,Pin_18*%
%TO.N,/AO_1*%
X99441000Y-74930000D03*
%TO.P,J1,17,Pin_17*%
%TO.N,/AO_0*%
X101981000Y-74930000D03*
%TO.P,J1,16,Pin_16*%
%TO.N,/AI_3*%
X99441000Y-77470000D03*
%TO.P,J1,15,Pin_15*%
%TO.N,/AI_2*%
X101981000Y-77470000D03*
%TO.P,J1,14,Pin_14*%
%TO.N,/AI_1*%
X99441000Y-80010000D03*
%TO.P,J1,13,Pin_13*%
%TO.N,/AI_0*%
X101981000Y-80010000D03*
%TO.P,J1,12,Pin_12*%
%TO.N,GND*%
X99441000Y-82550000D03*
%TO.P,J1,11,Pin_11*%
X101981000Y-82550000D03*
%TO.P,J1,10,Pin_10*%
%TO.N,unconnected-(J1-Pad10)*%
X99441000Y-85090000D03*
%TO.P,J1,9,Pin_9*%
%TO.N,unconnected-(J1-Pad9)*%
X101981000Y-85090000D03*
%TO.P,J1,8,Pin_8*%
%TO.N,unconnected-(J1-Pad8)*%
X99441000Y-87630000D03*
%TO.P,J1,7,Pin_7*%
%TO.N,unconnected-(J1-Pad7)*%
X101981000Y-87630000D03*
%TO.P,J1,6,Pin_6*%
%TO.N,/SPI(CS)*%
X99441000Y-90170000D03*
%TO.P,J1,5,Pin_5*%
%TO.N,/SPI(SCLK)*%
X101981000Y-90170000D03*
%TO.P,J1,4,Pin_4*%
%TO.N,/SPI(MISO)*%
X99441000Y-92710000D03*
%TO.P,J1,3,Pin_3*%
%TO.N,/SPI(MOSI)*%
X101981000Y-92710000D03*
%TO.P,J1,2,Pin_2*%
%TO.N,unconnected-(J1-Pad2)*%
X99441000Y-95250000D03*
D16*
%TO.P,J1,1,Pin_1*%
%TO.N,/+5V*%
X101981000Y-95250000D03*
%TD*%
%TO.P,J4,1,Pin_1*%
%TO.N,/3V3_2*%
X51180000Y-95250000D03*
D17*
%TO.P,J4,2,Pin_2*%
%TO.N,/3V3_1*%
X48640000Y-95250000D03*
%TO.P,J4,3,Pin_3*%
%TO.N,/DIO0_P*%
X51180000Y-92710000D03*
%TO.P,J4,4,Pin_4*%
%TO.N,/DIO0_N*%
X48640000Y-92710000D03*
%TO.P,J4,5,Pin_5*%
%TO.N,/DIO1_P*%
X51180000Y-90170000D03*
%TO.P,J4,6,Pin_6*%
%TO.N,/DIO1_N*%
X48640000Y-90170000D03*
%TO.P,J4,7,Pin_7*%
%TO.N,/DIO2_P*%
X51180000Y-87630000D03*
%TO.P,J4,8,Pin_8*%
%TO.N,/DIO2_N*%
X48640000Y-87630000D03*
%TO.P,J4,9,Pin_9*%
%TO.N,/DIO3_P*%
X51180000Y-85090000D03*
%TO.P,J4,10,Pin_10*%
%TO.N,/DIO3_N*%
X48640000Y-85090000D03*
%TO.P,J4,11,Pin_11*%
%TO.N,/DIO4_P*%
X51180000Y-82550000D03*
%TO.P,J4,12,Pin_12*%
%TO.N,/DIO4_N*%
X48640000Y-82550000D03*
%TO.P,J4,13,Pin_13*%
%TO.N,/DIO5_P*%
X51180000Y-80010000D03*
%TO.P,J4,14,Pin_14*%
%TO.N,/DIO5_N*%
X48640000Y-80010000D03*
%TO.P,J4,15,Pin_15*%
%TO.N,/DIO6_P*%
X51180000Y-77470000D03*
%TO.P,J4,16,Pin_16*%
%TO.N,/DIO6_N*%
X48640000Y-77470000D03*
%TO.P,J4,17,Pin_17*%
%TO.N,/DIO7_P*%
X51180000Y-74930000D03*
%TO.P,J4,18,Pin_18*%
%TO.N,/DIO7_N*%
X48640000Y-74930000D03*
%TO.P,J4,19,Pin_19*%
%TO.N,unconnected-(J4-Pad19)*%
X51180000Y-72390000D03*
%TO.P,J4,20,Pin_20*%
%TO.N,unconnected-(J4-Pad20)*%
X48640000Y-72390000D03*
%TO.P,J4,21,Pin_21*%
%TO.N,unconnected-(J4-Pad21)*%
X51180000Y-69850000D03*
%TO.P,J4,22,Pin_22*%
%TO.N,unconnected-(J4-Pad22)*%
X48640000Y-69850000D03*
%TO.P,J4,23,Pin_23*%
%TO.N,unconnected-(J4-Pad23)*%
X51180000Y-67310000D03*
%TO.P,J4,24,Pin_24*%
%TO.N,unconnected-(J4-Pad24)*%
X48640000Y-67310000D03*
%TO.P,J4,25,Pin_25*%
%TO.N,GND*%
X51180000Y-64770000D03*
%TO.P,J4,26,Pin_26*%
X48640000Y-64770000D03*
%TD*%
D30*
%TO.N,/SPI(CS)*%
X75488800Y-94411800D03*
X92811600Y-94437200D03*
%TO.N,GND*%
X105943400Y-85445600D03*
X72390000Y-67691000D03*
X82042000Y-68580000D03*
X85090000Y-87630000D03*
X67691000Y-96520000D03*
X96393000Y-80645000D03*
X61722000Y-70104000D03*
X70612000Y-77470000D03*
X96012000Y-68707000D03*
X96774000Y-64008000D03*
X82169000Y-76581000D03*
X72390000Y-85344000D03*
X90170000Y-87630000D03*
X63246000Y-90043000D03*
X63754000Y-85344000D03*
%TO.N,/VDD*%
X79248000Y-91059000D03*
X74041000Y-74676000D03*
X74041000Y-72263000D03*
%TO.N,/VSS*%
X65094500Y-76327000D03*
X86360000Y-91948000D03*
X83185000Y-86247250D03*
X66943500Y-76327000D03*
X89789000Y-86404075D03*
%TO.N,/AO_0*%
X88138000Y-71247000D03*
%TO.N,/AO_1*%
X84709000Y-73914000D03*
%TO.N,/SPI(MOSI)*%
X97282000Y-89789000D03*
X80518000Y-88265000D03*
%TO.N,/SPI(SCLK)*%
X79375000Y-89662000D03*
X90805000Y-89662000D03*
%TO.N,/SPI(CS)*%
X67056000Y-87757000D03*
%TO.N,/AI_0*%
X85217000Y-83947000D03*
X91059000Y-83947000D03*
%TO.N,/AI_1*%
X95504000Y-82931000D03*
X85358351Y-82957543D03*
%TO.N,/AI_2*%
X96520000Y-79248000D03*
%TO.N,/AI_3*%
X96393000Y-77597000D03*
X82042000Y-78740000D03*
%TO.N,/V2_Out*%
X84704808Y-76839309D03*
X91567000Y-77343000D03*
%TO.N,/V3_Out*%
X89535000Y-68580000D03*
%TD*%
D31*
%TO.N,/VSS*%
X86334600Y-99618800D02*
X86334600Y-96894600D01*
D32*
%TO.N,/AO_0*%
X106578400Y-81025999D02*
X109270799Y-81025999D01*
X109270799Y-81025999D02*
X110515400Y-82270600D01*
X103479600Y-76428600D02*
X103479600Y-77673200D01*
X103479600Y-77673200D02*
X106578400Y-80772000D01*
X101981000Y-74930000D02*
X103479600Y-76428600D01*
X106578400Y-80772000D02*
X106578400Y-81025999D01*
%TO.N,/AO_1*%
X106578400Y-75415962D02*
X109020162Y-75415962D01*
X109020162Y-75415962D02*
X110464600Y-76860400D01*
X99441000Y-74930000D02*
X100319299Y-74930000D01*
X100319299Y-74930000D02*
X101538499Y-73710800D01*
X101538499Y-73710800D02*
X104873238Y-73710800D01*
X104873238Y-73710800D02*
X106578400Y-75415962D01*
%TO.N,/AO_2*%
X106578400Y-69805925D02*
X109201325Y-69805925D01*
X109201325Y-69805925D02*
X110464600Y-71069200D01*
X101981000Y-72390000D02*
X103994325Y-72390000D01*
X103994325Y-72390000D02*
X106578400Y-69805925D01*
%TO.N,/AO_3*%
X106578400Y-64195888D02*
X108442688Y-64195888D01*
X108442688Y-64195888D02*
X110388400Y-66141600D01*
X102292701Y-71200000D02*
X103156000Y-70336701D01*
X103156000Y-70336701D02*
X103156000Y-67618288D01*
X103156000Y-67618288D02*
X106578400Y-64195888D01*
X100748000Y-71200000D02*
X102292701Y-71200000D01*
%TO.N,Net-(C13-Pad1)*%
X65227200Y-95681800D02*
X65227200Y-91660700D01*
X65227200Y-91660700D02*
X65212000Y-91645500D01*
%TO.N,/SPI(CS)*%
X75514200Y-94437200D02*
X75488800Y-94411800D01*
X92811600Y-94437200D02*
X75514200Y-94437200D01*
D31*
%TO.N,/+5V*%
X93942500Y-96882500D02*
X93942500Y-92950700D01*
X93942500Y-92950700D02*
X93942500Y-91935500D01*
X73279000Y-91567000D02*
X74752200Y-93040200D01*
X74752200Y-93040200D02*
X93853000Y-93040200D01*
X93853000Y-93040200D02*
X93942500Y-92950700D01*
X93942500Y-91935500D02*
X95377000Y-90501000D01*
%TO.N,/VDD*%
X81254600Y-99618800D02*
X81254600Y-96894600D01*
X81254600Y-96894600D02*
X81242500Y-96882500D01*
%TO.N,/+5V*%
X100482400Y-98933000D02*
X100482400Y-96899400D01*
X100482400Y-96899400D02*
X100465500Y-96882500D01*
D32*
%TO.N,GND*%
X104907500Y-86481500D02*
X105943400Y-85445600D01*
X104907500Y-86756200D02*
X104907500Y-86481500D01*
D31*
%TO.N,/+5V*%
X104907500Y-88656200D02*
X104907500Y-92323500D01*
X104907500Y-92323500D02*
X101981000Y-95250000D01*
%TO.N,Net-(F1-Pad2)*%
X107182500Y-87706200D02*
X108101200Y-87706200D01*
X108101200Y-87706200D02*
X109931200Y-85876200D01*
%TO.N,Net-(F1-Pad1)*%
X107645200Y-92989400D02*
X107645200Y-91262200D01*
X107645200Y-91262200D02*
X109931200Y-88976200D01*
D32*
%TO.N,GND*%
X61595000Y-71678000D02*
X61595000Y-70231000D01*
X72263000Y-69176500D02*
X72263000Y-67818000D01*
X94361000Y-81560000D02*
X95478000Y-81560000D01*
X89485000Y-90170000D02*
X89485000Y-88315000D01*
X92583000Y-87300000D02*
X95301000Y-87300000D01*
X90500000Y-87300000D02*
X92583000Y-87300000D01*
X67564000Y-96393000D02*
X67691000Y-96520000D01*
X70547000Y-85344000D02*
X72390000Y-85344000D01*
X70612000Y-78955500D02*
X70612000Y-77470000D01*
X72263000Y-67818000D02*
X72390000Y-67691000D01*
X63312000Y-91645500D02*
X63312000Y-90109000D01*
X61722000Y-70104000D02*
X62484000Y-70104000D01*
X83820000Y-78232000D02*
X82169000Y-76581000D01*
X63312000Y-90109000D02*
X63246000Y-90043000D01*
X82042000Y-68580000D02*
X83477500Y-68580000D01*
X94400000Y-63728000D02*
X96494000Y-63728000D01*
X89485000Y-88315000D02*
X90170000Y-87630000D01*
X94361000Y-68922500D02*
X95796500Y-68922500D01*
X95478000Y-81560000D02*
X96393000Y-80645000D01*
X96494000Y-63728000D02*
X96774000Y-64008000D01*
X62484000Y-70104000D02*
X64008000Y-68580000D01*
X65597000Y-85344000D02*
X63754000Y-85344000D01*
X90170000Y-87630000D02*
X90500000Y-87300000D01*
X61595000Y-70231000D02*
X61722000Y-70104000D01*
X83477500Y-68580000D02*
X83693000Y-68795500D01*
X95301000Y-87300000D02*
X95377000Y-87376000D01*
X84112500Y-88607500D02*
X85090000Y-87630000D01*
X67564000Y-94692000D02*
X67564000Y-96393000D01*
X95796500Y-68922500D02*
X96012000Y-68707000D01*
X83693000Y-66825000D02*
X83693000Y-68630000D01*
X84112500Y-90170000D02*
X84112500Y-88607500D01*
X83820000Y-78333000D02*
X83820000Y-78232000D01*
D31*
%TO.N,/+5V*%
X72517000Y-91567000D02*
X69784000Y-88834000D01*
X68922000Y-88480000D02*
X68922000Y-84621000D01*
X69276000Y-88834000D02*
X68922000Y-88480000D01*
X68922000Y-84621000D02*
X69469000Y-84074000D01*
X73279000Y-91567000D02*
X72517000Y-91567000D01*
X70547000Y-84074000D02*
X70547000Y-82145500D01*
X69784000Y-88834000D02*
X69276000Y-88834000D01*
X69469000Y-84074000D02*
X70547000Y-84074000D01*
X100465500Y-96882500D02*
X102113000Y-95235000D01*
X70547000Y-82145500D02*
X70612000Y-82080500D01*
X93942500Y-96882500D02*
X100465500Y-96882500D01*
%TO.N,/VDD*%
X72263000Y-72301500D02*
X74002500Y-72301500D01*
X79248000Y-91059000D02*
X80098500Y-91059000D01*
X79609750Y-85197750D02*
X85959750Y-85197750D01*
X86525000Y-72510000D02*
X87496000Y-72510000D01*
X74002500Y-72301500D02*
X74041000Y-72263000D01*
X86525000Y-72510000D02*
X84282500Y-72510000D01*
X74041000Y-79629000D02*
X79609750Y-85197750D01*
X85959750Y-85197750D02*
X80987500Y-90170000D01*
X84282500Y-72510000D02*
X83693000Y-71920500D01*
X80098500Y-91059000D02*
X80987500Y-90170000D01*
X88600000Y-82557500D02*
X85959750Y-85197750D01*
X87496000Y-72510000D02*
X88600000Y-73614000D01*
X69469000Y-72390000D02*
X72174500Y-72390000D01*
X74041000Y-74676000D02*
X74041000Y-79629000D01*
X88600000Y-73614000D02*
X88600000Y-82557500D01*
X72174500Y-72390000D02*
X72263000Y-72301500D01*
%TO.N,/VSS*%
X64519000Y-74930000D02*
X61722000Y-74930000D01*
X64519000Y-75751500D02*
X65094500Y-76327000D01*
X70953925Y-76327000D02*
X73141000Y-78514075D01*
X91475000Y-72510000D02*
X90638629Y-72510000D01*
X79245208Y-86106000D02*
X83043750Y-86106000D01*
X86360000Y-89833075D02*
X88096538Y-88096538D01*
X83043750Y-86106000D02*
X83185000Y-86247250D01*
X88096538Y-88096538D02*
X89789000Y-86404075D01*
X73141000Y-78514075D02*
X73141000Y-80001792D01*
X73141000Y-80001792D02*
X79245208Y-86106000D01*
X90638629Y-72510000D02*
X89789000Y-73359629D01*
X89789000Y-73359629D02*
X89789000Y-86404075D01*
X91475000Y-72510000D02*
X93898500Y-72510000D01*
X93898500Y-72510000D02*
X94361000Y-72047500D01*
X64519000Y-75751500D02*
X64519000Y-74930000D01*
X66943500Y-76327000D02*
X70953925Y-76327000D01*
X61722000Y-74930000D02*
X61595000Y-74803000D01*
X86360000Y-91948000D02*
X86360000Y-90170000D01*
D32*
%TO.N,/AO_3*%
X91855000Y-70860000D02*
X91475000Y-71240000D01*
X99573000Y-72375000D02*
X97267000Y-72375000D01*
X97267000Y-72375000D02*
X95752000Y-70860000D01*
X95752000Y-70860000D02*
X91855000Y-70860000D01*
X100748000Y-71200000D02*
X99573000Y-72375000D01*
%TO.N,/AO_2*%
X91595000Y-73660000D02*
X91475000Y-73780000D01*
X100711000Y-73660000D02*
X91595000Y-73660000D01*
X101981000Y-72390000D02*
X100711000Y-73660000D01*
%TO.N,/AO_0*%
X88138000Y-71247000D02*
X86532000Y-71247000D01*
X86532000Y-71247000D02*
X86525000Y-71240000D01*
%TO.N,/AO_1*%
X86391000Y-73914000D02*
X86525000Y-73780000D01*
X84709000Y-73914000D02*
X86391000Y-73914000D01*
%TO.N,/SPI(MOSI)*%
X100938000Y-91520000D02*
X99013000Y-91520000D01*
X80518000Y-88265000D02*
X75692000Y-88265000D01*
X99013000Y-91520000D02*
X97282000Y-89789000D01*
X74041000Y-86614000D02*
X70547000Y-86614000D01*
X102113000Y-92695000D02*
X100938000Y-91520000D01*
X75692000Y-88265000D02*
X74041000Y-86614000D01*
%TO.N,/SPI(SCLK)*%
X79375000Y-89662000D02*
X74041000Y-89662000D01*
X102113000Y-90155000D02*
X100938000Y-88980000D01*
X72263000Y-87884000D02*
X70547000Y-87884000D01*
X74041000Y-89662000D02*
X72263000Y-87884000D01*
X100938000Y-88980000D02*
X91487000Y-88980000D01*
X91487000Y-88980000D02*
X90805000Y-89662000D01*
%TO.N,/SPI(CS)*%
X65724000Y-87757000D02*
X65597000Y-87884000D01*
X67056000Y-87757000D02*
X65724000Y-87757000D01*
%TO.N,/AI_0*%
X91106000Y-83900000D02*
X91059000Y-83947000D01*
X100377000Y-83900000D02*
X91106000Y-83900000D01*
X100938000Y-81180000D02*
X100711000Y-81407000D01*
X100711000Y-81407000D02*
X100711000Y-83566000D01*
X100938000Y-81170000D02*
X100938000Y-81180000D01*
X74816000Y-79307984D02*
X79455016Y-83947000D01*
X75020000Y-77375000D02*
X75020000Y-77380000D01*
X102113000Y-79995000D02*
X100938000Y-81170000D01*
X75020000Y-77380000D02*
X74816000Y-77584000D01*
X76195000Y-76200000D02*
X75020000Y-77375000D01*
X74816000Y-77584000D02*
X74816000Y-79307984D01*
X100711000Y-83566000D02*
X100377000Y-83900000D01*
X79455016Y-83947000D02*
X85217000Y-83947000D01*
%TO.N,/AI_1*%
X96637000Y-82931000D02*
X99573000Y-79995000D01*
X85358351Y-82957543D02*
X85331808Y-82931000D01*
X77268000Y-77667000D02*
X78735000Y-76200000D01*
X77268000Y-79173000D02*
X77268000Y-77667000D01*
X85331808Y-82931000D02*
X81026000Y-82931000D01*
X95504000Y-82931000D02*
X96637000Y-82931000D01*
X81026000Y-82931000D02*
X77268000Y-79173000D01*
%TO.N,/AI_2*%
X97028000Y-78740000D02*
X96520000Y-79248000D01*
X101981000Y-77470000D02*
X100711000Y-78740000D01*
X100711000Y-78740000D02*
X97028000Y-78740000D01*
%TO.N,/AI_3*%
X78735000Y-78740000D02*
X82042000Y-78740000D01*
X96535000Y-77455000D02*
X96393000Y-77597000D01*
X99573000Y-77455000D02*
X96535000Y-77455000D01*
%TO.N,/V0_Out*%
X86525000Y-68700000D02*
X86525000Y-66993000D01*
X77642000Y-64389000D02*
X81407000Y-64389000D01*
X81883000Y-64865000D02*
X84397000Y-64865000D01*
X76093000Y-65938000D02*
X77642000Y-64389000D01*
X86360000Y-66828000D02*
X84397000Y-64865000D01*
X81407000Y-64389000D02*
X81883000Y-64865000D01*
X86525000Y-66993000D02*
X86360000Y-66828000D01*
%TO.N,/V1_Out*%
X86450000Y-78309000D02*
X86450000Y-76395000D01*
X86450000Y-76395000D02*
X86525000Y-76320000D01*
X81280000Y-68585000D02*
X81280000Y-72390000D01*
X78735000Y-66040000D02*
X81280000Y-68585000D01*
X81280000Y-72390000D02*
X85210000Y-76320000D01*
X85210000Y-76320000D02*
X86525000Y-76320000D01*
%TO.N,/V2_Out*%
X79910000Y-70544000D02*
X79121000Y-69755000D01*
X91567000Y-76412000D02*
X91475000Y-76320000D01*
X91567000Y-78460000D02*
X91567000Y-76412000D01*
X79910000Y-71020000D02*
X79910000Y-70544000D01*
X77370000Y-69755000D02*
X76195000Y-68580000D01*
X79910000Y-71020000D02*
X79910000Y-72044501D01*
X79910000Y-72044501D02*
X84704808Y-76839309D01*
X79121000Y-69755000D02*
X77370000Y-69755000D01*
%TO.N,/V3_Out*%
X89655000Y-68700000D02*
X89535000Y-68580000D01*
X91475000Y-68700000D02*
X91475000Y-67047000D01*
X91475000Y-67047000D02*
X91694000Y-66828000D01*
X91475000Y-68700000D02*
X89655000Y-68700000D01*
%TO.N,/V_PHASE_OUT*%
X68453000Y-73660000D02*
X67691000Y-72898000D01*
X69469000Y-73660000D02*
X76195000Y-73660000D01*
X67691000Y-71211000D02*
X69661000Y-69241000D01*
X67691000Y-72898000D02*
X67691000Y-71211000D01*
X69469000Y-73660000D02*
X68453000Y-73660000D01*
%TO.N,Net-(C13-Pad1)*%
X70739000Y-92127000D02*
X70739000Y-95758000D01*
X65290500Y-91567000D02*
X65212000Y-91645500D01*
X64262000Y-90695500D02*
X65212000Y-91645500D01*
X70179000Y-91567000D02*
X70739000Y-92127000D01*
X64262000Y-87572249D02*
X64262000Y-90695500D01*
X67564000Y-91567000D02*
X65290500Y-91567000D01*
X70179000Y-91567000D02*
X67564000Y-91567000D01*
X65220249Y-86614000D02*
X64262000Y-87572249D01*
X65597000Y-86614000D02*
X65220249Y-86614000D01*
%TO.N,Net-(R2-Pad1)*%
X64895751Y-72390000D02*
X67121000Y-70164751D01*
X67121000Y-68681000D02*
X69661000Y-66141000D01*
X67121000Y-70164751D02*
X67121000Y-69215000D01*
X64519000Y-72390000D02*
X64895751Y-72390000D01*
X67121000Y-69215000D02*
X67121000Y-68681000D01*
%TO.N,Net-(R4-Pad1)*%
X91694000Y-64122000D02*
X94400000Y-66828000D01*
X92082000Y-69970000D02*
X93136000Y-68916000D01*
X91694000Y-63728000D02*
X91694000Y-64122000D01*
X93136000Y-68092000D02*
X94400000Y-66828000D01*
X93136000Y-68916000D02*
X93136000Y-68092000D01*
X91475000Y-69970000D02*
X92082000Y-69970000D01*
%TO.N,Net-(R5-Pad1)*%
X91567000Y-81560000D02*
X91567000Y-81254000D01*
X91567000Y-81254000D02*
X94361000Y-78460000D01*
X91475000Y-75050000D02*
X92195000Y-75050000D01*
X94361000Y-78460000D02*
X94361000Y-77470000D01*
X94361000Y-77470000D02*
X91941000Y-75050000D01*
X91941000Y-75050000D02*
X91475000Y-75050000D01*
%TO.N,Net-(R10-Pad1)*%
X86357000Y-63725000D02*
X86360000Y-63728000D01*
X83693000Y-63725000D02*
X86357000Y-63725000D01*
X87825000Y-69046751D02*
X87825000Y-65193000D01*
X86901751Y-69970000D02*
X87825000Y-69046751D01*
X86525000Y-69970000D02*
X86901751Y-69970000D01*
X87825000Y-65193000D02*
X86360000Y-63728000D01*
%TO.N,Net-(R11-Pad1)*%
X86426000Y-81433000D02*
X86450000Y-81409000D01*
X86525000Y-75050000D02*
X86901751Y-75050000D01*
X87825000Y-80034000D02*
X86450000Y-81409000D01*
X86901751Y-75050000D02*
X87825000Y-75973249D01*
X87825000Y-75973249D02*
X87825000Y-80034000D01*
X83820000Y-81433000D02*
X86426000Y-81433000D01*
D33*
%TO.N,/DIO0_N*%
X54356000Y-91440000D02*
X55626000Y-92710000D01*
X49910000Y-91440000D02*
X54356000Y-91440000D01*
X48640000Y-92710000D02*
X49910000Y-91440000D01*
%TO.N,/DIO1_N*%
X54356000Y-88900000D02*
X55626000Y-90170000D01*
X49910000Y-88900000D02*
X54356000Y-88900000D01*
X48640000Y-90170000D02*
X49910000Y-88900000D01*
%TO.N,/DIO2_N*%
X48640000Y-87630000D02*
X49910000Y-86360000D01*
X54356000Y-86360000D02*
X55626000Y-87630000D01*
X49910000Y-86360000D02*
X54356000Y-86360000D01*
%TO.N,/DIO3_N*%
X49910000Y-83820000D02*
X54356000Y-83820000D01*
X48640000Y-85090000D02*
X49910000Y-83820000D01*
X54356000Y-83820000D02*
X55626000Y-85090000D01*
%TO.N,/DIO4_N*%
X48640000Y-82550000D02*
X49910000Y-81280000D01*
X54356000Y-81280000D02*
X55626000Y-82550000D01*
X49910000Y-81280000D02*
X54356000Y-81280000D01*
%TO.N,/DIO5_N*%
X48640000Y-80010000D02*
X49910000Y-78740000D01*
X54356000Y-78740000D02*
X55626000Y-80010000D01*
X49910000Y-78740000D02*
X54356000Y-78740000D01*
%TO.N,/DIO6_N*%
X48640000Y-77470000D02*
X49910000Y-76200000D01*
X49910000Y-76200000D02*
X54356000Y-76200000D01*
X54356000Y-76200000D02*
X55626000Y-77470000D01*
%TO.N,/DIO7_N*%
X49910000Y-73660000D02*
X54356000Y-73660000D01*
X48640000Y-74930000D02*
X49910000Y-73660000D01*
X54356000Y-73660000D02*
X55626000Y-74930000D01*
D32*
%TO.N,Net-(TP3-Pad1)*%
X65178594Y-73660000D02*
X66019000Y-74500406D01*
X64519000Y-73660000D02*
X65178594Y-73660000D01*
X66019000Y-83652000D02*
X65597000Y-84074000D01*
X66019000Y-74500406D02*
X66019000Y-83652000D01*
D33*
%TO.N,/3V3_1*%
X49910000Y-93980000D02*
X54356000Y-93980000D01*
X48640000Y-95250000D02*
X49910000Y-93980000D01*
X54356000Y-93980000D02*
X55626000Y-95250000D01*
%TD*%
M02*
